<?xml version="1.0" standalone="no"?>
<!DOCTYPE svg PUBLIC "-//W3C//DTD SVG 20010904//EN"
 "http://www.w3.org/TR/2001/REC-SVG-20010904/DTD/svg10.dtd">
<svg version="1.0" xmlns="http://www.w3.org/2000/svg"
 width="200.000000pt" height="200.000000pt" viewBox="0 0 200.000000 200.000000"
 preserveAspectRatio="xMidYMid meet">

<g transform="translate(0.000000,200.000000) scale(0.100000,-0.100000)"
fill="#000000" stroke="none">
<path d="M1284 1860 c-71 -28 -137 -89 -171 -158 -24 -48 -28 -70 -28 -137 0
-67 4 -89 28 -137 95 -194 357 -238 510 -85 152 152 107 413 -88 507 -69 33
-181 38 -251 10z m144 -202 l3 -57 57 -3 c51 -3 57 -5 60 -27 5 -31 -12 -41
-70 -41 l-48 0 0 -54 c0 -47 -3 -56 -22 -62 -29 -9 -48 19 -48 72 l0 43 -51 3
c-95 6 -93 68 2 68 l49 0 0 48 c0 53 14 74 45 70 17 -3 20 -12 23 -60z"/>
<path d="M492 1499 c-23 -12 -51 -33 -61 -48 -11 -15 -53 -108 -95 -206 l-75
-180 -93 0 c-88 0 -93 -1 -105 -25 -7 -14 -13 -44 -13 -68 0 -54 31 -89 90
-98 32 -5 40 -10 35 -23 -47 -118 -57 -169 -53 -256 3 -70 10 -103 30 -146 29
-63 87 -133 130 -155 27 -14 28 -18 28 -84 0 -99 13 -110 124 -110 79 0 86 2
105 26 16 21 21 41 21 90 l0 64 443 -2 442 -3 3 -65 c5 -95 21 -110 127 -110
72 0 84 3 103 23 18 19 22 35 22 89 0 64 1 67 33 86 45 26 121 130 144 194 33
95 21 236 -31 359 -6 13 1 18 30 23 56 11 84 45 84 103 0 29 -7 58 -16 72 -16
22 -20 23 -108 16 l-91 -6 -35 85 c-33 80 -50 100 -65 76 -4 -6 -24 -19 -45
-30 l-39 -20 29 -69 c17 -39 30 -72 30 -75 0 -4 -279 -6 -621 -6 -616 0 -620
0 -614 20 3 11 37 91 75 177 49 113 75 162 92 170 16 9 86 13 236 13 116 0
212 3 212 8 -1 4 -7 30 -14 57 l-13 50 -219 3 c-206 2 -222 1 -262 -19z m26
-712 c30 -14 52 -56 52 -98 0 -22 -10 -41 -34 -65 -28 -28 -42 -34 -76 -34
-34 0 -48 6 -76 34 -64 64 -37 149 56 179 18 6 46 0 78 -16z m1070 0 c30 -14
52 -56 52 -98 0 -22 -10 -41 -34 -65 -28 -28 -42 -34 -76 -34 -34 0 -48 6 -76
34 -64 64 -37 149 56 179 18 6 46 0 78 -16z"/>
</g>
</svg>
