<?xml version="1.0" encoding="UTF-8"?>
<svg version="1.1" xmlns="http://www.w3.org/2000/svg" width="486" height="513">
<path d="M0 0 C0.81339844 0.58394531 1.62679687 1.16789063 2.46484375 1.76953125 C17.87659311 12.10071772 33.48932725 14.75938431 51.65234375 14.76953125 C53.35970703 14.78790039 53.35970703 14.78790039 55.1015625 14.80664062 C66.69326598 14.82637678 77.38500362 13.65162772 88.02734375 8.89453125 C89.24526611 8.37258179 89.24526611 8.37258179 90.48779297 7.84008789 C96.04723747 5.3888934 101.00192686 2.5162709 105.78515625 -1.265625 C113.3825218 -4.61073371 122.9147856 0.13272248 130.29443359 2.65527344 C132.26297875 3.32712854 134.2363256 3.98293886 136.2109375 4.63671875 C143.02772368 6.91995439 149.63447935 9.4302825 156.11889648 12.54467773 C158.25553351 13.51533642 160.33876866 14.24233465 162.58984375 14.89453125 C187.45192067 22.8273508 213.69504407 40.89273772 226.59375 63.6875 C227.40234375 65.58203125 227.40234375 65.58203125 227.40234375 68.58203125 C226.35626953 68.58589844 226.35626953 68.58589844 225.2890625 68.58984375 C203.5516675 69.38608533 178.83620917 74.56914894 162.06640625 89.234375 C160.40234375 90.58203125 160.40234375 90.58203125 157.40234375 91.58203125 C156.06338743 93.24418393 154.73104233 94.91166732 153.40234375 96.58203125 C152.49484375 97.30390625 151.58734375 98.02578125 150.65234375 98.76953125 C133.4103799 112.7107665 124.40467434 136.22998302 121.40234375 157.58203125 C121.33414319 160.09812041 121.31743106 162.61589898 121.33984375 165.1328125 C121.34363037 165.83222458 121.34741699 166.53163666 121.35131836 167.25224304 C121.36345033 169.46640442 121.38209944 171.68043013 121.40234375 173.89453125 C121.42884924 176.82812103 121.4488515 179.7616488 121.46484375 182.6953125 C121.47644531 183.99251221 121.48804688 185.28971191 121.5 186.6262207 C121.40234375 189.58203125 121.40234375 189.58203125 120.40234375 190.58203125 C119.04140471 190.68110356 117.67537156 190.71125447 116.31083298 190.71345901 C115.42365955 190.71730016 114.53648612 190.7211413 113.62242866 190.72509885 C112.63656028 190.72423237 111.65069191 190.72336588 110.63494873 190.72247314 C109.59631628 190.72544427 108.55768384 190.72841539 107.48757768 190.73147655 C103.97836412 190.74020562 100.46918451 190.74167533 96.95996094 190.74316406 C94.45564195 190.7477893 91.95132367 190.75281355 89.44700623 190.75820923 C82.62256693 190.77136441 75.7981389 190.77782068 68.97368908 190.78221989 C64.7143739 190.78497944 60.45506101 190.78921631 56.19574738 190.79372406 C44.40905271 190.80592039 32.62235987 190.81621832 20.83565903 190.81959915 C20.08071109 190.81981872 19.32576315 190.82003828 18.547938 190.8202645 C17.79115166 190.82048278 17.03436532 190.82070106 16.25464606 190.82092595 C14.72103357 190.82136942 13.18742108 190.82181598 11.65380859 190.82226562 C10.89307888 190.82248705 10.13234917 190.82270848 9.34856704 190.82293662 C-2.97645158 190.82688413 -15.30141105 190.84433508 -27.62640682 190.86762515 C-40.27243376 190.8913294 -52.91843102 190.90380061 -65.56448054 190.90496707 C-72.66789006 190.90588446 -79.77122257 190.91165269 -86.8746109 190.92978668 C-93.5558041 190.94678231 -100.23682606 190.94844719 -106.91804314 190.93964767 C-109.37348509 190.93887459 -111.82893475 190.94325547 -114.28435707 190.95310593 C-117.6305233 190.96574479 -120.97616468 190.95999226 -124.32232666 190.94952393 C-125.29927215 190.95758033 -126.27621764 190.96563673 -127.28276753 190.97393727 C-132.17681746 190.93800716 -135.6684541 190.86002582 -139.59765625 187.58203125 C-144.68221302 177.41291772 -140.10597311 156.66118752 -139.48071289 145.58935547 C-139.28552846 142.08870682 -139.10636374 138.58746503 -138.92773438 135.0859375 C-138.2606954 122.71396834 -137.21467969 110.70019204 -134.59765625 98.58203125 C-134.40067139 97.6398877 -134.20368652 96.69774414 -134.00073242 95.72705078 C-131.60849073 84.86259972 -128.17844425 75.22271683 -122.59765625 65.58203125 C-122.1490625 64.78925781 -121.70046875 63.99648438 -121.23828125 63.1796875 C-115.76703499 54.28086638 -107.90311991 45.89150445 -99.59765625 39.58203125 C-98.85128906 38.99164063 -98.10492188 38.40125 -97.3359375 37.79296875 C-77.97530625 23.13999502 -55.15429838 14.04793744 -32.59765625 5.58203125 C-31.55222656 5.18709473 -30.50679688 4.7921582 -29.4296875 4.38525391 C-26.32599734 3.22232449 -23.2140992 2.08528601 -20.09765625 0.95703125 C-19.14890625 0.6019751 -18.20015625 0.24691895 -17.22265625 -0.11889648 C-10.9211739 -2.35123735 -6.17371087 -3.37001059 0 0 Z " fill="#010101" transform="translate(145.59765625,237.41796875)"/>
<path d="M0 0 C2.00485558 1.70609279 3.94373218 3.46054808 5.8671875 5.2578125 C6.60839844 5.94617188 7.34960938 6.63453125 8.11328125 7.34375 C13.51525787 12.53620645 17.77060552 18.00312439 21.8671875 24.2578125 C22.71216797 25.41603516 22.71216797 25.41603516 23.57421875 26.59765625 C39.92431794 49.96021333 42.43924588 81.73661046 37.8671875 109.2578125 C36.88004779 112.9962061 35.61605398 116.5830739 34.2421875 120.1953125 C33.88463379 121.1538916 33.52708008 122.1124707 33.15869141 123.10009766 C30.39296991 130.31592741 27.25299745 136.86706086 22.8671875 143.2578125 C22.38765625 143.96421875 21.908125 144.670625 21.4140625 145.3984375 C4.33849503 169.22917452 -20.51223059 186.51283095 -49.54296875 191.57421875 C-71.00013283 194.91498933 -93.52592691 192.96934802 -113.1328125 183.2578125 C-114.56874061 182.67062047 -116.00620166 182.08716043 -117.4453125 181.5078125 C-128.79122804 176.43361056 -138.32380392 168.90926158 -147.1328125 160.2578125 C-148.01195312 159.40058594 -148.89109375 158.54335937 -149.796875 157.66015625 C-156.1328125 151.14410013 -156.1328125 151.14410013 -156.1328125 147.2578125 C-156.7928125 147.2578125 -157.4528125 147.2578125 -158.1328125 147.2578125 C-160.86769219 142.62795271 -163.52961804 137.9629803 -166.1328125 133.2578125 C-166.69097656 132.25105469 -167.24914062 131.24429688 -167.82421875 130.20703125 C-179.93450625 106.3342713 -180.86951589 76.15243828 -173.0234375 50.83056641 C-169.54688537 40.78782892 -165.02794376 31.43493737 -158.50463867 23.03466797 C-156.88195346 20.93288777 -155.43661736 18.74491268 -154.0078125 16.5078125 C-151.95689354 13.39404752 -149.91832341 10.76477232 -147.1328125 8.2578125 C-146.5553125 7.6596875 -145.9778125 7.0615625 -145.3828125 6.4453125 C-139.8097815 1.02708792 -134.01713089 -3.65308952 -127.5703125 -7.9921875 C-126.94535889 -8.4164502 -126.32040527 -8.84071289 -125.67651367 -9.27783203 C-121.64711586 -11.94223762 -117.64411647 -13.9596967 -113.1328125 -15.7421875 C-112.22390259 -16.11005371 -112.22390259 -16.11005371 -111.29663086 -16.48535156 C-73.45995603 -31.57135696 -31.60749689 -25.81857804 0 0 Z " fill="#020202" transform="translate(264.1328125,37.7421875)"/>
<path d="M0 0 C1.18207031 0.31710937 2.36414063 0.63421875 3.58203125 0.9609375 C19.01946873 5.51942689 33.1841328 13.99626299 44 26 C44 26.66 44 27.32 44 28 C44.57234375 28.21398437 45.1446875 28.42796875 45.734375 28.6484375 C56.0768958 34.81828612 64.24491357 54.60408654 67.48046875 65.85546875 C67.73763672 66.91701172 67.73763672 66.91701172 68 68 C68.20238281 68.77988281 68.40476562 69.55976563 68.61328125 70.36328125 C73.859066 95.02203814 69.82343216 121.44554486 57.16796875 143.140625 C53.99494955 147.81062166 50.34478349 152.06748305 46.55859375 156.25 C45.25859207 157.70965101 44.05331672 159.25296316 42.875 160.8125 C40.79290281 163.24161339 38.74759465 164.39165191 36 166 C35.2575 166.76570312 34.515 167.53140625 33.75 168.3203125 C18.3555103 183.32119309 -4.1483677 188.17668674 -24.8125 188.1875 C-26.03259766 188.19974609 -27.25269531 188.21199219 -28.50976562 188.22460938 C-39.31084151 188.2420211 -48.47532609 186.51499659 -58.5625 182.75 C-59.39096436 182.44352539 -60.21942871 182.13705078 -61.07299805 181.82128906 C-66.2519819 179.84026257 -70.81832058 177.61939491 -75.27734375 174.27734375 C-77.18547708 172.78526469 -77.18547708 172.78526469 -80.375 171.3125 C-82.80709817 170.09645091 -84.33361606 169.12926837 -86 167 C-86 166.34 -86 165.68 -86 165 C-87.09634766 164.65195312 -87.09634766 164.65195312 -88.21484375 164.296875 C-95.03896446 161.11930406 -100.16905744 153.29369134 -104 147 C-104.54333984 146.20142578 -104.54333984 146.20142578 -105.09765625 145.38671875 C-119.31325722 124.04046264 -123.48516058 98.10683032 -118.77099609 72.98803711 C-117.25625725 65.93605471 -115.40515338 59.38744458 -112 53 C-111.19175781 51.30230469 -111.19175781 51.30230469 -110.3671875 49.5703125 C-107.4166193 43.41521734 -104.51331825 38.12650209 -100 33 C-99.19175781 32.01773438 -99.19175781 32.01773438 -98.3671875 31.015625 C-74.53157819 2.81223388 -36.00152254 -10.6832021 0 0 Z M-59 35 C-60.24774182 35.67088359 -61.49764251 36.33777258 -62.75 37 C-66.06228473 39.03832907 -68.36466268 41.15660974 -71 44 C-71.78375 44.7425 -72.5675 45.485 -73.375 46.25 C-85.99782413 59.47391099 -91.17578667 73.53550111 -91.25 91.625 C-91.270625 92.85863281 -91.29125 94.09226562 -91.3125 95.36328125 C-91.38742463 112.98930138 -84.46185543 127.36154764 -72.35546875 139.8671875 C-70.28250828 142.22373432 -70.28250828 142.22373432 -68 142 C-67.81695312 142.5671875 -67.63390625 143.134375 -67.4453125 143.71875 C-62.4496891 151.60373397 -48.84649556 156.01187244 -40.0715332 158.01757812 C-23.64921861 161.22660497 -5.11483104 159.45779921 9 150 C9.70511719 149.58621094 10.41023438 149.17242187 11.13671875 148.74609375 C18.04712935 144.67137844 22.94349228 139.1345449 28 133 C28.76183594 132.10667969 28.76183594 132.10667969 29.5390625 131.1953125 C39.69256367 118.64662644 43.25772079 101.82631988 42 86 C39.86094304 69.85011992 32.59556772 53.74327835 20 43 C19.34 43 18.68 43 18 43 C18 42.34 18 41.68 18 41 C3.60215491 28.83841595 -13.20902258 24.68265892 -31.74072266 25.78417969 C-41.5928531 26.72531685 -50.67443802 29.62199723 -59 35 Z " fill="#0D0D0D" transform="translate(393,316)"/>
<path d="M0 0 C3.47914941 -0.02887814 6.95826831 -0.04675687 10.4375 -0.0625 C11.92733398 -0.07506836 11.92733398 -0.07506836 13.44726562 -0.08789062 C14.86362305 -0.09272461 14.86362305 -0.09272461 16.30859375 -0.09765625 C17.62041626 -0.10551147 17.62041626 -0.10551147 18.95874023 -0.11352539 C21 0 21 0 22 1 C22.15858842 3.14386657 22.25129298 5.29266838 22.31640625 7.44140625 C22.35830078 8.74658203 22.40019531 10.05175781 22.44335938 11.39648438 C22.48317608 12.7851533 22.52288825 14.17382522 22.5625 15.5625 C22.60567989 16.95509183 22.649294 18.34767028 22.69335938 19.74023438 C22.79985876 23.16004801 22.90186923 26.57993763 23 30 C23.90355225 30.02505615 24.80710449 30.0501123 25.73803711 30.07592773 C29.0796428 30.17087317 32.42106252 30.27011621 35.76245117 30.37231445 C37.2106424 30.4157163 38.65888654 30.45738744 40.10717773 30.49731445 C42.18489559 30.55489062 44.26234573 30.61862028 46.33984375 30.68359375 C47.59144287 30.72025146 48.84304199 30.75690918 50.13256836 30.79467773 C53 31 53 31 54 32 C54.09899523 33.54955559 54.13079524 35.10353673 54.1328125 36.65625 C54.13410156 37.59597656 54.13539063 38.53570312 54.13671875 39.50390625 C54.13285156 40.49261719 54.12898438 41.48132813 54.125 42.5 C54.12886719 43.48871094 54.13273437 44.47742188 54.13671875 45.49609375 C54.13542969 46.43582031 54.13414062 47.37554687 54.1328125 48.34375 C54.13168457 49.21193359 54.13055664 50.08011719 54.12939453 50.97460938 C54 53 54 53 53 54 C50.70848583 54.08790975 48.41427476 54.10694038 46.12109375 54.09765625 C45.09110008 54.09553383 45.09110008 54.09553383 44.04029846 54.09336853 C41.83932199 54.08775479 39.63844591 54.07520007 37.4375 54.0625 C35.94856917 54.05748676 34.45963676 54.05292355 32.97070312 54.04882812 C29.31376925 54.03778093 25.65689442 54.02050713 22 54 C22.00523682 54.93384521 22.01047363 55.86769043 22.01586914 56.82983398 C22.0328762 60.28312796 22.04543302 63.73637767 22.05493164 67.18969727 C22.05997121 68.68644918 22.06680287 70.18319616 22.07543945 71.67993164 C22.08752159 73.82699807 22.09323191 75.97399962 22.09765625 78.12109375 C22.10289307 79.4145874 22.10812988 80.70808105 22.11352539 82.04077148 C22 85 22 85 21 86 C17.69483066 86.25035974 14.37603959 86.18521952 11.0625 86.1875 C10.12986328 86.19974609 9.19722656 86.21199219 8.23632812 86.22460938 C6.89924805 86.22750977 6.89924805 86.22750977 5.53515625 86.23046875 C4.714104 86.23457764 3.89305176 86.23868652 3.04711914 86.24291992 C1 86 1 86 -1 84 C-1.22705078 81.01904297 -1.22705078 81.01904297 -1.1953125 77.2421875 C-1.1924826 76.57913605 -1.18965271 75.91608459 -1.18673706 75.23294067 C-1.17553435 73.11344417 -1.15043051 70.99436896 -1.125 68.875 C-1.11497028 67.43880818 -1.10584441 66.00260975 -1.09765625 64.56640625 C-1.075595 61.04413372 -1.04106494 57.52210797 -1 54 C-1.90355225 54.00523682 -2.80710449 54.01047363 -3.73803711 54.01586914 C-7.07951489 54.03287686 -10.42094692 54.04543333 -13.76245117 54.05493164 C-15.21070073 54.05997101 -16.65894517 54.06680253 -18.10717773 54.07543945 C-20.18474588 54.08752247 -22.26224697 54.09323211 -24.33984375 54.09765625 C-25.59144287 54.10289307 -26.84304199 54.10812988 -28.13256836 54.11352539 C-31 54 -31 54 -32 53 C-32.09899523 51.45044441 -32.13079524 49.89646327 -32.1328125 48.34375 C-32.13410156 47.40402344 -32.13539063 46.46429688 -32.13671875 45.49609375 C-32.13285156 44.50738281 -32.12898438 43.51867187 -32.125 42.5 C-32.12886719 41.51128906 -32.13273437 40.52257812 -32.13671875 39.50390625 C-32.13542969 38.56417969 -32.13414062 37.62445313 -32.1328125 36.65625 C-32.13168457 35.78806641 -32.13055664 34.91988281 -32.12939453 34.02539062 C-32 32 -32 32 -31 31 C-28.78144736 30.91216458 -26.56011504 30.89305391 -24.33984375 30.90234375 C-23.34314415 30.90446617 -23.34314415 30.90446617 -22.3263092 30.90663147 C-20.19666101 30.91224482 -18.06711661 30.92479946 -15.9375 30.9375 C-14.49674631 30.94251329 -13.05599097 30.94707649 -11.61523438 30.95117188 C-8.07678898 30.96221855 -4.53840461 30.97949208 -1 31 C-1.00785522 29.69796631 -1.00785522 29.69796631 -1.01586914 28.36962891 C-1.03289862 25.15299727 -1.04544408 21.93638859 -1.05493164 18.71972656 C-1.0599643 17.32681523 -1.06679098 15.9339092 -1.07543945 14.54101562 C-1.08755152 12.54038754 -1.09270412 10.53972112 -1.09765625 8.5390625 C-1.10289307 7.33459473 -1.10812988 6.13012695 -1.11352539 4.88916016 C-1 2 -1 2 0 0 Z " fill="#0F0F0F" transform="translate(357,366)"/>
<path d="M0 0 C0.66 0 1.32 0 2 0 C1.8563501 0.74411133 1.7127002 1.48822266 1.56469727 2.25488281 C-0.05858553 11.51261229 -0.20783455 20.39766891 -0.0625 29.75 C-0.03482773 31.93490609 -0.01021648 34.11974856 0.00868225 36.30474854 C0.0263957 38.2549953 0.05381707 40.2051468 0.08178711 42.15527344 C0 45 0 45 -1 46 C-2.36093904 46.09907231 -3.72697219 46.12922322 -5.09151077 46.13142776 C-6.42227091 46.13718948 -6.42227091 46.13718948 -7.77991509 46.1430676 C-8.76578347 46.14220112 -9.75165184 46.14133463 -10.76739502 46.14044189 C-12.32534369 46.14489858 -12.32534369 46.14489858 -13.91476607 46.1494453 C-17.42397963 46.15817437 -20.93315924 46.15964408 -24.44238281 46.16113281 C-26.9467018 46.16575805 -29.45102008 46.1707823 -31.95533752 46.17617798 C-38.77977682 46.18933316 -45.60420485 46.19578943 -52.42865467 46.20018864 C-56.68796985 46.20294819 -60.94728274 46.20718506 -65.20659637 46.21169281 C-76.99329104 46.22388914 -88.77998388 46.23418707 -100.56668472 46.2375679 C-101.32163266 46.23778747 -102.0765806 46.23800703 -102.85440575 46.23823325 C-103.61119209 46.23845153 -104.36797843 46.23866981 -105.14769769 46.2388947 C-106.68131018 46.23933817 -108.21492267 46.23978473 -109.74853516 46.24023438 C-110.50926487 46.2404558 -111.26999458 46.24067723 -112.05377671 46.24090537 C-124.37879533 46.24485288 -136.7037548 46.26230383 -149.02875057 46.2855939 C-161.67477751 46.30929815 -174.32077477 46.32176936 -186.96682429 46.32293582 C-194.07023381 46.32385321 -201.17356632 46.32962144 -208.27695465 46.34775543 C-214.95814785 46.36475106 -221.63916981 46.36641594 -228.32038689 46.35761642 C-230.77582884 46.35684334 -233.2312785 46.36122422 -235.68670082 46.37107468 C-239.03286705 46.38371354 -242.37850843 46.37796101 -245.72467041 46.36749268 C-246.7016159 46.37554908 -247.67856139 46.38360548 -248.68511128 46.39190602 C-253.57916121 46.35597591 -257.07079785 46.27799457 -261 43 C-262.50192759 39.99614482 -262.14576589 36.91750639 -262.125 33.625 C-262.12306641 32.88709229 -262.12113281 32.14918457 -262.11914062 31.38891602 C-262.05064126 22.24710499 -261.52842278 13.12472908 -261 4 C-260.67 4 -260.34 4 -260 4 C-260.01571045 5.07483643 -260.0314209 6.14967285 -260.04760742 7.25708008 C-260.10189111 11.24333203 -260.13634421 15.22955128 -260.16479492 19.21606445 C-260.17988516 20.94170627 -260.20035975 22.66730972 -260.22631836 24.39282227 C-260.26269209 26.87265488 -260.27972359 29.35198064 -260.29296875 31.83203125 C-260.30845261 32.60400345 -260.32393646 33.37597565 -260.33988953 34.17134094 C-260.4236129 38.18564048 -260.4236129 38.18564048 -258.7506873 41.70378143 C-256.5553555 43.32921725 -255.36423018 43.37809467 -252.64842701 43.38476086 C-251.75418799 43.3942174 -250.85994897 43.40367394 -249.93861181 43.41341704 C-248.95515851 43.40856947 -247.97170522 43.40372189 -246.95845032 43.39872742 C-245.91458119 43.40537424 -244.87071206 43.41202107 -243.79521054 43.41886932 C-240.28044951 43.43759366 -236.76602608 43.43488765 -233.2512207 43.43237305 C-230.73848994 43.44138443 -228.2257636 43.45171009 -225.71304321 43.46325684 C-220.29462513 43.48518707 -214.87630798 43.49793322 -209.4578495 43.50238609 C-201.62366507 43.50883999 -193.78959724 43.53176387 -185.95545974 43.55872939 C-173.24563212 43.60202902 -160.5358094 43.63197761 -147.82592773 43.65356445 C-135.47824697 43.67456464 -123.13060633 43.70183132 -110.78295898 43.73754883 C-110.02206328 43.73974765 -109.26116758 43.74194648 -108.47721443 43.74421193 C-104.66008786 43.75528135 -100.84296166 43.7664742 -97.02583563 43.77772844 C-65.35059015 43.8709585 -33.67533077 43.94231372 -2 44 C-2.01047363 43.02240723 -2.02094727 42.04481445 -2.03173828 41.03759766 C-2.06828974 37.36608631 -2.09102662 33.69459061 -2.10986328 30.02294922 C-2.11984159 28.44219242 -2.13342907 26.86145369 -2.15087891 25.28076172 C-2.24369938 16.64845765 -2.32020837 8.39931125 0 0 Z " fill="#808181" transform="translate(267,382)"/>
<path d="M0 0 C6.93 0 13.86 0 21 0 C21 0.33 21 0.66 21 1 C14.4 1 7.8 1 1 1 C1.01160156 3.22621094 1.02320313 5.45242188 1.03515625 7.74609375 C1.04294722 9.89396014 1.04902375 12.04182497 1.05493164 14.18969727 C1.05997121 15.68644918 1.06680287 17.18319616 1.07543945 18.67993164 C1.08752159 20.82699807 1.09323191 22.97399962 1.09765625 25.12109375 C1.10289307 26.4145874 1.10812988 27.70808105 1.11352539 29.04077148 C1 32 1 32 0 33 C-2.21855264 33.08783542 -4.43988496 33.10694609 -6.66015625 33.09765625 C-7.65685585 33.09553383 -7.65685585 33.09553383 -8.6736908 33.09336853 C-10.80333899 33.08775518 -12.93288339 33.07520054 -15.0625 33.0625 C-16.50325369 33.05748671 -17.94400903 33.05292351 -19.38476562 33.04882812 C-22.92324958 33.03863076 -26.46150813 33.0190583 -30 33 C-30 39.6 -30 46.2 -30 53 C-20.1 53 -10.2 53 0 53 C0 63.23 0 73.46 0 84 C-0.33 84 -0.66 84 -1 84 C-1 74.1 -1 64.2 -1 54 C-10.82803025 54.03959728 -10.82803025 54.03959728 -20.65600586 54.09008789 C-22.47950562 54.09383423 -22.47950562 54.09383423 -24.33984375 54.09765625 C-25.59144287 54.10289307 -26.84304199 54.10812988 -28.13256836 54.11352539 C-31 54 -31 54 -32 53 C-32.09899523 51.45044441 -32.13079524 49.89646327 -32.1328125 48.34375 C-32.13410156 47.40402344 -32.13539063 46.46429688 -32.13671875 45.49609375 C-32.13285156 44.50738281 -32.12898438 43.51867187 -32.125 42.5 C-32.12886719 41.51128906 -32.13273437 40.52257812 -32.13671875 39.50390625 C-32.13542969 38.56417969 -32.13414062 37.62445313 -32.1328125 36.65625 C-32.13168457 35.78806641 -32.13055664 34.91988281 -32.12939453 34.02539062 C-32 32 -32 32 -31 31 C-28.78144736 30.91216458 -26.56011504 30.89305391 -24.33984375 30.90234375 C-23.34314415 30.90446617 -23.34314415 30.90446617 -22.3263092 30.90663147 C-20.19666101 30.91224482 -18.06711661 30.92479946 -15.9375 30.9375 C-14.49674631 30.94251329 -13.05599097 30.94707649 -11.61523438 30.95117188 C-8.07678898 30.96221855 -4.53840461 30.97949208 -1 31 C-1.00785522 29.69796631 -1.00785522 29.69796631 -1.01586914 28.36962891 C-1.03289862 25.15299727 -1.04544408 21.93638859 -1.05493164 18.71972656 C-1.0599643 17.32681523 -1.06679098 15.9339092 -1.07543945 14.54101562 C-1.08755152 12.54038754 -1.09270412 10.53972112 -1.09765625 8.5390625 C-1.10289307 7.33459473 -1.10812988 6.13012695 -1.11352539 4.88916016 C-1 2 -1 2 0 0 Z " fill="#999A99" transform="translate(357,366)"/>
<path d="M0 0 C-11.55740137 5.0852566 -21.23541447 6.18091858 -33.8125 6.1875 C-35.03259766 6.19974609 -36.25269531 6.21199219 -37.50976562 6.22460938 C-54.62170832 6.25219445 -54.62170832 6.25219445 -61 2 C-59.99928467 2.16153564 -58.99856934 2.32307129 -57.9675293 2.48950195 C-52.0194523 3.33536322 -46.02720066 3.18596556 -40.03198242 3.18530273 C-37.8355739 3.18747716 -35.63967857 3.20563948 -33.44335938 3.22460938 C-19.60560756 3.32470079 -19.60560756 3.32470079 -6.31567383 -0.09301758 C-3.6941303 -1.11980031 -2.59411969 -0.96078507 0 0 Z " fill="#9A9A9A" transform="translate(402,498)"/>
<path d="M0 0 C1.17111328 -0.02449219 2.34222656 -0.04898437 3.54882812 -0.07421875 C10.63238269 -0.09819017 15.2730986 0.60689013 21.3125 4.375 C18.34874656 5.85687672 16.49048243 4.76509959 13.3125 3.9375 C-1.01126172 0.7739698 -14.80172008 1.6720288 -28.6875 6.375 C-29.6775 7.035 -30.6675 7.695 -31.6875 8.375 C-32.6775 8.045 -33.6675 7.715 -34.6875 7.375 C-33.2607432 6.56413171 -31.82013964 5.77763346 -30.375 5 C-29.57449219 4.55914062 -28.77398437 4.11828125 -27.94921875 3.6640625 C-18.9844824 0.1211128 -9.5239549 0.01058805 0 0 Z " fill="#969696" transform="translate(371.6875,340.625)"/>
<path d="M0 0 C0 0.66 0 1.32 0 2 C-0.99 2 -1.98 2 -3 2 C-3.24621094 2.60457031 -3.49242187 3.20914062 -3.74609375 3.83203125 C-5.227297 6.39299013 -6.5285435 7.19930333 -9.0625 8.6875 C-14.44882141 12.088927 -18.65494479 16.37760085 -23 21 C-23 18 -23 18 -21.19921875 15.80078125 C-5.24960754 0 -5.24960754 0 0 0 Z " fill="#7E7E7E" transform="translate(318,328)"/>
<path d="M0 0 C0.33 0.66 0.66 1.32 1 2 C0.38125 2.0825 -0.2375 2.165 -0.875 2.25 C-1.57625 2.4975 -2.2775 2.745 -3 3 C-3.2578125 3.5671875 -3.515625 4.134375 -3.78125 4.71875 C-5.46423947 7.86896107 -7.97183668 9.93353253 -10.625 12.25 C-11.140625 12.70890625 -11.65625 13.1678125 -12.1875 13.640625 C-13.4534602 14.76592296 -14.72607942 15.88372177 -16 17 C-16.66 16.67 -17.32 16.34 -18 16 C-15.87929092 11.87019811 -13.97854296 10.27345312 -10 8 C-9.175 7.175 -8.35 6.35 -7.5 5.5 C-5.12989075 3.12989075 -2.92996393 1.59055185 0 0 Z " fill="#424242" transform="translate(134,32)"/>
<path d="M0 0 C0.66 0.33 1.32 0.66 2 1 C0.71520959 2.50589388 -0.57804082 4.00457375 -1.875 5.5 C-2.59429687 6.3353125 -3.31359375 7.170625 -4.0546875 8.03125 C-4.69664063 8.6809375 -5.33859375 9.330625 -6 10 C-6.66 10 -7.32 10 -8 10 C-8.66 11.32 -9.32 12.64 -10 14 C-10.99 14 -11.98 14 -13 14 C-11.58474822 12.41540185 -10.1677358 10.83237609 -8.75 9.25 C-7.96109375 8.36828125 -7.1721875 7.4865625 -6.359375 6.578125 C-4.29407328 4.32133835 -2.18264936 2.14260074 0 0 Z " fill="#393939" transform="translate(44,278)"/>
<path d="M0 0 C-16.79440045 8.22454751 -16.79440045 8.22454751 -24 6 C-22.46198647 4.46198647 -20.75013231 4.54615798 -18.625 4.1875 C-13.57815512 3.2421256 -9.00585359 1.61883035 -4.25 -0.29296875 C-2 -1 -2 -1 0 0 Z " fill="#858585" transform="translate(240,221)"/>
<path d="M0 0 C6.88490225 -0.57374185 11.02667877 0.5246131 17 4 C13.85296239 5.57351881 11.31338189 4.41212978 7.9375 3.6875 C6.66777344 3.42324219 5.39804687 3.15898437 4.08984375 2.88671875 C3.07019531 2.59410156 2.05054688 2.30148437 1 2 C0.67 1.34 0.34 0.68 0 0 Z " fill="#727272" transform="translate(376,341)"/>
<path d="M0 0 C0 0.99 0 1.98 0 3 C-2.06420246 4.53323709 -4.04212413 5.83431453 -6.25 7.125 C-6.83652344 7.48464844 -7.42304688 7.84429687 -8.02734375 8.21484375 C-10.95220235 9.96975891 -13.61057404 11.4462819 -17 12 C-14.82575883 9.49962266 -13.26954202 8.56371414 -10 8 C-10 7.34 -10 6.68 -10 6 C-7.8125 4.4921875 -7.8125 4.4921875 -5 2.875 C-4.071875 2.33617187 -3.14375 1.79734375 -2.1875 1.2421875 C-1.1046875 0.62730469 -1.1046875 0.62730469 0 0 Z " fill="#A5A6A5" transform="translate(427,482)"/>
<path d="M0 0 C-12.14622642 5.34433962 -12.14622642 5.34433962 -18 5 C-15.04433403 3.48795792 -12.05865561 2.10403598 -9 0.8125 C-8.154375 0.44769531 -7.30875 0.08289063 -6.4375 -0.29296875 C-3.80004641 -1.05799936 -2.54482404 -0.92485503 0 0 Z " fill="#959595" transform="translate(402,498)"/>
<path d="M0 0 C0.99 0.495 0.99 0.495 2 1 C2 1.99 2 2.98 2 4 C2.66 4 3.32 4 4 4 C4.66 8.29 5.32 12.58 6 17 C3.38832897 14.38832897 2.92868518 12.0278941 1.875 8.5 C1.52179688 7.3346875 1.16859375 6.169375 0.8046875 4.96875 C0 2 0 2 0 0 Z " fill="#6C6C6C" transform="translate(90,148)"/>
<path d="M0 0 C4.56756196 0.8783773 6.52067674 1.385483 9.4375 5.125 C10.2109375 6.548125 10.2109375 6.548125 11 8 C9.66666667 7.33333333 8.33333333 6.66666667 7 6 C5.948125 5.525625 4.89625 5.05125 3.8125 4.5625 C1 3 1 3 0 0 Z " fill="#8C8C8C" transform="translate(309,483)"/>
<path d="M0 0 C0.99 0.33 1.98 0.66 3 1 C3.33 4.63 3.66 8.26 4 12 C1.57869669 9.57869669 1.47159496 8.19888623 0.875 4.875 C0.70742188 3.96492188 0.53984375 3.05484375 0.3671875 2.1171875 C0.24601562 1.41851562 0.12484375 0.71984375 0 0 Z " fill="#8A8A8A" transform="translate(276,433)"/>
<path d="M0 0 C0.33 0.66 0.66 1.32 1 2 C0.38125 2.0825 -0.2375 2.165 -0.875 2.25 C-3.16669871 2.79326091 -3.16669871 2.79326091 -4.0625 4.9375 C-4.371875 5.618125 -4.68125 6.29875 -5 7 C-5.99 7.66 -6.98 8.32 -8 9 C-6.64531705 4.12314139 -4.28324091 2.51407619 0 0 Z " fill="#2D2D2D" transform="translate(134,32)"/>
<path d="M0 0 C4.83256305 0.41421969 6.82679218 2.46413986 10 6 C6.62972148 6 5.93297304 5.50175992 3.3125 3.5625 C2.68988281 3.11003906 2.06726563 2.65757812 1.42578125 2.19140625 C0.95527344 1.79824219 0.48476563 1.40507812 0 1 C0 0.67 0 0.34 0 0 Z " fill="#7D7D7D" transform="translate(401,350)"/>
</svg>
