<?xml version="1.0" encoding="UTF-8"?>
<svg version="1.1" xmlns="http://www.w3.org/2000/svg" width="500" height="500">
<path d="M0 0 C0 0.66 0 1.32 0 2 C0.57621094 2.23847656 1.15242187 2.47695313 1.74609375 2.72265625 C4.46232039 4.26200826 6.04082189 6.06524187 8.0625 8.4375 C12.48310897 13.96282065 12.48310897 13.96282065 18.5625 17.125 C27.15380031 20.2361878 32.76301839 26.85018986 36.9375 34.75 C39.96073405 41.32997998 41.807423 47.87205899 43 55 C43.27457031 56.61261719 43.27457031 56.61261719 43.5546875 58.2578125 C45.07566362 71.03934866 44.24571575 84.07815029 42.6875 96.8125 C42.56987305 97.79532959 42.45224609 98.77815918 42.33105469 99.79077148 C41.52577695 105.80924433 40.15164403 111.32124378 38 117 C38.9075 117.0825 39.815 117.165 40.75 117.25 C44.49957052 118.1152855 45.66469941 118.99747067 48 122 C54.15733998 135.07045455 47.95087695 152.55703111 43.54296875 165.40234375 C37.60497724 181.59740318 37.60497724 181.59740318 30.125 185.5 C29.42375 185.665 28.7225 185.83 28 186 C27.95875 187.155 27.9175 188.31 27.875 189.5 C25.66299557 208.60095714 13.69078765 226.23702599 1 240 C0.41863281 240.66257812 -0.16273438 241.32515625 -0.76171875 242.0078125 C-13.58208361 255.89385 -33.25911733 266.35920707 -52.14453125 267.3125 C-73.65309798 267.98342306 -92.94967053 261.71014292 -109 247 C-110.70680947 245.37446717 -112.37660195 243.70884005 -114 242 C-114.59167969 241.45214844 -115.18335938 240.90429688 -115.79296875 240.33984375 C-129.72937024 227.21213094 -141.73244867 205.33015778 -143 186 C-143.70125 185.835 -144.4025 185.67 -145.125 185.5 C-153.89566917 180.92399869 -157.15123686 169.89546801 -160 161 C-168.18707856 133.53884022 -168.18707856 133.53884022 -163.62109375 122.73828125 C-161.75471414 119.58567376 -160.33278633 118.46317449 -157 117 C-155.68 117 -154.36 117 -153 117 C-153.39832031 115.63681641 -153.39832031 115.63681641 -153.8046875 114.24609375 C-160.80688831 89.32950328 -161.48584096 63.91439811 -149.25 40.4375 C-133.87254363 13.61366632 -108.10672565 -8.76026456 -78 -17 C-51.2631332 -23.76104678 -21.50303361 -17.20242689 0 0 Z " fill="#010101" transform="translate(260,35)"/>
<path d="M0 0 C5.85344359 17.31043007 11.5148827 34.66960017 16.96435547 52.11132812 C17.42672682 53.59115552 17.8891289 55.07097331 18.3515625 56.55078125 C18.57733978 57.27339142 18.80311707 57.99600159 19.03573608 58.74050903 C21.47606629 66.54006093 23.98419686 74.31746182 26.49829102 82.09350586 C28.75976405 89.10250425 30.98655838 96.1214461 33.19140625 103.1484375 C33.60246864 104.45698952 33.60246864 104.45698952 34.02183533 105.79197693 C35.38608765 110.13529702 36.74719327 114.47956029 38.10327148 118.82543945 C38.59996195 120.40840847 39.09678178 121.99133691 39.59375 123.57421875 C39.82248306 124.31131073 40.05121613 125.04840271 40.28688049 125.80783081 C41.15013077 129.17277052 41.15013077 129.17277052 43 132 C46.11060992 123.37104844 49.16175825 114.72155011 52.1875 106.0625 C52.70473633 104.58898071 52.70473633 104.58898071 53.23242188 103.08569336 C53.88149509 101.22373602 54.52249218 99.35893693 55.15405273 97.4909668 C55.67534869 95.95596459 56.21527974 94.42696911 56.78540039 92.90942383 C57.79910731 90.0051749 58.2513171 88.53235988 56.91015625 85.69140625 C56.30042969 84.98886719 55.69070312 84.28632813 55.0625 83.5625 C51.60214347 79.12228014 49.31122195 74.70760549 47.125 69.5625 C46.67846069 68.51461304 46.67846069 68.51461304 46.22290039 67.44555664 C42.83222729 59.3566187 40.63310378 49.86920391 44.05859375 41.375 C48.46182631 35.07443959 54.47857724 32.47039693 61.75 30.6875 C71.17460226 29.06606305 81.777711 30.11865014 90.00390625 35.25 C95.77423697 39.68315596 97.51162985 44.52036268 98.5 51.5625 C97.81858346 65.51791064 89.48228421 77.77657368 82 89 C82.57905487 91.8031113 82.57905487 91.8031113 83.81640625 94.890625 C84.46536865 96.65841309 84.46536865 96.65841309 85.12744141 98.46191406 C85.60565986 99.72466029 86.08401499 100.98735476 86.5625 102.25 C87.03456882 103.52515134 87.50511024 104.80086918 87.97412109 106.07714844 C88.8951697 108.58294953 89.82076344 111.0868622 90.74951172 113.58984375 C92.28782831 117.78492501 93.73559582 122.00360987 95.125 126.25 C95.49882812 127.38953125 95.87265625 128.5290625 96.2578125 129.703125 C96.50273437 130.46109375 96.74765625 131.2190625 97 132 C99.19805261 128.70292109 100.24605564 125.47228726 101.3984375 121.73046875 C101.7447094 120.62690033 101.7447094 120.62690033 102.09797668 119.5010376 C102.86141895 117.06455412 103.61816027 114.62604167 104.375 112.1875 C104.91006512 110.47583707 105.44563608 108.7643322 105.98168945 107.05297852 C107.09826492 103.4870846 108.21263753 99.92051266 109.32568359 96.35351562 C110.92053945 91.247668 112.52965124 86.14642051 114.14453125 81.046875 C114.39793274 80.24656357 114.65133423 79.44625214 114.91241455 78.62168884 C115.41908901 77.02169569 115.92580258 75.42171492 116.43255615 73.82174683 C120.24880242 61.76936297 124.02606772 49.70622372 127.75 37.625 C131.63867451 25.01717435 135.7596339 12.49359207 140 0 C144.83135748 0.80617246 148.32769733 2.81455656 152.4375 5.375 C161.93652856 11.14033698 171.8157496 16.05190587 181.79614258 20.921875 C183.87003189 21.93641972 185.93566878 22.96618523 188 24 C188.00496522 25.12395377 188.00496522 25.12395377 188.01003075 26.27061367 C188.0913435 44.52479216 188.18346298 62.77888705 188.28752708 81.0329504 C188.33759317 89.86057246 188.38403667 98.6881855 188.421875 107.51586914 C188.45487418 115.21241574 188.49474892 122.90889119 188.54279006 130.60535914 C188.56797642 134.67844572 188.58978068 138.75148558 188.60334396 142.82462883 C188.61623599 146.66350876 188.63836633 150.50222782 188.66738319 154.34101868 C188.67640344 155.74498307 188.68213612 157.14897333 188.68421364 158.55296516 C188.47579741 170.6312769 188.47579741 170.6312769 192.069067 181.99017239 C193 184 193 184 193 188 C85.75 188 -21.5 188 -132 188 C-132 78.09102942 -132 78.09102942 -108.91796875 54.7578125 C-98.70444 44.89343525 -86.64355649 39.9170922 -73.74462891 34.578125 C-72.73577637 34.16046875 -71.72692383 33.7428125 -70.6875 33.3125 C-69.1413501 32.67248047 -69.1413501 32.67248047 -67.56396484 32.01953125 C-35.06208434 18.50409689 -35.06208434 18.50409689 -4.67382812 0.89599609 C-3 0 -3 0 0 0 Z " fill="#020202" transform="translate(132,296)"/>
<path d="M0 0 C4.12854889 3.7947822 7.77662653 7.41844086 8.2734375 13.16015625 C8.60993491 26.0894223 5.04619554 32.34385738 -3.75 41.71875 C-9.87484033 47.92865755 -16.55781146 52.45124823 -24 57 C-23.83865067 58.0315773 -23.67730133 59.0631546 -23.51106262 60.12599182 C-22.7344159 66.39309766 -22.8360052 72.67814841 -22.82299805 78.98413086 C-22.8167225 80.38941105 -22.81007476 81.79468961 -22.80308533 83.19996643 C-22.78218448 87.78824742 -22.77170089 92.37652824 -22.76171875 96.96484375 C-22.75766694 98.55082274 -22.75354989 100.13680157 -22.74936867 101.72278023 C-22.73035323 109.17170894 -22.71611071 116.62062793 -22.7077567 124.0695762 C-22.69797666 132.645909 -22.67162195 141.22198425 -22.63125581 149.7982263 C-22.60105268 156.44475992 -22.58628414 163.0912198 -22.58297569 169.73782068 C-22.58063146 173.70024349 -22.57175188 177.66238996 -22.54651451 181.62473869 C-22.52315256 185.35214996 -22.51903275 189.0791044 -22.52927589 192.80657005 C-22.53000328 194.81463931 -22.51097325 196.82268582 -22.49121094 198.83065796 C-22.53055157 205.6998641 -22.72827922 212.29611767 -27 218 C-29.13878918 219.23393154 -29.13878918 219.23393154 -31 220 C-31 220.66 -31 221.32 -31 222 C-37.23223215 225.62685329 -41.77806098 226.58584722 -48.92919922 226.53344727 C-49.88966156 226.54206284 -50.8501239 226.55067841 -51.83969116 226.55955505 C-54.99496904 226.58214135 -58.1493533 226.5754887 -61.3046875 226.56640625 C-63.51132468 226.57164558 -65.71795962 226.57792319 -67.92459106 226.58518982 C-72.54277099 226.59558094 -77.16064256 226.59105164 -81.77880859 226.57641602 C-87.67891396 226.55924269 -93.57804412 226.58271322 -99.4780407 226.61790562 C-104.0336037 226.63993348 -108.58893539 226.63842482 -113.14453506 226.6301403 C-115.31891066 226.62932351 -117.4933037 226.6361346 -119.66762924 226.65091133 C-122.71635475 226.66845374 -125.76335362 226.653733 -128.81201172 226.63110352 C-130.14184082 226.64864182 -130.14184082 226.64864182 -131.49853516 226.66653442 C-138.16978886 226.56646602 -143.43996389 224.72401766 -149 221 C-153.63152453 216.16437982 -155.12121877 211.62696116 -155.14717102 205.0499115 C-155.15432632 203.80653015 -155.16148163 202.5631488 -155.16885376 201.28208923 C-155.17169404 199.90152003 -155.17440577 198.52095055 -155.17700195 197.14038086 C-155.18326776 195.68820025 -155.18991466 194.23602125 -155.19691467 192.78384399 C-155.21795104 188.01085526 -155.22831957 183.23786623 -155.23828125 178.46484375 C-155.24232956 176.81977382 -155.2464465 175.17470406 -155.25063133 173.52963448 C-155.26968543 165.79716645 -155.2839136 158.06470796 -155.2922433 150.33222097 C-155.30200411 141.41908888 -155.32829233 132.50620589 -155.36874419 123.59316152 C-155.39896295 116.69703369 -155.41371779 109.800977 -155.41702431 102.90478426 C-155.41936908 98.78967616 -155.42825372 94.6748341 -155.45348549 90.55979729 C-155.47687106 86.68307318 -155.48095777 82.80678827 -155.47072411 78.93001175 C-155.4702311 77.51353171 -155.47648168 76.09702929 -155.49028015 74.68061638 C-155.58030272 64.88501241 -154.86107255 56.26158442 -148.28271484 48.56982422 C-147.27433274 47.54918415 -146.24983813 46.54424603 -145.2109375 45.5546875 C-144.66643951 45.01393585 -144.12194153 44.4731842 -143.5609436 43.91604614 C-142.42329762 42.79170333 -141.27854918 41.67450343 -140.12695312 40.56445312 C-138.35754639 38.85816904 -136.61114853 37.13068755 -134.8671875 35.3984375 C-133.75385366 34.30341566 -132.63931381 33.20961833 -131.5234375 32.1171875 C-130.99946381 31.60171356 -130.47549011 31.08623962 -129.93563843 30.55514526 C-126.23460184 27 -126.23460184 27 -124 27 C-124 26.34 -124 25.68 -124 25 C-123.34 25 -122.68 25 -122 25 C-122 24.34 -122 23.68 -122 23 C-120.63671875 21.66015625 -120.63671875 21.66015625 -118.6875 20.0625 C-115.58551031 17.45375956 -112.7440363 14.72415702 -109.9597168 11.77832031 C-103.9465102 5.46986453 -98.47452417 1.04344005 -89.5 0.5 C-85.21235598 0.68772522 -81.83836779 2.0985344 -78.04296875 4.02734375 C-74.09326236 5.90779669 -72.56087054 6.19439597 -68.26953125 4.70703125 C-66.78142451 4.08126761 -65.29589075 3.44936238 -63.8125 2.8125 C-45.70574819 -4.48224103 -17.39236571 -12.6298115 0 0 Z M-51 17 C-51.98484375 17.30808594 -52.9696875 17.61617188 -53.984375 17.93359375 C-56.00104702 18.58807271 -58.00330531 19.28689475 -60 20 C-55.86596566 24.98204139 -51.49524962 29.56659962 -46.85546875 34.08203125 C-45 36 -45 36 -44 38 C-67.25 45.88839286 -67.25 45.88839286 -78 48 C-78 47.34 -78 46.68 -78 46 C-83.61728651 42.09232242 -88.16468589 40.88149405 -95 42 C-99.37317227 44.18658613 -102.43901378 46.82654097 -105 51 C-106.43174496 56.04768478 -106.28996658 60.21188806 -104 65 C-100.65116766 69.87972713 -97.77189586 72.4860601 -92 74 C-87.34477886 74.02248899 -83.59748055 73.2362855 -79.875 70.35546875 C-75.58860004 65.82795879 -74.31078937 62.01198586 -73 56 C-72.07703125 55.8040625 -71.1540625 55.608125 -70.203125 55.40625 C-54.58464124 51.90047453 -38.97968024 46.57087533 -26 37 C-25.19304687 36.43539062 -24.38609375 35.87078125 -23.5546875 35.2890625 C-16.59805477 30.21508285 -11.13842799 24.55371196 -9 16 C-13.71067528 12.32313751 -18.09328234 12.49930706 -23.8125 12.5625 C-25.2061377 12.57059692 -25.2061377 12.57059692 -26.62792969 12.57885742 C-35.22171016 12.76545427 -42.82110753 14.39507877 -51 17 Z " fill="#020202" transform="translate(492,258)"/>
<path d="M0 0 C-0.33 0.99 -0.66 1.98 -1 3 C-1.99 3.33 -2.98 3.66 -4 4 C-4.66 4.66 -5.32 5.32 -6 6 C-8.125 5.625 -8.125 5.625 -10 5 C-8.71186658 4.16121545 -7.41936744 3.32913217 -6.125 2.5 C-5.40570313 2.0359375 -4.68640625 1.571875 -3.9453125 1.09375 C-2 0 -2 0 0 0 Z " fill="#242424" transform="translate(160,28)"/>
</svg>
