<?xml version="1.0" encoding="UTF-8"?>
<svg version="1.1" viewBox="0 0 1600 1600" width="1280" height="1280" xmlns="http://www.w3.org/2000/svg">
<path transform="translate(752,256)" d="m0 0h91l37 1 42 2 48 4 47 6 43 8 31 8 32 10 28 11 28 13 21 12 11 8 14 12 8 8 10 13 9 15 12 25 12 29 17 44 11 28 16 41 15 37 14 36 13 35 15 38 15 39 29 75 14 38 3 15 1 13v343l-1 35-2 14-5 14-8 14-9 12-7 8-11 8-16 7-16 4-17 2-36 2h-85l-30-2-16-4-17-9-11-9-10-9-9-13-7-15-4-14-3-21-1-31-1-1h-630l-6 1-1 7v20l-3 22-3 12-7 16-9 15-12 13-10 7-16 7-16 4-16 2-40 2h-79l-31-2-15-3-16-8-11-8-10-9-8-9-8-14-6-14-3-13-2-22-1-39v-234l1-83 2-23 5-17 9-23 7-20 9-23 6-17 11-29 14-36 17-46 10-27 14-36 30-78 15-38 13-31 12-28 13-27 12-17 11-12 10-10 14-11 16-10 22-12 30-13 19-7 34-11 29-7 39-7 45-6 33-3 55-3zm9 62-49 2-46 3-48 5-44 6-27 6-35 10-25 9-27 12-18 10-12 8-16 13-11 14-12 23-9 21-6 15-21 53-17 44-19 49-12 35-3 12-1 12 2 13 4 8 9 10 8 6 17 8 18 5 19 3 25 2 36 1h712l48-1 29-3 16-3 15-5 14-7 10-8 7-10 3-9-2-19-6-24-18-49-20-51-16-41-15-39-10-25-10-22-8-13-9-10-7-7-15-10-19-10-25-10-36-12-38-10-39-7-59-6-34-3-54-3-32-1zm-411 545-15 2-13 5-13 9-9 10-7 12-4 11-2 11 1 15 4 15 9 15 9 11 13 11 21 14 18 11 24 14 29 14 14 5 19 5 15 2h24l17-3 15-6 15-8 10-8 9-9 9-13 8-17 4-15 1-9v-15l-2-14-5-16-9-17-8-10-6-7-13-10-16-8-14-4-20-3zm769 0-20 2-16 5-19 10-11 9-7 8-8 11-8 17-4 13-2 11v20l4 18 8 19 9 13 7 8 8 7 10 7 16 8 11 4 14 2h23l25-4 20-6 18-8 19-10 21-12 17-10 12-8 14-10 12-11 9-11 8-16 2-9 1-13-2-16-5-12-8-12-8-9-11-7-11-5-19-3z" fill="#1A1A1A"/>
<path transform="translate(1413,607)" d="m0 0 46 3 17 2 19 5 16 7 12 7 11 9 9 10 9 14 7 15 6 20 2 15v17l-2 12-8 17-10 13-8 7-16 9-16 6-14 3-7-2-7-8-8-18-8-22-8-20-11-29-10-27-11-29-7-18-5-12v-5z" fill="#1B1B1B"/>
<path transform="translate(163,608)" d="m0 0h19l6 2-3 9-7 15-15 40-8 21-13 34-11 29-8 21-8 16-2 3-9 1-11-4-17-6-16-9-11-10-7-10-7-14-2-9-1-9v-12l2-17 6-21 10-20 10-13 7-7 15-11 15-8 12-5 15-3 20-2z" fill="#1C1C1C"/>
</svg>
