<?xml version="1.0" standalone="no"?>
<!DOCTYPE svg PUBLIC "-//W3C//DTD SVG 20010904//EN"
 "http://www.w3.org/TR/2001/REC-SVG-20010904/DTD/svg10.dtd">
<svg version="1.0" xmlns="http://www.w3.org/2000/svg"
 width="434.000000pt" height="374.000000pt" viewBox="0 0 434.000000 374.000000"
 preserveAspectRatio="xMidYMid meet">

<g transform="translate(0.000000,374.000000) scale(0.100000,-0.100000)"
fill="#000000" stroke="none">
<path d="M2915 3313 c-58 -14 -133 -109 -144 -182 l-6 -36 -115 -5 c-100 -4
-119 -8 -148 -28 -84 -60 -76 -188 16 -240 39 -22 43 -22 466 -22 463 0 472 1
514 55 32 41 46 101 32 136 -31 74 -69 92 -205 99 -108 5 -110 5 -113 30 -4
32 -52 131 -72 148 -42 35 -91 52 -147 51 -32 -1 -67 -4 -78 -6z m107 -93 c11
0 33 -13 49 -29 25 -25 29 -37 29 -82 0 -46 -4 -57 -32 -86 -26 -27 -40 -33
-72 -33 -89 0 -141 70 -116 154 15 52 69 92 108 80 8 -2 23 -4 34 -4z"/>
<path d="M1145 3031 c-185 -7 -217 -17 -310 -103 -66 -60 -105 -136 -195 -378
-99 -264 -110 -290 -136 -296 -13 -3 -71 -1 -129 6 -58 6 -114 8 -124 5 -10
-3 -21 -19 -25 -36 -9 -45 5 -151 25 -183 19 -32 66 -66 90 -66 37 0 42 -26
19 -92 -74 -211 -80 -276 -80 -838 0 -469 1 -493 20 -529 41 -82 102 -105 261
-99 95 3 110 6 147 31 66 43 76 72 82 227 l5 135 535 5 535 5 0 545 0 545
-583 5 -584 5 -24 28 c-46 54 -37 84 165 562 83 195 109 248 142 281 71 72 83
74 512 74 l378 0 25 58 c14 31 33 65 41 74 8 9 12 21 9 27 -7 11 -508 12 -801
2z m28 -1512 c12 -7 25 -17 29 -23 4 -6 8 -79 8 -162 0 -204 21 -188 -264
-191 -121 -1 -240 1 -264 4 -65 9 -76 33 -81 172 -4 137 7 185 47 199 39 15
498 15 525 1z"/>
<path d="M2218 3030 c-85 -11 -144 -53 -184 -133 l-24 -47 2 -1133 3 -1134 30
-49 c34 -54 79 -89 135 -104 23 -6 331 -10 819 -10 770 -1 782 0 829 20 57 26
87 53 115 105 l22 40 3 1120 c3 1226 6 1161 -54 1242 -33 44 -116 82 -186 84
-32 1 -60 1 -62 -2 -2 -2 -1 -38 2 -79 l7 -75 46 -3 c32 -2 53 -10 65 -24 18
-19 19 -64 22 -1112 1 -600 0 -1101 -3 -1113 -3 -12 -14 -27 -24 -33 -22 -11
-1545 -16 -1574 -4 -10 4 -23 18 -28 31 -14 38 -12 2186 3 2218 12 26 27 33
88 37 l35 3 3 74 c2 53 -1 77 -10 82 -7 5 -15 8 -18 8 -3 -1 -31 -5 -62 -9z"/>
<path d="M2654 2463 c-43 -56 -158 -173 -171 -173 -6 0 -22 12 -35 28 -47 54
-56 58 -83 32 -14 -13 -25 -28 -25 -34 1 -14 136 -156 148 -156 5 0 33 28 63
63 29 34 86 97 126 139 40 42 73 81 73 85 0 19 -32 53 -49 53 -10 0 -31 -17
-47 -37z"/>
<path d="M2766 2257 c-12 -9 -17 -23 -14 -47 l3 -35 399 -3 c286 -1 403 1 412
9 17 14 18 61 2 77 -18 18 -777 17 -802 -1z"/>
<path d="M2598 1785 c-51 -58 -100 -105 -108 -105 -9 0 -31 16 -50 35 -19 19
-41 35 -50 35 -17 0 -50 -30 -50 -44 0 -13 134 -156 146 -156 6 0 45 37 85 82
41 45 94 104 119 131 64 69 66 75 39 103 -12 13 -26 24 -30 24 -4 0 -50 -47
-101 -105z"/>
<path d="M2757 1643 c-9 -8 -9 -46 -1 -67 5 -14 51 -16 410 -16 l404 0 6 24
c3 14 3 34 -1 45 -6 21 -10 21 -409 21 -221 0 -406 -3 -409 -7z"/>
<path d="M2673 1256 c-15 -26 -180 -196 -190 -196 -6 0 -26 18 -46 40 -19 22
-40 40 -46 40 -15 0 -51 -32 -51 -46 0 -18 130 -154 147 -154 8 0 33 21 56 47
23 26 79 87 125 137 45 49 82 95 82 101 0 17 -33 45 -53 45 -9 0 -20 -6 -24
-14z"/>
<path d="M2761 1026 c-7 -8 -11 -27 -9 -43 l3 -28 403 -3 402 -2 10 26 c6 15
8 35 5 45 -6 18 -25 19 -404 19 -335 0 -400 -2 -410 -14z"/>
</g>
</svg>
