<?xml version="1.0" encoding="UTF-8"?>
<svg version="1.1" viewBox="0 0 1600 1600" width="1280" height="1280" xmlns="http://www.w3.org/2000/svg">
<path transform="translate(758,256)" d="m0 0h82l39 1 45 2 49 4 45 6 42 8 31 8 32 10 21 8 29 13 19 10 14 9 11 9 12 11 11 13 12 19 11 23 13 31 13 34 10 26 31 80 12 25 3 2 47-1h21l31 1 30 3 19 5 15 6 14 9 10 8 8 8 9 13 8 15 5 14 4 18 1 20-2 14-5 13-7 13-11 12-8 5-15 6-21 5-28 3-15 1h-41l11 25 11 30 2 16 1 111v241l-1 32-3 21-6 16-9 14-11 13-11 9-15 7-14 4-25 3-21 1h-104l-25-2-15-4-16-8-13-11-7-6-9-12-8-17-4-15-2-21v-32l-633 1-7 1v24l-3 25-4 16-6 13-7 11-12 14-10 8-14 7-13 4-25 3-23 1h-102l-26-2-15-4-16-8-13-10-10-10-9-13-8-20-3-17-1-13-1-55v-176l1-135 2-20 5-16 9-25 5-14v-4l-60-2-22-2-21-5-16-8-9-7-8-9-6-11-4-10-2-14v-15l3-24 5-16 9-19 8-11 6-7 13-10 15-9 15-6 26-5 17-2 15-1h53l19 1h14l5-5 15-35 9-25 9-23 11-28 15-37 17-40 14-29 12-17 11-12 4-5 11-9 12-9 13-8 22-12 30-13 22-8 35-11 30-7 32-6 36-5 42-4 59-3zm7 62-52 2-50 3-40 4-38 5-22 4-24 6-36 11-28 11-19 9-21 12-16 12-7 7-9 12-6 10-11 24-30 75-21 56-16 47-8 27-5 16-2 16 3 10 7 11 9 9 16 8 16 5 18 3 24 2 45 1h73l687-1 27-3 21-4 17-6 12-7 9-9 5-8 1-3v-11l-4-18-8-26-10-31-11-30-13-34-10-26-22-57-10-24-7-16-9-15-9-10-10-9-14-9-16-8-21-9-26-9-29-9-28-7-27-5-40-5-58-5-55-3-36-1zm-606 353-23 2-16 5-10 7-8 10-7 15-1 9 3 11 3 3 9 2 15 1h79l5-3 4-8 11-28 7-23-1-3zm1207 0 1 7 12 33 9 20 4 4 6 1h65l22-1 11-2 4-2 3-6v-10l-4-14-5-10-7-8-9-6-12-4-22-2zm-1098 87-5 10-7 19-8 21-11 28-9 27-2 7-2 19-1 18v211l2 15 4 10 6 5 5 2 7 1 18 1h930l144-1 20-2 8-4 5-7 2-10 1-15 1-133v-67l-2-32-4-20-4-12-14-38-7-17-8-24-6-10-5 1-11 6-14 9-16 7-19 6-19 4-32 3-23 1-64 1h-716l-36-2-25-3-20-4-18-6-21-10-14-9-7-6zm-43 455-4 2v15l2 21 3 11 4 6 6 7 8 3 22 2h22l92-1 15-1 8-4 8-11 3-7 2-15v-26l-35-1h-116zm1123 0-65 1-100 1-2 2v16l3 22 3 9 8 10 8 4 18 2h55l60-1 15-1 9-3 6-4 6-9 3-10 1-18v-18l-2-3z" fill="#171818"/>
<path transform="translate(371,831)" d="m0 0h94l30 2 18 3 15 5 16 8 14 9 12 11 9 10 10 15 8 15 6 18 3 17v32l-4 20-7 18-11 19-8 10-11 12-14 11-17 9-18 6-17 3-9 1h-31l-24-3-24-6-20-8-15-7-24-13-30-18-17-12-10-9-8-7-10-11-9-14-6-13-5-16-1-6v-25l3-15 7-17 7-12 9-10 6-7 14-11 15-8 16-4 11-1zm-10 63-15 1-10 3-9 7-6 8-3 9v8l3 11 6 10 12 12 13 9 18 11 23 13 28 15 17 7 17 4 8 1h25l12-3 12-6 11-8 7-8 7-12 5-17v-19l-3-14-7-14-8-10-11-8-11-5-15-3-12-1-80-1z" fill="#171818"/>
<path transform="translate(1141,831)" d="m0 0h96l30 3 16 4 14 7 10 8 13 13 10 15 8 16 4 17v32l-4 16-8 16-12 16-16 16-12 9-18 13-26 15-25 14-20 9-25 9-20 4-17 2h-37l-18-3-18-6-17-9-13-10-11-11-9-12-11-18-6-15-5-17-2-16v-17l2-17 4-17 11-24 7-10 9-11 11-11 14-10 19-10 13-4 15-3 24-2zm-24 64-15 2-11 4-12 7-9 9-9 16-4 9-2 8v15l4 16 6 12 9 12 8 7 12 7 15 4h25l20-4 18-6 26-12 24-14 24-15 12-9 11-9 8-11 3-7-1-15-4-11-9-10-8-4-9-1z" fill="#171818"/>
</svg>
