<?xml version="1.0" encoding="UTF-8"?>
<svg version="1.1" xmlns="http://www.w3.org/2000/svg" width="452" height="553">
<path d="M0 0 C0.86129731 -0.00583219 1.72259462 -0.01166439 2.60999185 -0.01767331 C4.03773377 -0.01200433 4.03773377 -0.01200433 5.49431896 -0.00622082 C6.50113742 -0.01004636 7.50795587 -0.01387191 8.54528397 -0.01781338 C11.9408793 -0.02818557 15.33630685 -0.02414322 18.73191357 -0.02018261 C21.15756418 -0.0245268 23.58321341 -0.02970896 26.00886059 -0.03567028 C31.9272152 -0.04770705 37.84552774 -0.05020763 43.76388995 -0.04787002 C48.57406442 -0.04608926 53.3842251 -0.04783129 58.19439793 -0.05209446 C58.87819756 -0.05268965 59.56199719 -0.05328484 60.26651802 -0.05389806 C61.6555453 -0.05510978 63.04457258 -0.05632392 64.43359985 -0.05754044 C77.47154615 -0.06842654 90.50946662 -0.06624871 103.54741438 -0.06015559 C115.4779166 -0.05498813 127.40833712 -0.06623544 139.33882318 -0.08525381 C151.58260274 -0.10462223 163.82634364 -0.1128898 176.07013863 -0.10913056 C182.94660897 -0.10721666 189.8230098 -0.10972422 196.69946766 -0.1238451 C203.16644302 -0.13699032 209.63329569 -0.1345123 216.10027218 -0.12143421 C218.47669625 -0.11906111 220.85313172 -0.12182919 223.22954273 -0.13005733 C226.46838412 -0.14046454 229.70666985 -0.13247227 232.94549084 -0.11974621 C233.89062662 -0.12712049 234.8357624 -0.13449478 235.80953866 -0.14209253 C242.10906879 -0.0898583 245.48724445 0.96619247 250.15647411 5.37556934 C251.06526318 6.32560841 251.97405224 7.27564747 252.91038036 8.25447559 C254.29431804 9.64396985 255.68136946 11.03036583 257.07053661 12.41463184 C288.75022411 44.09431934 288.75022411 44.09431934 290.95440197 46.29863453 C292.13560089 47.47975051 293.31694376 48.66072259 294.49856091 49.84142017 C296.44093861 51.78239244 298.37741548 53.72836767 300.30491161 55.68416309 C301.1028413 56.49111622 301.90077099 57.29806934 302.72288036 58.12947559 C303.51307568 58.93127247 304.30327099 59.73306934 305.11741161 60.55916309 C307.19021055 62.55948655 309.26586707 64.42896735 311.45334911 66.29353809 C318.00038809 71.9716918 323.97872623 78.26789981 330.06516552 84.42976856 C335.52560959 89.95176614 340.96791718 95.41864059 346.88157177 100.46150684 C351.389043 104.44500488 355.59441236 108.75395525 359.84788036 113.00447559 C360.81457845 113.95900273 361.78137475 114.91343042 362.74827099 115.86775684 C363.65641552 116.77396778 364.56456005 117.68017872 365.50022411 118.61385059 C366.32385448 119.43337208 367.14748486 120.25289356 367.99607372 121.09724903 C371.1814023 124.6867865 371.03555177 127.76647384 371.0362215 132.38363552 C371.04013313 134.31972964 371.04013313 134.31972964 371.04412377 136.29493678 C371.0419615 137.73568366 371.03970484 139.1764304 371.03736401 140.61717701 C371.03851548 142.1411052 371.04010319 143.66503311 371.04209125 145.18896043 C371.04628082 149.38744 371.04419555 153.58589695 371.04110503 157.78437662 C371.03884969 162.30790424 371.04233119 166.83142788 371.04508495 171.35495472 C371.04953998 180.22026444 371.04856743 189.08556572 371.04567231 197.95087577 C371.04341752 205.152361 371.04310609 212.35384385 371.04419613 219.55532932 C371.04434936 220.57874243 371.04450259 221.60215553 371.04466047 222.65658116 C371.04498018 224.73534382 371.0453044 226.81410649 371.04563306 228.89286916 C371.048487 248.40117665 371.04520203 267.90947945 371.0398327 287.41778617 C371.0353634 304.17520062 371.03614179 320.93260814 371.04075146 337.69002247 C371.04609644 357.12976202 371.04821373 376.56949746 371.04513919 396.00923765 C371.04482063 398.07990956 371.04450626 400.15058148 371.04419613 402.2212534 C371.04404185 403.24018441 371.04388758 404.25911542 371.04372863 405.30892313 C371.04286334 412.50699835 371.04432656 419.70507097 371.04667568 426.90314579 C371.04947298 435.66748945 371.04873686 444.43182414 371.04339494 453.19616677 C371.04075717 457.67215548 371.03975414 462.14812923 371.04304409 466.62411785 C371.04600544 470.71472922 371.04441697 474.80531161 371.03906654 478.89592032 C371.03794167 480.38237937 371.03853505 481.86884083 371.04094233 483.35529836 C371.04394575 485.36252992 371.0402933 487.36976826 371.0362215 489.37699795 C371.03605915 490.49592642 371.0358968 491.6148549 371.03572953 492.7676903 C370.91038036 495.25447559 370.91038036 495.25447559 369.91038036 496.25447559 C367.86273685 496.36573578 365.8112191 496.40584103 363.76060009 496.4194231 C363.11116641 496.42506665 362.46173272 496.43071019 361.79261923 496.43652475 C359.6007608 496.45432602 357.40892478 496.46496873 355.21702099 496.475667 C353.65201045 496.48687586 352.08700289 496.4985078 350.52199841 496.51053333 C346.25975136 496.54193991 341.99748827 496.56701925 337.7351923 496.59073019 C333.28465788 496.61626018 328.8341559 496.64661025 324.38364697 496.67619801 C316.90836468 496.7250803 309.43306564 496.76975218 301.95774364 496.81209278 C293.3025132 496.86118066 284.64735173 496.9174779 275.99219084 496.97751391 C268.57482789 497.02877352 261.15744755 497.07613018 253.74003839 497.12020147 C249.30390737 497.14656503 244.86779634 497.17431187 240.43169689 497.20557499 C236.26215649 497.23474378 232.09261621 497.25903182 227.92302418 497.27947521 C226.38827825 497.28781174 224.85354066 497.29788155 223.31881809 497.30976391 C221.23259246 497.32564063 219.14642874 497.33538857 217.06016064 497.34349537 C215.88986057 497.35049269 214.71956051 497.35749001 213.51379681 497.36469936 C210.91038036 497.25447559 210.91038036 497.25447559 209.91038036 496.25447559 C209.86144529 494.73442974 209.87412639 493.21237675 209.91038036 491.69197559 C209.91038036 484.20538457 209.37738108 476.72648707 208.91038036 469.25447559 C253.13038036 469.25447559 297.35038036 469.25447559 342.91038036 469.25447559 C342.91038036 360.02447559 342.91038036 250.79447559 342.91038036 138.25447559 C341.59038036 138.58447559 340.27038036 138.91447559 338.91038036 139.25447559 C337.02009823 139.35029861 335.12680648 139.39254426 333.23411083 139.39973927 C332.09126629 139.40611912 330.94842175 139.41249897 329.77094555 139.41907215 C327.91797359 139.42074139 327.91797359 139.42074139 326.02756786 139.42244434 C324.10244869 139.42743694 324.10244869 139.42743694 322.13843822 139.4325304 C319.41315912 139.43851974 316.68791168 139.44037107 313.96262646 139.43977833 C311.20279311 139.43969779 308.44312827 139.44652094 305.68332958 139.46028614 C262.98715982 139.66998587 262.98715982 139.66998587 251.91038036 133.25447559 C251.20526318 132.91029591 250.50014599 132.56611622 249.77366161 132.21150684 C247.67485172 131.13350176 246.51239509 129.98465149 244.91038036 128.25447559 C244.14725536 127.55322559 243.38413036 126.85197559 242.59788036 126.12947559 C218.64408541 100.50448564 229.91038036 59.20013702 229.91038036 28.25447559 C161.27038036 28.25447559 92.63038036 28.25447559 21.91038036 28.25447559 C21.93358349 56.09564747 21.95678661 83.93681934 21.98069286 112.62166309 C21.99090549 130.20369459 22.00062765 147.78572427 22.00803661 165.36775684 C22.01195262 174.59903947 22.01599366 183.83032202 22.02024364 193.0616045 C22.02077114 194.21866591 22.02129864 195.37572731 22.02184212 196.56785119 C22.0305512 215.27092646 22.04632457 233.97398949 22.06468596 252.67705749 C22.08335995 271.85789687 22.09449178 291.03872981 22.09855735 310.21957791 C22.10130762 322.06422796 22.11000774 333.90884342 22.1262133 345.75348283 C22.13674935 353.86532985 22.1399887 361.97715888 22.13738312 370.08901225 C22.13609653 374.77575046 22.13812937 379.46242806 22.14879131 384.14915562 C22.15846752 388.43363851 22.15905226 392.71801957 22.15217815 397.00250699 C22.15132758 398.55838896 22.1539122 400.11427709 22.16014673 401.67014681 C22.16809016 403.77358341 22.16389791 405.87664493 22.15647602 407.98007488 C22.15723546 409.15189182 22.1579949 410.32370876 22.15877736 411.5310353 C21.91038036 414.25447559 21.91038036 414.25447559 19.91038036 416.25447559 C18.0344038 417.01643848 18.0344038 417.01643848 15.76975536 417.72713184 C14.94604443 417.98687794 14.12233349 418.24662403 13.27366161 418.51424122 C11.98008739 418.91159473 11.98008739 418.91159473 10.66038036 419.31697559 C9.8134663 419.58574512 8.96655224 419.85451466 8.09397411 420.13142872 C3.73653241 421.49016443 -0.53019326 422.78256044 -5.08961964 423.25447559 C-6.97688634 421.36720889 -6.21686849 418.08445212 -6.21825409 415.57771873 C-6.22000713 414.86804714 -6.22176016 414.15837554 -6.22356632 413.42719874 C-6.22826503 411.01906529 -6.22575098 408.61099121 -6.22333241 406.20285511 C-6.22519844 404.47100078 -6.2274983 402.73914687 -6.23019773 401.00729364 C-6.23634787 396.22474844 -6.23617838 391.44222064 -6.23500335 386.65967238 C-6.23480015 381.51099825 -6.24031033 376.36232983 -6.24506092 371.21365833 C-6.25338555 361.11783012 -6.25611657 351.02200774 -6.2566733 340.92617638 C-6.25714759 332.72446091 -6.25919797 324.52274738 -6.26237392 316.32103252 C-6.27118533 293.09530909 -6.27579252 269.86959029 -6.27504345 246.64386518 C-6.27500349 245.39041788 -6.27496354 244.13697059 -6.27492237 242.84554005 C-6.27488149 241.59057196 -6.27484061 240.33560388 -6.27479849 239.04260647 C-6.27439185 218.69385447 -6.28396468 198.34512096 -6.29806074 177.99637432 C-6.31240227 157.12952269 -6.31933216 136.2626801 -6.31846696 115.39582342 C-6.31813423 103.66976036 -6.32091461 91.94371668 -6.33164501 80.21765804 C-6.34072083 70.23531436 -6.34294943 60.25299885 -6.33613559 50.27065284 C-6.33285558 45.17278261 -6.33286664 40.07496651 -6.34148884 34.97710133 C-6.34928988 30.31702153 -6.34798873 25.65703935 -6.33920471 20.99696212 C-6.33765547 19.30450421 -6.33953864 17.61203924 -6.34506478 15.91958965 C-6.35204385 13.63196334 -6.34689597 11.34468729 -6.33850861 9.05707359 C-6.33872597 7.7825148 -6.33894334 6.507956 -6.3391673 5.19477421 C-5.94782733 0.58380585 -4.22688517 0.00490558 0 0 Z " fill="#3D4752" transform="translate(48.089619636535645,20.745524406433105)"/>
<path d="M0 0 C2.96824662 1.6930793 5.74646387 3.41472505 8 6 C8.2265625 8.703125 8.2265625 8.703125 8 11 C6.68 11.66 5.36 12.32 4 13 C3.76295462 25.21964588 3.76295462 25.21964588 7 36 C15.73156823 20.87526336 15.73156823 20.87526336 23.75 5.375 C25 3 25 3 27 2 C33.12476014 1.52087926 38.23186208 2.97389473 44.0625 4.75 C45.94268714 5.30606124 47.8228955 5.86205076 49.703125 6.41796875 C50.61255859 6.69044434 51.52199219 6.96291992 52.45898438 7.24365234 C55.7341664 8.21852878 59.02184032 9.14126693 62.3125 10.0625 C63.39015625 10.37574219 64.4678125 10.68898438 65.578125 11.01171875 C68.12559069 11.74745941 70.67503544 12.45295769 73.234375 13.14453125 C74.67735147 13.55374317 76.12006491 13.96388384 77.5625 14.375 C78.22999268 14.54781494 78.89748535 14.72062988 79.58520508 14.89868164 C83.57803027 16.06873844 86.45412447 17.62413058 88.95751953 21.01049805 C93.16180975 29.03409547 93.84338288 39.21852315 95.1875 48.0625 C95.36474609 49.15626953 95.54199219 50.25003906 95.72460938 51.37695312 C98.39911209 68.73540512 98.39911209 68.73540512 95.5 75.5 C89.17778428 81.82221572 81.22149815 81.38519953 72.8497467 81.39547729 C71.21810776 81.3880511 69.58647019 81.38032001 67.95483398 81.37231445 C66.22118919 81.37474478 64.4875458 81.37846644 62.75390625 81.38337708 C58.06183549 81.39275594 53.36997444 81.3833863 48.6779201 81.37004495 C43.76046401 81.35870042 38.84301779 81.36284023 33.92555237 81.36479187 C25.66981596 81.36567381 17.41416182 81.35461461 9.15844727 81.33618164 C-0.37895939 81.31500856 -9.91624563 81.31150625 -19.45367104 81.3177436 C-28.63951425 81.32344285 -37.82531516 81.31778541 -47.01115227 81.30657005 C-50.91568727 81.30193223 -54.82019634 81.30104667 -58.72473335 81.3031559 C-63.32371816 81.30504282 -67.92258082 81.29690387 -72.52153778 81.2810955 C-74.20694664 81.27686187 -75.89236791 81.27599589 -77.57777977 81.27878571 C-79.88280179 81.28202167 -82.18746205 81.27289047 -84.4924469 81.26069641 C-85.78086267 81.25864354 -87.06927843 81.25659067 -88.3967371 81.25447559 C-94.68739492 80.81020635 -99.42852529 79.43701957 -104 75 C-107.1363439 65.5909683 -104.22716029 54.59184139 -102.60131836 45.06396484 C-102.18516188 42.61121957 -101.79009345 40.15567164 -101.39648438 37.69921875 C-101.13406633 36.1247905 -100.87043762 34.55056346 -100.60546875 32.9765625 C-100.48970993 32.24942047 -100.37395111 31.52227844 -100.25468445 30.77310181 C-99.29117187 25.26945452 -97.73518387 21.64186306 -93.67578125 17.80078125 C-90.80298842 15.86741265 -88.53456637 15.04215971 -85.1875 14.1875 C-83.96804687 13.86265625 -82.74859375 13.5378125 -81.4921875 13.203125 C-80.44756348 12.92758789 -80.44756348 12.92758789 -79.38183594 12.64648438 C-74.50308718 11.32228114 -69.66159281 9.86572659 -64.8125 8.4375 C-39.90726262 1.11669273 -39.90726262 1.11669273 -35 2 C-30.84170923 5.76226307 -28.72449654 10.26484683 -26.3203125 15.27734375 C-23.00349045 22.1170626 -19.37259792 28.7774568 -15 35 C-12.62602784 28.35287796 -10.86504516 21.09346773 -12 14 C-12.96639254 12.96748586 -13.96595449 11.9647538 -15 11 C-15.5 8.0625 -15.5 8.0625 -15 5 C-12.75 2.75 -12.75 2.75 -10 1 C-9.0409375 0.3503125 -9.0409375 0.3503125 -8.0625 -0.3125 C-4.90721884 -1.36426039 -3.19267811 -0.98236249 0 0 Z " fill="#2A77BA" transform="translate(147,439)"/>
<path d="M0 0 C6.10892193 4.96395632 11.69890832 9.77790661 14.109375 17.5546875 C14.58417589 22.56663629 14.48742636 27.526209 14.359375 32.5546875 C14.33927485 33.91533823 14.32103029 35.2760177 14.3046875 36.63671875 C14.2577835 39.9434505 14.19215225 43.24869166 14.109375 46.5546875 C14.74399658 46.83731445 15.37861816 47.11994141 16.0324707 47.41113281 C18.109375 48.5546875 18.109375 48.5546875 19.33984375 50.8515625 C21.47241979 58.34264178 20.73235024 66.65971275 17.109375 73.5546875 C14.91037881 76.6574378 12.59959841 79.6466653 10.25 82.63671875 C7.9362895 85.79062704 6.5024911 88.80236372 5.05078125 92.40234375 C0.28980267 103.28740265 -7.57554476 109.93217776 -18.27734375 114.609375 C-27.31596864 117.87895231 -36.07514301 117.15613441 -44.890625 113.5546875 C-50.81702608 110.6251597 -54.5753421 108.33654088 -57.890625 102.5546875 C-58.85548828 101.64783203 -58.85548828 101.64783203 -59.83984375 100.72265625 C-62.62295095 97.78051436 -64.01765593 94.51727219 -65.703125 90.8671875 C-67.99888199 86.05329405 -70.25740234 81.73453406 -73.703125 77.6171875 C-78.86590645 71.39356055 -80.44609639 64.94695562 -80.18359375 56.921875 C-79.73273393 53.27892763 -78.69367194 50.76010429 -76.890625 47.5546875 C-75.900625 46.8946875 -74.910625 46.2346875 -73.890625 45.5546875 C-73.9628125 44.75546875 -74.035 43.95625 -74.109375 43.1328125 C-74.40720788 39.60845671 -74.66011848 36.08408247 -74.890625 32.5546875 C-74.95894531 31.51570313 -75.02726562 30.47671875 -75.09765625 29.40625 C-75.50955183 17.78164138 -71.75053207 9.04338714 -63.890625 0.5546875 C-47.19244194 -16.36564433 -17.60787697 -13.77855715 0 0 Z " fill="#2B77BA" transform="translate(172.890625,311.4453125)"/>
<path d="M0 0 C1.2739179 0.00184359 2.54783581 0.00368717 3.86035728 0.00558662 C4.56852069 0.00387777 5.2766841 0.00216892 6.00630701 0.00040829 C8.39097581 -0.00289894 10.77536629 0.00813714 13.16000938 0.01904488 C14.86471614 0.01960872 16.56942339 0.01929295 18.27412987 0.01815987 C22.9123355 0.01758432 27.5504384 0.02937116 32.18862009 0.04330778 C37.03197304 0.05578164 41.87532815 0.05698299 46.71869469 0.0593586 C55.89492801 0.06558323 65.07111387 0.08200731 74.24732625 0.10205758 C84.69214913 0.12438604 95.13697422 0.13540231 105.581815 0.14544845 C127.07193627 0.16637271 148.56201476 0.20156773 170.05209923 0.24609566 C171.89866124 4.52241675 172.29387019 7.75149136 172.23959923 12.43359566 C172.22993126 14.28017769 172.22993126 14.28017769 172.22006798 16.16406441 C172.05209923 19.24609566 172.05209923 19.24609566 171.05209923 21.24609566 C148.39986796 21.29276128 125.7476446 21.32805777 103.09537506 21.34972 C92.57816654 21.36004429 82.06098783 21.37412658 71.54379845 21.39697456 C62.37986891 21.41687322 53.21596096 21.4298037 44.05201042 21.43427265 C39.19719641 21.43688602 34.34244418 21.44305236 29.48764992 21.45755577 C24.92246541 21.47108408 20.3573684 21.47532798 15.79216576 21.47231102 C14.1127163 21.47286332 12.43326405 21.47686897 10.75383186 21.48450661 C8.46855249 21.49439369 6.18360757 21.49208764 3.89832115 21.48660469 C2.6170289 21.48844828 1.33573666 21.49029186 0.01561737 21.49219131 C-2.94790077 21.24609566 -2.94790077 21.24609566 -4.94790077 19.24609566 C-5.14647049 16.37267504 -5.22619023 13.61747578 -5.19790077 10.74609566 C-5.20563515 9.96105659 -5.21336952 9.17601753 -5.22133827 8.36718941 C-5.19412189 0.43361393 -5.19412189 0.43361393 0 0 Z " fill="#2B77BA" transform="translate(177.94790077209473,240.75390434265137)"/>
<path d="M0 0 C1.15259811 -0.00281982 2.30519623 -0.00563965 3.49272156 -0.00854492 C4.76344009 -0.00652069 6.03415863 -0.00449646 7.34338379 -0.00241089 C8.69017077 -0.00376536 10.03695738 -0.00554556 11.38374329 -0.00772095 C15.04687466 -0.01228978 18.70997794 -0.01050797 22.37310982 -0.00734186 C26.20121462 -0.00481543 30.02931698 -0.00715659 33.85742188 -0.00872803 C40.28682895 -0.01054889 46.71622455 -0.00814558 53.14562988 -0.00338745 C60.58579284 0.00205501 68.02592839 0.0002923 75.46609068 -0.00521386 C81.84657892 -0.00974734 88.2270589 -0.01039438 94.60754824 -0.00777519 C98.42161286 -0.00621372 102.23566459 -0.00601511 106.04972839 -0.00931168 C109.63492304 -0.0121938 113.22008225 -0.01020838 116.80527306 -0.00441742 C118.75387396 -0.0024577 120.70247785 -0.00544084 122.65107727 -0.00854492 C124.37997444 -0.00431519 124.37997444 -0.00431519 126.14379883 0 C127.14964272 0.00037703 128.1554866 0.00075405 129.19181061 0.0011425 C131.57189941 0.12698364 131.57189941 0.12698364 133.57189941 1.12698364 C133.57189941 7.39698364 133.57189941 13.66698364 133.57189941 20.12698364 C128.71652795 20.73390508 124.51677838 21.25204848 119.73271179 21.25396729 C118.64062408 21.25678711 117.54853638 21.25960693 116.4233551 21.26251221 C115.25058517 21.26048798 114.07781525 21.25846375 112.86950684 21.25637817 C110.98766693 21.25900665 110.98766693 21.25900665 109.06781006 21.26168823 C105.64874844 21.26532007 102.22974781 21.26449081 98.81068969 21.26130915 C95.22599061 21.25876679 91.64129403 21.26112804 88.05659485 21.26269531 C82.04386937 21.26451036 76.03115622 21.26212691 70.01843262 21.25735474 C63.06667575 21.251901 56.11494815 21.25368548 49.16319197 21.25918114 C43.18680991 21.26371645 37.21043666 21.26436114 31.23405343 21.26174247 C27.66764458 21.2601836 24.10124951 21.25997555 20.53484154 21.26327896 C16.56565583 21.26669939 12.59650309 21.26196116 8.62731934 21.25637817 C7.44442825 21.2584024 6.26153717 21.26042664 5.0428009 21.26251221 C3.96481232 21.25969238 2.88682373 21.25687256 1.77616882 21.25396729 C0.83803439 21.25359026 -0.10010004 21.25321323 -1.06666279 21.25282478 C-3.42810059 21.12698364 -3.42810059 21.12698364 -6.42810059 20.12698364 C-8.08307415 16.81703651 -7.52894394 13.13575364 -7.49060059 9.50198364 C-7.48608887 8.70018677 -7.48157715 7.89838989 -7.47692871 7.07229614 C-7.46513227 5.09049358 -7.44719664 3.10872931 -7.42810059 1.12698364 C-4.82085809 -0.1766376 -2.92075106 0.0010948 0 0 Z " fill="#4585BD" transform="translate(209.4281005859375,324.8730163574219)"/>
<path d="M0 0 C0.83901352 0.00561951 1.67802704 0.01123901 2.54246521 0.01702881 C3.86703735 0.01418129 3.86703735 0.01418129 5.21836853 0.01127625 C8.14753501 0.0075611 11.0764554 0.01828401 14.00559998 0.02947998 C16.03579682 0.03067159 18.06599423 0.03112498 20.09619141 0.03086853 C24.35582418 0.03243473 28.61537307 0.04073412 32.87498474 0.05413818 C38.34066501 0.0711174 43.8062529 0.07495289 49.27195644 0.074193 C53.46604294 0.07446471 57.66010916 0.07994624 61.85418892 0.08719444 C63.86966358 0.09038143 65.88514055 0.09234859 67.9006176 0.09308815 C70.71616924 0.09525199 73.53162221 0.10399759 76.34715271 0.11468506 C77.184142 0.11423187 78.02113129 0.11377869 78.88348389 0.11331177 C82.17980225 0.13164316 84.86033182 0.21022393 88.00950623 1.25994873 C89.20181897 4.83688695 89.15562642 8.10177426 89.13450623 11.82244873 C89.13837341 12.50758545 89.1422406 13.19272217 89.14622498 13.89862061 C89.13619958 19.00656203 89.13619958 19.00656203 88.00950623 21.25994873 C79.79223889 22.67950948 71.44036933 22.40568291 63.12669373 22.39276123 C61.58365361 22.39343668 60.04061361 22.3944087 58.49757385 22.3956604 C55.27172324 22.39712868 52.04590045 22.39501267 48.8200531 22.39031982 C44.72898551 22.38465198 40.63798398 22.38788835 36.54691887 22.39389229 C33.36032129 22.39754625 30.17373875 22.39633691 26.98714066 22.3937645 C25.4811871 22.39310701 23.97523209 22.39388136 22.46928024 22.39624405 C14.8132008 22.40561475 7.17501667 22.30508118 -0.47047424 21.87664795 C-1.70055206 21.808237 -2.93062988 21.73982605 -4.19798279 21.66934204 C-5.11951141 21.53424225 -6.04104004 21.39914246 -6.99049377 21.25994873 C-8.63226152 17.97641324 -8.17503417 14.36475235 -8.17799377 10.75994873 C-8.19023987 9.97490967 -8.20248596 9.18987061 -8.21510315 8.38104248 C-8.22035632 6.33931147 -8.11269557 4.29802622 -7.99049377 2.25994873 C-5.37958917 -0.35095588 -3.55541334 0.01951722 0 0 Z " fill="#538FC3" transform="translate(180.99049377441406,156.74005126953125)"/>
<path d="M0 0 C7.49436094 5.13658446 13.70580211 11.40086563 20.08422852 17.82348633 C21.95040118 19.70047596 23.82715204 21.56641809 25.70507812 23.43164062 C26.89647597 24.62435842 28.08725417 25.81769557 29.27734375 27.01171875 C29.83767807 27.56800461 30.39801239 28.12429047 30.97532654 28.69743347 C35.42289951 33.19948659 36.12494019 35.91804152 36.12584114 42.12915993 C36.12844889 43.41988934 36.13105664 44.71061876 36.13374341 46.04046118 C36.13158114 47.48120807 36.12932448 48.92195481 36.12698364 50.36270142 C36.12813512 51.8866296 36.12972282 53.41055751 36.13171089 54.93448484 C36.13590046 59.13296441 36.13381519 63.33142136 36.13072467 67.52990103 C36.12846933 72.05342865 36.13195083 76.57695229 36.13470459 81.10047913 C36.13915961 89.96578885 36.13818706 98.83109012 36.13529195 107.69640018 C36.13303716 114.8978854 36.13272572 122.09936825 36.13381577 129.30085373 C36.133969 130.32426683 36.13412223 131.34767994 36.13428011 132.40210556 C36.13459982 134.48086823 36.13492403 136.5596309 36.1352527 138.63839357 C36.13810663 158.14670106 36.13482167 177.65500385 36.12945233 197.16331057 C36.12498304 213.92072502 36.12576143 230.67813255 36.13037109 247.43554688 C36.13571608 266.87528643 36.13783336 286.31502187 36.13475883 305.75476205 C36.13444027 307.82543397 36.13412589 309.89610588 36.13381577 311.9667778 C36.13366149 312.98570881 36.13350721 314.00463983 36.13334826 315.05444754 C36.13248298 322.25252276 36.1339462 329.45059538 36.13629532 336.6486702 C36.13909262 345.41301385 36.1383565 354.17734855 36.13301457 362.94169118 C36.13037681 367.41767989 36.12937377 371.89365363 36.13266373 376.36964226 C36.13562508 380.46025362 36.13403661 384.55083602 36.12868617 388.64144473 C36.12756131 390.12790378 36.12815468 391.61436523 36.13056196 393.10082276 C36.13356539 395.10805433 36.12991293 397.11529267 36.12584114 399.12252235 C36.12567879 400.24145083 36.12551644 401.36037931 36.12534916 402.51321471 C36 405 36 405 35 406 C32.95235649 406.11126019 30.90083873 406.15136543 28.85021973 406.16494751 C28.20078604 406.17059105 27.55135236 406.1762346 26.88223886 406.18204916 C24.69038043 406.19985043 22.49854442 406.21049314 20.30664062 406.22119141 C18.74163008 406.23240027 17.17662252 406.2440322 15.61161804 406.25605774 C11.349371 406.28746431 7.08710791 406.31254366 2.82481194 406.3362546 C-1.62572249 406.36178458 -6.07622446 406.39213465 -10.5267334 406.42172241 C-18.00201569 406.47060471 -25.47731472 406.51527659 -32.95263672 406.55761719 C-41.60786716 406.60670507 -50.26302863 406.66300231 -58.91818953 406.72303832 C-66.33555247 406.77429793 -73.75293282 406.82165459 -81.17034197 406.86572587 C-85.60647299 406.89208943 -90.04258402 406.91983628 -94.47868347 406.9510994 C-98.64822387 406.98026819 -102.81776416 407.00455622 -106.98735619 407.02499962 C-108.52210211 407.03333615 -110.0568397 407.04340596 -111.59156227 407.05528831 C-113.67778791 407.07116504 -115.76395162 407.08091298 -117.85021973 407.08901978 C-119.02051979 407.09601709 -120.19081985 407.10301441 -121.39658356 407.11022377 C-124 407 -124 407 -125 406 C-125.04893508 404.47995415 -125.03625398 402.95790116 -125 401.4375 C-125 393.95090898 -125.53299928 386.47201147 -126 379 C-81.78 379 -37.56 379 8 379 C8 269.77 8 160.54 8 48 C6.68 48.33 5.36 48.66 4 49 C2.10971787 49.09582302 0.21642612 49.13806866 -1.67626953 49.14526367 C-2.81911407 49.15164352 -3.96195862 49.15802338 -5.13943481 49.16459656 C-6.99240677 49.16626579 -6.99240677 49.16626579 -8.8828125 49.16796875 C-10.80793167 49.17296135 -10.80793167 49.17296135 -12.77194214 49.17805481 C-15.49722124 49.18404415 -18.22246869 49.18589548 -20.94775391 49.18530273 C-23.70758725 49.18522219 -26.46725209 49.19204535 -29.22705078 49.20581055 C-71.92322054 49.41551028 -71.92322054 49.41551028 -83 43 C-83.71414063 42.690625 -84.42828125 42.38125 -85.1640625 42.0625 C-87 41 -87 41 -88 38 C-83.65697152 39.66741272 -79.61171531 41.71383116 -75.5 43.87890625 C-70.58210479 46.08427488 -65.69665044 46.15769172 -60.37988281 46.18945312 C-59.62973404 46.19774643 -58.87958527 46.20603973 -58.10670471 46.21458435 C-56.48510036 46.23192378 -54.86347181 46.247107 -53.24182892 46.26036072 C-50.67871175 46.28145088 -48.11571733 46.3084643 -45.55267334 46.33703613 C-39.19234353 46.4067355 -32.83192715 46.46640197 -26.47149658 46.52606201 C-21.08700907 46.57690938 -15.7025905 46.63168014 -10.31819916 46.69187927 C-7.78712484 46.71852367 -5.25604426 46.7392889 -2.72491455 46.7598877 C-1.18411954 46.77648098 0.35667252 46.79335195 1.89746094 46.81054688 C2.6060173 46.81473129 3.31457367 46.81891571 4.04460144 46.82322693 C8.88614555 46.88614555 8.88614555 46.88614555 10 48 C10.09830399 49.76095856 10.1255561 51.52590392 10.12584114 53.28960419 C10.12844889 54.44398247 10.13105664 55.59836076 10.13374341 56.7877202 C10.13151268 58.07202913 10.12928196 59.35633805 10.12698364 60.67956543 C10.12813451 62.04502514 10.1297218 63.41048454 10.13171089 64.77594328 C10.13590894 68.54568258 10.13381139 72.31539675 10.13072467 76.08513618 C10.12847271 80.14380045 10.13194916 84.20246025 10.13470459 88.26112366 C10.13916348 96.21898034 10.13818529 104.17682762 10.13529195 112.13468468 C10.13303838 118.5991849 10.13272519 125.06368248 10.13381577 131.52818298 C10.133969 132.44640334 10.13412223 133.3646237 10.13428011 134.31066892 C10.13459982 136.17570865 10.13492403 138.04074839 10.1352527 139.90578812 C10.13810784 157.4159053 10.13481994 174.92601725 10.12945233 192.43613356 C10.12498426 207.47777005 10.12576019 222.51939881 10.13037109 237.56103516 C10.13571626 255.00624929 10.13783315 272.45145884 10.13475883 289.89667368 C10.13444026 291.75505479 10.13412589 293.6134359 10.13381577 295.47181702 C10.13366149 296.38630182 10.13350721 297.30078661 10.13334826 298.24298307 C10.13248293 304.70365141 10.13394633 311.16431685 10.13629532 317.62498474 C10.13909287 325.49273111 10.138356 333.3604675 10.13301457 341.22821271 C10.13037695 345.24647787 10.12937351 349.26472635 10.13266373 353.28299141 C10.13562546 356.9554882 10.13403596 360.62795274 10.12868617 364.30044657 C10.12702526 366.27105767 10.13032065 368.24167097 10.13374341 370.2122798 C10.13113566 371.36665808 10.12852791 372.52103637 10.12584114 373.71039581 C10.12567879 374.71497345 10.12551644 375.7195511 10.12534916 376.75457048 C10 379 10 379 9 380 C7.26640402 380.09627113 5.52885354 380.12187568 3.79258728 380.12025452 C2.66371597 380.12162918 1.53484467 380.12300385 0.37176514 380.12442017 C-1.50234039 380.11902725 -1.50234039 380.11902725 -3.41430664 380.11352539 C-4.72143112 380.11367142 -6.0285556 380.11381744 -7.37528992 380.1139679 C-10.97017099 380.11425586 -14.56501897 380.10835928 -18.15989232 380.10139394 C-21.91286252 380.09516026 -25.6658334 380.09455659 -29.41880798 380.09336853 C-36.53030826 380.09025526 -43.64179325 380.08204192 -50.75328678 380.07201904 C-58.84747066 380.06085778 -66.94165526 380.05534742 -75.03584492 380.05032361 C-91.69057225 380.03985931 -108.34528418 380.02225994 -125 380 C-124.01 383.465 -124.01 383.465 -123 387 C-123 392.94 -123 398.88 -123 405 C-71.19 405 -19.38 405 34 405 C34.44644752 358.17873088 34.79861932 311.36104304 34.9455163 264.53807629 C34.96301243 258.99868799 34.9816435 253.45930405 35.00097656 247.91992188 C35.00480602 246.81722387 35.00863548 245.71452586 35.01258098 244.57841276 C35.07712677 226.77003078 35.23341114 208.96359263 35.42416729 191.15616633 C35.61813301 172.85649569 35.7121979 154.55823419 35.71533382 136.25752723 C35.72036089 124.98168375 35.80141865 113.71182884 35.9827327 102.43741958 C36.09991234 94.68471261 36.11922386 86.93542541 36.06486602 79.18204327 C36.03636744 74.71918199 36.04782379 70.26694572 36.17671776 65.80562019 C36.61058004 49.94173604 36.72285957 36.54554225 25.5670075 24.29422166 C19.81551528 18.34105092 13.50178113 13.10410351 7 8 C4.60143143 6.04994058 2.28645879 4.0824449 0 2 C0 1.34 0 0.68 0 0 Z " fill="#A2A5AA" transform="translate(383,111)"/>
<path d="M0 0 C69.96 0 139.92 0 212 0 C212.33 22.11 212.66 44.22 213 67 C213.99 73.93 214.98 80.86 216 88 C198.77095476 65.02793968 211 30.71507541 211 2 C142.36 2 73.72 2 3 2 C3.02320312 29.84117188 3.04640625 57.68234375 3.0703125 86.3671875 C3.08052513 103.949219 3.09024729 121.53124868 3.09765625 139.11328125 C3.10157226 148.34456387 3.1056133 157.57584643 3.10986328 166.80712891 C3.11039078 167.96419031 3.11091828 169.12125172 3.11146176 170.31337559 C3.12017083 189.01645086 3.13594421 207.71951389 3.15430559 226.4225819 C3.17297958 245.60342127 3.18411141 264.78425422 3.18817699 283.96510231 C3.19092725 295.80975236 3.19962738 307.65436783 3.21583293 319.49900724 C3.22636898 327.61085426 3.22960833 335.72268328 3.22700275 343.83453666 C3.22571617 348.52127487 3.22774901 353.20795247 3.23841095 357.89468002 C3.24808716 362.17916292 3.2486719 366.46354398 3.24179779 370.74803139 C3.24094721 372.30391337 3.24353184 373.8598015 3.24976636 375.41567121 C3.2577098 377.51910781 3.25351754 379.62216934 3.24609566 381.72559929 C3.2468551 382.89741623 3.24761454 384.06923317 3.24839699 385.27655971 C3 388 3 388 1 390 C-1.125 389.625 -1.125 389.625 -3 389 C-2.01 388.67 -1.02 388.34 0 388 C0 259.96 0 131.92 0 0 Z " fill="#9EA5A7" transform="translate(67,47)"/>
<path d="M0 0 C0.86129731 -0.00583219 1.72259462 -0.01166439 2.60999185 -0.01767331 C4.03773377 -0.01200433 4.03773377 -0.01200433 5.49431896 -0.00622082 C6.50113742 -0.01004636 7.50795587 -0.01387191 8.54528397 -0.01781338 C11.9408793 -0.02818557 15.33630685 -0.02414322 18.73191357 -0.02018261 C21.15756418 -0.0245268 23.58321341 -0.02970896 26.00886059 -0.03567028 C31.9272152 -0.04770705 37.84552774 -0.05020763 43.76388995 -0.04787002 C48.57406442 -0.04608926 53.3842251 -0.04783129 58.19439793 -0.05209446 C58.87819756 -0.05268965 59.56199719 -0.05328484 60.26651802 -0.05389806 C61.6555453 -0.05510978 63.04457258 -0.05632392 64.43359985 -0.05754044 C77.47154615 -0.06842654 90.50946662 -0.06624871 103.54741438 -0.06015559 C115.4779166 -0.05498813 127.40833712 -0.06623544 139.33882318 -0.08525381 C151.58260274 -0.10462223 163.82634364 -0.1128898 176.07013863 -0.10913056 C182.94660897 -0.10721666 189.8230098 -0.10972422 196.69946766 -0.1238451 C203.16644302 -0.13699032 209.63329569 -0.1345123 216.10027218 -0.12143421 C218.47669625 -0.11906111 220.85313172 -0.12182919 223.22954273 -0.13005733 C226.46838412 -0.14046454 229.70666985 -0.13247227 232.94549084 -0.11974621 C233.89062662 -0.12712049 234.8357624 -0.13449478 235.80953866 -0.14209253 C240.68432821 -0.10167192 243.91982463 0.11548316 247.91038036 3.25447559 C247.58038036 3.91447559 247.25038036 4.57447559 246.91038036 5.25447559 C245.92038036 4.59447559 244.93038036 3.93447559 243.91038036 3.25447559 C241.90072266 2.95175549 241.90072266 2.95175549 239.66812897 2.99276257 C238.36293714 2.98156321 238.36293714 2.98156321 237.03137779 2.9701376 C236.07543378 2.97207308 235.11948977 2.97400856 234.13457775 2.97600269 C232.61533199 2.96732418 232.61533199 2.96732418 231.0653944 2.95847034 C227.64495788 2.94137568 224.22465513 2.93859646 220.80417919 2.93562794 C218.320758 2.9262228 215.83733998 2.91594448 213.3539257 2.9048605 C207.36393612 2.88030312 201.37398518 2.86468557 195.38396127 2.85327659 C188.45697802 2.83964263 181.53007573 2.81330608 174.60312939 2.7869463 C156.30974733 2.72362529 138.01630867 2.67761469 119.72288036 2.62947559 C78.86475536 2.50572559 38.00663036 2.38197559 -4.08961964 2.25447559 C-4.08961964 140.52447559 -4.08961964 278.79447559 -4.08961964 421.25447559 C-3.09961964 420.92447559 -2.10961964 420.59447559 -1.08961964 420.25447559 C-0.75961964 419.59447559 -0.42961964 418.93447559 -0.08961964 418.25447559 C3.21038036 418.25447559 6.51038036 418.25447559 9.91038036 418.25447559 C-0.79563553 423.60748354 -0.79563553 423.60748354 -6.08961964 422.25447559 C-6.13535251 368.78300588 -6.17061616 315.31153814 -6.1917503 261.84005273 C-6.19425184 255.53369496 -6.19684048 249.22733722 -6.19948292 242.9209795 C-6.20000754 241.66544592 -6.20053216 240.40991233 -6.20107268 239.11633228 C-6.20978596 218.76105215 -6.22556099 198.40578327 -6.24392523 178.05050983 C-6.26259864 157.17917184 -6.27373093 136.30783975 -6.27779663 115.43649375 C-6.28054701 102.54772311 -6.28924779 89.65898424 -6.30545257 76.77022336 C-6.3159879 67.94353402 -6.31922813 59.11686122 -6.31662239 50.29016604 C-6.31533569 45.19027538 -6.31736991 40.09044044 -6.32803059 34.99055958 C-6.33770522 30.32859304 -6.33829257 25.66672009 -6.33141743 21.0047494 C-6.3305667 19.31158721 -6.33315263 17.61841936 -6.339386 15.92526843 C-6.34732656 13.63668422 -6.34313888 11.34844497 -6.33571529 9.05986691 C-6.33647473 7.78476604 -6.33723418 6.50966517 -6.33801663 5.19592488 C-5.94854628 0.58392345 -4.2275338 0.00490633 0 0 Z " fill="#ACB1B6" transform="translate(48.089619636535645,20.745524406433105)"/>
<path d="M0 0 C1.2739179 0.00184359 2.54783581 0.00368717 3.86035728 0.00558662 C4.56852069 0.00387777 5.2766841 0.00216892 6.00630701 0.00040829 C8.39097581 -0.00289894 10.77536629 0.00813714 13.16000938 0.01904488 C14.86471614 0.01960872 16.56942339 0.01929295 18.27412987 0.01815987 C22.9123355 0.01758432 27.5504384 0.02937116 32.18862009 0.04330778 C37.03197304 0.05578164 41.87532815 0.05698299 46.71869469 0.0593586 C55.89492801 0.06558323 65.07111387 0.08200731 74.24732625 0.10205758 C84.69214913 0.12438604 95.13697422 0.13540231 105.581815 0.14544845 C127.07193627 0.16637271 148.56201476 0.20156773 170.05209923 0.24609566 C171.89866124 4.52241675 172.29387019 7.75149136 172.23959923 12.43359566 C172.22993126 14.28017769 172.22993126 14.28017769 172.22006798 16.16406441 C172.05209923 19.24609566 172.05209923 19.24609566 171.05209923 21.24609566 C148.39986796 21.29276128 125.7476446 21.32805777 103.09537506 21.34972 C92.57816654 21.36004429 82.06098783 21.37412658 71.54379845 21.39697456 C62.37986891 21.41687322 53.21596096 21.4298037 44.05201042 21.43427265 C39.19719641 21.43688602 34.34244418 21.44305236 29.48764992 21.45755577 C24.92246541 21.47108408 20.3573684 21.47532798 15.79216576 21.47231102 C14.1127163 21.47286332 12.43326405 21.47686897 10.75383186 21.48450661 C8.46855249 21.49439369 6.18360757 21.49208764 3.89832115 21.48660469 C2.6170289 21.48844828 1.33573666 21.49029186 0.01561737 21.49219131 C-2.94790077 21.24609566 -2.94790077 21.24609566 -4.94790077 19.24609566 C-5.14647049 16.37267504 -5.22619023 13.61747578 -5.19790077 10.74609566 C-5.20563515 9.96105659 -5.21336952 9.17601753 -5.22133827 8.36718941 C-5.19412189 0.43361393 -5.19412189 0.43361393 0 0 Z M-0.94790077 4.24609566 C-0.94790077 8.86609566 -0.94790077 13.48609566 -0.94790077 18.24609566 C54.82209923 18.24609566 110.59209923 18.24609566 168.05209923 18.24609566 C168.05209923 13.62609566 168.05209923 9.00609566 168.05209923 4.24609566 C112.28209923 4.24609566 56.51209923 4.24609566 -0.94790077 4.24609566 Z " fill="#4C81B1" transform="translate(177.94790077209473,240.75390434265137)"/>
<path d="M0 0 C4.03480636 3.25026068 7.5967585 6.85277549 9.25 11.8125 C10.15692834 23.78098052 10.15692834 23.78098052 7.6875 29.3125 C2.01761617 35.12776546 -2.62366446 39.72588848 -11.0625 40.1875 C-17.51200514 40.01608458 -22.33357828 37.32551811 -27.0625 33.0625 C-30.75677886 29.02503677 -32.63384827 24.85180369 -32.84375 19.359375 C-32.49302652 13.64258225 -31.30613687 8.40073406 -27.75 3.8125 C-19.22365808 -3.47196168 -10.13627779 -4.37702905 0 0 Z M-17.6875 11.875 C-20.27001338 15.55312512 -20.47125695 17.40481863 -19.75 21.8125 C-17.53471076 25.17973965 -16.13573114 25.72452623 -12.1875 26.625 C-8.76806042 27.02264678 -8.76806042 27.02264678 -5.75 25.8125 C-3.65310142 22.5922629 -2.73516482 20.55425917 -2.8125 16.6875 C-3.92659678 13.27093653 -4.77729985 11.84645273 -7.75 9.8125 C-12.15768137 9.09124305 -14.00937488 9.29248662 -17.6875 11.875 Z " fill="#2D76B8" transform="translate(138.75,233.1875)"/>
<path d="M0 0 C1.66796875 1.5625 1.66796875 1.5625 2.8125 3 C2.8125 3.66 2.8125 4.32 2.8125 5 C3.4725 5 4.1325 5 4.8125 5 C6.76052412 9.0978356 7.1103906 12.48082623 7.125 17 C7.14175781 18.19625 7.15851563 19.3925 7.17578125 20.625 C6.52484225 26.67243328 2.93343131 30.39626386 -1.296875 34.484375 C-5.88993928 38.16641827 -11.51575036 38.58673272 -17.1875 38 C-24.75019047 35.58776252 -29.85464591 31.95169025 -33.5625 24.8125 C-36.13008954 18.57544038 -35.20999267 13.06747802 -33.125 6.8125 C-29.67227109 1.80047416 -25.29824506 -2.67339921 -19.375 -4.5625 C-12.44970967 -5.77578905 -5.45001027 -4.50122306 0 0 Z M-22.1875 13 C-23.06294465 16.11337711 -22.77005037 17.66357515 -22.1875 21 C-19.80546489 23.65426769 -17.97741577 24.73027266 -14.625 25.875 C-11.67226869 26.02642212 -10.53905888 25.80286181 -8.1875 24 C-5.65671711 20.37254452 -5.07642676 18.72814677 -5.75 14.3125 C-7.22348923 10.91706829 -7.8960098 9.59872381 -11.1875 8 C-15.92991958 7.00159588 -19.43106261 9.19392586 -22.1875 13 Z " fill="#2E77B6" transform="translate(141.1875,151)"/>
<path d="M0 0 C2.96824662 1.6930793 5.74646387 3.41472505 8 6 C8.2265625 8.703125 8.2265625 8.703125 8 11 C6.02 11.99 6.02 11.99 4 13 C3.76295462 25.21964588 3.76295462 25.21964588 7 36 C9.64 31.38 12.28 26.76 15 22 C15.66 22.66 16.32 23.32 17 24 C16.87818435 29.48170409 14.78359048 31.30649501 11 35 C9.77751762 37.2915552 8.91004373 39.55725105 8 42 C3.125 41.125 3.125 41.125 2 40 C1.76272205 36.87772345 1.60446344 33.76319706 1.48242188 30.63476562 C1.29244701 26.96789235 0.98927966 24.13291412 -1 21 C-2.32 21.99 -3.64 22.98 -5 24 C-5.33 22.35 -5.66 20.7 -6 19 C-6.10957031 20.08539063 -6.21914062 21.17078125 -6.33203125 22.2890625 C-6.49158608 23.73444152 -6.65177611 25.17975051 -6.8125 26.625 C-6.88275391 27.33785156 -6.95300781 28.05070312 -7.02539062 28.78515625 C-7.55681062 33.41913863 -8.63468394 36.89147841 -11 41 C-12.65 41 -14.3 41 -16 41 C-16.70226141 39.75823305 -17.38629109 38.50614401 -18.0625 37.25 C-18.44535156 36.55390625 -18.82820312 35.8578125 -19.22265625 35.140625 C-20.1312406 32.63859372 -19.88336837 31.4667645 -19 29 C-17.02 31.97 -17.02 31.97 -15 35 C-12.62602784 28.35287796 -10.86504516 21.09346773 -12 14 C-12.96639254 12.96748586 -13.96595449 11.9647538 -15 11 C-15.5 8.0625 -15.5 8.0625 -15 5 C-12.75 2.75 -12.75 2.75 -10 1 C-9.360625 0.566875 -8.72125 0.13375 -8.0625 -0.3125 C-4.90721884 -1.36426039 -3.19267811 -0.98236249 0 0 Z " fill="#347AB7" transform="translate(147,439)"/>
<path d="M0 0 C1.2739179 0.00184359 2.54783581 0.00368717 3.86035728 0.00558662 C4.56852069 0.00387777 5.2766841 0.00216892 6.00630701 0.00040829 C8.39097581 -0.00289894 10.77536629 0.00813714 13.16000938 0.01904488 C14.86471614 0.01960872 16.56942339 0.01929295 18.27412987 0.01815987 C22.9123355 0.01758432 27.5504384 0.02937116 32.18862009 0.04330778 C37.03197304 0.05578164 41.87532815 0.05698299 46.71869469 0.0593586 C55.89492801 0.06558323 65.07111387 0.08200731 74.24732625 0.10205758 C84.69214913 0.12438604 95.13697422 0.13540231 105.581815 0.14544845 C127.07193627 0.16637271 148.56201476 0.20156773 170.05209923 0.24609566 C171.89866124 4.52241675 172.29387019 7.75149136 172.23959923 12.43359566 C172.22993126 14.28017769 172.22993126 14.28017769 172.22006798 16.16406441 C172.05209923 19.24609566 172.05209923 19.24609566 171.05209923 21.24609566 C148.39986796 21.29276128 125.7476446 21.32805777 103.09537506 21.34972 C92.57816654 21.36004429 82.06098783 21.37412658 71.54379845 21.39697456 C62.37986891 21.41687322 53.21596096 21.4298037 44.05201042 21.43427265 C39.19719641 21.43688602 34.34244418 21.44305236 29.48764992 21.45755577 C24.92246541 21.47108408 20.3573684 21.47532798 15.79216576 21.47231102 C14.1127163 21.47286332 12.43326405 21.47686897 10.75383186 21.48450661 C8.46855249 21.49439369 6.18360757 21.49208764 3.89832115 21.48660469 C2.6170289 21.48844828 1.33573666 21.49029186 0.01561737 21.49219131 C-2.94790077 21.24609566 -2.94790077 21.24609566 -4.94790077 19.24609566 C-5.14647049 16.37267504 -5.22619023 13.61747578 -5.19790077 10.74609566 C-5.20563515 9.96105659 -5.21336952 9.17601753 -5.22133827 8.36718941 C-5.19412189 0.43361393 -5.19412189 0.43361393 0 0 Z M-2.94790077 2.24609566 C-2.94790077 8.18609566 -2.94790077 14.12609566 -2.94790077 20.24609566 C54.14209923 20.24609566 111.23209923 20.24609566 170.05209923 20.24609566 C170.05209923 14.63609566 170.05209923 9.02609566 170.05209923 3.24609566 C168.95618669 1.92502078 168.95618669 1.92502078 166.24286366 2.12304783 C164.9753983 2.12396962 163.70793295 2.12489141 162.40205956 2.12584114 C161.69883412 2.12498672 160.99560869 2.12413229 160.2710734 2.12325197 C157.89719406 2.12159513 155.52338424 2.12712185 153.14951134 2.13257027 C151.45480412 2.13285212 149.76009678 2.13269444 148.06538963 2.13212776 C143.44988297 2.13183972 138.83440205 2.13773757 134.2189014 2.14470172 C129.40089659 2.1509341 124.58289126 2.15153896 119.76488304 2.15272713 C110.63467425 2.15584079 101.50447737 2.16405464 92.37427384 2.17407662 C81.98267247 2.18523668 71.59107054 2.19074793 61.19946468 2.19577205 C39.81700269 2.20623723 18.43455213 2.22403771 -2.94790077 2.24609566 Z " fill="#B7CEE5" transform="translate(177.94790077209473,240.75390434265137)"/>
<path d="M0 0 C5.77207484 0.70391157 10.77595819 2.08485288 15.25 5.9375 C19.95804841 14.17658471 20.77930557 24.79690941 22.1875 34.0625 C22.36474609 35.15626953 22.54199219 36.25003906 22.72460938 37.37695312 C25.39911209 54.73540512 25.39911209 54.73540512 22.5 61.5 C16.17778428 67.82221572 8.22149815 67.38519953 -0.1502533 67.39547729 C-1.78189224 67.3880511 -3.41352981 67.38032001 -5.04516602 67.37231445 C-6.77881081 67.37474478 -8.5124542 67.37846644 -10.24609375 67.38337708 C-14.93816451 67.39275594 -19.63002556 67.3833863 -24.3220799 67.37004495 C-29.23953599 67.35870042 -34.15698221 67.36284023 -39.07444763 67.36479187 C-47.33018404 67.36567381 -55.58583818 67.35461461 -63.84155273 67.33618164 C-73.37895939 67.31500856 -82.91624563 67.31150625 -92.45367104 67.3177436 C-101.63951425 67.32344285 -110.82531516 67.31778541 -120.01115227 67.30657005 C-123.91568727 67.30193223 -127.82019634 67.30104667 -131.72473335 67.3031559 C-136.32371816 67.30504282 -140.92258082 67.29690387 -145.52153778 67.2810955 C-147.20694664 67.27686187 -148.89236791 67.27599589 -150.57777977 67.27878571 C-152.88280179 67.28202167 -155.18746205 67.27289047 -157.4924469 67.26069641 C-158.78086267 67.25864354 -160.06927843 67.25659067 -161.3967371 67.25447559 C-166.1941638 66.91566379 -170.59867038 66.53694217 -173.9375 62.875 C-174.288125 62.25625 -174.63875 61.6375 -175 61 C-174.401875 61.309375 -173.80375 61.61875 -173.1875 61.9375 C-168.94673605 63.99729963 -165.30412538 64.13935694 -160.69184875 64.12025452 C-159.56706872 64.12153615 -159.56706872 64.12153615 -158.41956586 64.12284368 C-155.89988505 64.12449449 -153.38027041 64.11898362 -150.8605957 64.11352539 C-149.05722047 64.11324341 -147.25384513 64.11340147 -145.45046997 64.1139679 C-140.5479014 64.11425543 -135.64535718 64.10836572 -130.74279428 64.10139394 C-125.62184029 64.09515317 -120.50088579 64.09455603 -115.37992859 64.09336853 C-105.67958966 64.09025736 -95.97926196 64.08204683 -86.27892798 64.07201904 C-75.23674838 64.06085128 -64.19456824 64.05534578 -53.1523844 64.05032361 C-30.4349167 64.03986406 -7.71745898 64.02226873 15 64 C15.33 63.01 15.66 62.02 16 61 C16.99 61 17.98 61 19 61 C19 60.34 19 59.68 19 59 C19.66 59 20.32 59 21 59 C21 58.34 21 57.68 21 57 C21.66 57 22.32 57 23 57 C22.69078116 55.54096742 22.37751201 54.08279278 22.0625 52.625 C21.88847656 51.81289063 21.71445313 51.00078125 21.53515625 50.1640625 C21.07669307 47.970537 21.07669307 47.970537 20 46 C19.70828586 44.04205427 19.46500468 42.07679123 19.24609375 40.109375 C19.11396484 38.92472656 18.98183594 37.74007812 18.84570312 36.51953125 C18.64364258 34.65361328 18.64364258 34.65361328 18.4375 32.75 C18.22963867 30.90728516 18.22963867 30.90728516 18.01757812 29.02734375 C17.42637114 23.65114627 16.9191184 18.41448879 17 13 C16.34 13 15.68 13 15 13 C15 12.34 15 11.68 15 11 C14.34 11 13.68 11 13 11 C13 9.68 13 8.36 13 7 C12.34 7 11.68 7 11 7 C11 6.34 11 5.68 11 5 C10.29875 4.896875 9.5975 4.79375 8.875 4.6875 C5.60862353 3.90640997 2.9528148 2.57941257 0 1 C0 0.67 0 0.34 0 0 Z " fill="#D3E7F2" transform="translate(220,453)"/>
<path d="M0 0 C2.8125 2.375 2.8125 2.375 5 5 C6.0725 5.53625 7.145 6.0725 8.25 6.625 C9.1575 7.07875 10.065 7.5325 11 8 C11.97771193 10.9331358 12.13419011 12.88178994 12.125 15.9375 C12.12886719 17.21947266 12.12886719 17.21947266 12.1328125 18.52734375 C12.00930254 20.82680852 11.64420687 22.79640348 11 25 C10.01 25 9.02 25 8 25 C8 25.66 8 26.32 8 27 C7.01 27.33 6.02 27.66 5 28 C4.67 28.66 4.34 29.32 4 30 C3.34 30 2.68 30 2 30 C2 30.66 2 31.32 2 32 C-1.465 32.495 -1.465 32.495 -5 33 C-5 32.01 -5 31.02 -5 30 C-2.76671858 28.00180084 -0.68345751 26.34172876 2 25 C3.24953205 21.63647978 3.10109961 18.30116397 3.0625 14.75 C3.05347656 13.67234375 3.04445312 12.5946875 3.03515625 11.484375 C3.02355469 10.66453125 3.01195312 9.8446875 3 9 C2.030625 8.855625 1.06125 8.71125 0.0625 8.5625 C-3 8 -3 8 -4 7 C-7.88106976 6.62682022 -10.38372722 6.71153189 -13.9375 8.375 C-16.67698578 11.86161827 -16.52078836 14.33446717 -16.46875 18.66015625 C-15.92053653 21.39665518 -15.03278659 22.17806095 -13 24 C-13 24.66 -13 25.32 -13 26 C-13.99 26 -14.98 26 -16 26 C-16.33 25.01 -16.66 24.02 -17 23 C-17.66 22.67 -18.32 22.34 -19 22 C-19.33 23.32 -19.66 24.64 -20 26 C-23.875 24.25 -23.875 24.25 -25 22 C-25.81964597 15.01285401 -25.23514293 7.82195359 -21 2 C-14.90457683 -1.84497937 -6.80231655 -1.8330918 0 0 Z " fill="#2C77B7" transform="translate(135,235)"/>
<path d="M0 0 C4.34302848 1.66741272 8.38828469 3.71383116 12.5 5.87890625 C38.21832054 17.41196562 68.81650307 8.63398056 97 9 C97 86.22 97 163.44 97 243 C96.67 243 96.34 243 96 243 C96 166.11 96 89.22 96 10 C94.68 10.33 93.36 10.66 92 11 C90.10971787 11.09582302 88.21642612 11.13806866 86.32373047 11.14526367 C85.18088593 11.15164352 84.03804138 11.15802338 82.86056519 11.16459656 C81.00759323 11.16626579 81.00759323 11.16626579 79.1171875 11.16796875 C77.19206833 11.17296135 77.19206833 11.17296135 75.22805786 11.17805481 C72.50277876 11.18404415 69.77753131 11.18589548 67.05224609 11.18530273 C64.29241275 11.18522219 61.53274791 11.19204535 58.77294922 11.20581055 C16.07677946 11.41551028 16.07677946 11.41551028 5 5 C4.28585937 4.690625 3.57171875 4.38125 2.8359375 4.0625 C1 3 1 3 0 0 Z " fill="#EAEBF5" transform="translate(295,149)"/>
<path d="M0 0 C0.33 0 0.66 0 1 0 C1 128.04 1 256.08 1 388 C-0.65 388.33 -2.3 388.66 -4 389 C-3.67 388.34 -3.34 387.68 -3 387 C-2.34 387 -1.68 387 -1 387 C-0.67 259.29 -0.34 131.58 0 0 Z " fill="#909497" transform="translate(68,48)"/>
<path d="M0 0 C4.19003752 -0.26625656 6.04230735 -0.08468323 9.5859375 2.3515625 C11.90271176 5.7543247 12.34632474 8.2156455 12.5859375 12.2890625 C13.5759375 12.2890625 14.5659375 12.2890625 15.5859375 12.2890625 C15.6131305 13.87229938 15.63242056 15.45567312 15.6484375 17.0390625 C15.66003906 17.92078125 15.67164063 18.8025 15.68359375 19.7109375 C15.59419948 22.0709463 15.25506571 24.03404774 14.5859375 26.2890625 C12.2759375 26.9490625 9.9659375 27.6090625 7.5859375 28.2890625 C7.2559375 29.6090625 6.9259375 30.9290625 6.5859375 32.2890625 C4.9359375 31.9590625 3.2859375 31.6290625 1.5859375 31.2890625 C2.5859375 28.2890625 2.5859375 28.2890625 5.5859375 26.2890625 C6.3930957 22.95056195 6.3930957 22.95056195 6.7734375 19.1640625 C6.93199219 17.88273437 7.09054688 16.60140625 7.25390625 15.28125 C7.41826172 13.80011719 7.41826172 13.80011719 7.5859375 12.2890625 C6.9259375 12.2890625 6.2659375 12.2890625 5.5859375 12.2890625 C5.2559375 11.6290625 4.9259375 10.9690625 4.5859375 10.2890625 C1.95121272 9.40645477 1.95121272 9.40645477 -1.1640625 8.7265625 C-2.21078125 8.47777344 -3.2575 8.22898438 -4.3359375 7.97265625 C-7.02300002 7.37591013 -9.71224939 6.81441505 -12.4140625 6.2890625 C-12.4140625 6.9490625 -12.4140625 7.6090625 -12.4140625 8.2890625 C-13.0740625 7.9590625 -13.7340625 7.6290625 -14.4140625 7.2890625 C-13.4765625 4.9140625 -13.4765625 4.9140625 -11.4140625 2.2890625 C-7.74049327 0.77552156 -3.91489551 0.4687739 0 0 Z " fill="#3479B3" transform="translate(131.4140625,149.7109375)"/>
<path d="M0 0 C0.433125 0.61875 0.86625 1.2375 1.3125 1.875 C0.3225 1.545 -0.6675 1.215 -1.6875 0.875 C-7.51440691 0.3718735 -14.28354372 0.4529308 -19.6875 2.875 C-20.97252523 4.87022186 -20.97252523 4.87022186 -21.6875 6.875 C-21.3575 6.545 -21.0275 6.215 -20.6875 5.875 C-20.0275 5.875 -19.3675 5.875 -18.6875 5.875 C-18.6875 8.875 -18.6875 8.875 -20 10.26171875 C-21.5625 11.46614583 -23.125 12.67057292 -24.6875 13.875 C-24.3575 12.555 -24.0275 11.235 -23.6875 9.875 C-25.91626774 11.17398394 -25.91626774 11.17398394 -27.6875 13.875 C-28.33184163 19.31424748 -27.8771795 24.54562273 -26.6875 29.875 C-24.2125 29.38 -24.2125 29.38 -21.6875 28.875 C-21.3575 30.855 -21.0275 32.835 -20.6875 34.875 C-19.6975 34.875 -18.7075 34.875 -17.6875 34.875 C-17.6875 35.535 -17.6875 36.195 -17.6875 36.875 C-11.28986132 36.54487274 -6.36551077 36.07798043 -0.6875 32.875 C0.3025 33.37 0.3025 33.37 1.3125 33.875 C-1.37037823 37.34696006 -4.51039183 37.9699599 -8.6875 38.875 C-16.0521095 39.69328994 -21.76864175 37.14522309 -27.5 32.6875 C-31.62469292 27.38432339 -34.13000121 22.53078175 -33.625 15.6875 C-32.45049894 8.36945491 -29.53440927 4.0232156 -23.8515625 -0.63671875 C-16.79437603 -5.49012677 -6.79007114 -5.36889346 0 0 Z " fill="#2F75B4" transform="translate(139.6875,150.125)"/>
<path d="M0 0 C0.33 0 0.66 0 1 0 C1 32.01 1 64.02 1 97 C-43.22 97 -87.44 97 -133 97 C-132.01 100.465 -132.01 100.465 -131 104 C-130.77294922 106.44702148 -130.77294922 106.44702148 -130.8046875 108.62109375 C-130.80968262 109.33450928 -130.81467773 110.0479248 -130.81982422 110.78295898 C-130.83803223 111.65895752 -130.85624023 112.53495605 -130.875 113.4375 C-130.91625 116.263125 -130.9575 119.08875 -131 122 C-121.43 122 -111.86 122 -102 122 C-102 122.33 -102 122.66 -102 123 C-109.61245558 123.66608986 -117.17263481 124.10422067 -124.8125 124.125 C-125.86147461 124.13176758 -125.86147461 124.13176758 -126.93164062 124.13867188 C-131.87608767 124.12391233 -131.87608767 124.12391233 -133 123 C-133.04893508 121.47995415 -133.03625398 119.95790116 -133 118.4375 C-133 110.95090898 -133.53299928 103.47201147 -134 96 C-89.78 96 -45.56 96 0 96 C0 64.32 0 32.64 0 0 Z " fill="#D1D5DD" transform="translate(391,394)"/>
<path d="M0 0 C4.03480636 3.25026068 7.5967585 6.85277549 9.25 11.8125 C10.15692834 23.78098052 10.15692834 23.78098052 7.6875 29.3125 C1.96497254 35.18175893 -2.65896277 39.76905103 -11.1875 40.125 C-15.33138489 40.04877469 -18.18524708 39.00619411 -21.75 36.8125 C-19.75 35.8125 -19.75 35.8125 -17.5625 36.25 C-11.67906651 37.4266867 -6.27808843 37.18168076 -0.75 34.8125 C3.00543527 31.41615018 6.51384352 27.97491378 7.25 22.8125 C7.31790675 20.56342848 7.33499984 18.31248395 7.3125 16.0625 C7.30347656 14.89203125 7.29445312 13.7215625 7.28515625 12.515625 C7.27355469 11.62359375 7.26195312 10.7315625 7.25 9.8125 C6.30511719 9.53535156 5.36023438 9.25820312 4.38671875 8.97265625 C1.25 7.8125 1.25 7.8125 -0.9375 5.25 C-5.12246342 1.62303171 -9.33980538 1.63746429 -14.75 1.8125 C-18.08499305 2.64419965 -18.08499305 2.64419965 -20.75 3.8125 C-22.07 3.8125 -23.39 3.8125 -24.75 3.8125 C-27.09089484 10.361432 -28.96884827 16.82015995 -27.75 23.8125 C-25.89579161 26.25348818 -25.89579161 26.25348818 -23.75 27.8125 C-23.75 28.8025 -23.75 29.7925 -23.75 30.8125 C-23.09 31.1425 -22.43 31.4725 -21.75 31.8125 C-22.41 32.4725 -23.07 33.1325 -23.75 33.8125 C-28.44625511 31.30783061 -30.73945651 29.22349643 -32.34375 24.0859375 C-33.49239663 17.65793423 -32.27914902 11.25132705 -29.109375 5.56640625 C-21.83881221 -3.81429114 -10.17806601 -4.39507396 0 0 Z " fill="#5A8AB3" transform="translate(138.75,233.1875)"/>
<path d="M0 0 C69.3 0 138.6 0 210 0 C210.33 22.11 210.66 44.22 211 67 C211.99 73.93 212.98 80.86 214 88 C196.57128806 64.76171741 209 30.04785324 209 1 C140.03 1 71.06 1 0 1 C0 0.67 0 0.34 0 0 Z " fill="#7F858B" transform="translate(69,47)"/>
<path d="M0 0 C-2.76941606 0.83830973 -5.54035069 1.67082034 -8.3125 2.5 C-9.49102539 2.85771484 -9.49102539 2.85771484 -10.69335938 3.22265625 C-11.45068359 3.44824219 -12.20800781 3.67382812 -12.98828125 3.90625 C-14.03302612 4.22045898 -14.03302612 4.22045898 -15.09887695 4.54101562 C-17 5 -17 5 -20 5 C-20 5.66 -20 6.32 -20 7 C-26.13104736 11.31960155 -31.59762973 11.75690081 -39 12 C-39 12.66 -39 13.32 -39 14 C-39.804375 14.28875 -40.60875 14.5775 -41.4375 14.875 C-44.1326468 15.73262568 -44.1326468 15.73262568 -45 18 C-45.30084108 19.9748281 -45.56501147 21.95527882 -45.8125 23.9375 C-47.05616879 33.06090235 -49.02587195 42.01100915 -51 51 C-51.99 51 -52.98 51 -54 51 C-53.67 56.94 -53.34 62.88 -53 69 C-53.66 69 -54.32 69 -55 69 C-58.1363439 59.5909683 -55.22716029 48.59184139 -53.60131836 39.06396484 C-53.18516188 36.61121957 -52.79009345 34.15567164 -52.39648438 31.69921875 C-52.13406633 30.1247905 -51.87043762 28.55056346 -51.60546875 26.9765625 C-51.48970993 26.24942047 -51.37395111 25.52227844 -51.25468445 24.77310181 C-50.29117187 19.26945452 -48.73518387 15.64186306 -44.67578125 11.80078125 C-41.80298842 9.86741265 -39.53456637 9.04215971 -36.1875 8.1875 C-34.97707031 7.8678125 -33.76664063 7.548125 -32.51953125 7.21875 C-31.82424316 7.03570312 -31.12895508 6.85265625 -30.41259766 6.6640625 C-27.55468863 5.87742897 -24.7223341 5.01977431 -21.88671875 4.15625 C-20.81462158 3.83245361 -19.74252441 3.50865723 -18.63793945 3.17504883 C-16.48213755 2.52258203 -14.32827215 1.86367831 -12.17651367 1.19799805 C-11.17724854 0.89933838 -10.1779834 0.60067871 -9.1484375 0.29296875 C-8.25302246 0.0199292 -7.35760742 -0.25311035 -6.43505859 -0.53442383 C-3.8868452 -1.02163487 -2.42675376 -0.83986721 0 0 Z " fill="#769FC3" transform="translate(98,445)"/>
<path d="M0 0 C5.77207484 0.70391157 10.77595819 2.08485288 15.25 5.9375 C19.95804841 14.17658471 20.77930557 24.79690941 22.1875 34.0625 C22.36474609 35.15626953 22.54199219 36.25003906 22.72460938 37.37695312 C25.44795087 55.05238574 25.44795087 55.05238574 22.25 61.5625 C19.6864775 64.33964937 17.73615228 65.79197934 13.94607162 66.24609566 C12.8454508 66.24333028 12.8454508 66.24333028 11.72259521 66.24050903 C10.87568115 66.24325836 10.02876709 66.24600769 9.15618896 66.24884033 C8.23549622 66.24164978 7.31480347 66.23445923 6.36621094 66.22705078 C5.39026978 66.22734283 4.41432861 66.22763489 3.40881348 66.22793579 C0.18391012 66.22654277 -3.04076202 66.2109827 -6.265625 66.1953125 C-8.5019315 66.19158228 -10.73823963 66.18873535 -12.97454834 66.18673706 C-18.86003126 66.17910137 -24.74541546 66.15945333 -30.63085938 66.1373291 C-36.63670516 66.11686936 -42.64256691 66.10773506 -48.6484375 66.09765625 C-60.43233504 66.07620746 -72.21615931 66.0420722 -84 66 C-84 65.67 -84 65.34 -84 65 C-34.995 64.505 -34.995 64.505 15 64 C15.33 63.01 15.66 62.02 16 61 C16.99 61 17.98 61 19 61 C19 60.34 19 59.68 19 59 C19.66 59 20.32 59 21 59 C21 58.34 21 57.68 21 57 C21.66 57 22.32 57 23 57 C22.69078116 55.54096742 22.37751201 54.08279278 22.0625 52.625 C21.80146484 51.40683594 21.80146484 51.40683594 21.53515625 50.1640625 C21.07669307 47.970537 21.07669307 47.970537 20 46 C19.70828586 44.04205427 19.46500468 42.07679123 19.24609375 40.109375 C19.11396484 38.92472656 18.98183594 37.74007812 18.84570312 36.51953125 C18.64364258 34.65361328 18.64364258 34.65361328 18.4375 32.75 C18.29892578 31.52152344 18.16035156 30.29304688 18.01757812 29.02734375 C17.42637114 23.65114627 16.9191184 18.41448879 17 13 C16.34 13 15.68 13 15 13 C15 12.34 15 11.68 15 11 C14.34 11 13.68 11 13 11 C13 9.68 13 8.36 13 7 C12.34 7 11.68 7 11 7 C11 6.34 11 5.68 11 5 C10.29875 4.896875 9.5975 4.79375 8.875 4.6875 C5.60862353 3.90640997 2.9528148 2.57941257 0 1 C0 0.67 0 0.34 0 0 Z " fill="#9EBED8" transform="translate(220,453)"/>
<path d="M0 0 C0.33 0 0.66 0 1 0 C1.10957031 1.03640625 1.21914063 2.0728125 1.33203125 3.140625 C1.49153639 4.51049264 1.65172884 5.88028037 1.8125 7.25 C1.88275391 7.93191406 1.95300781 8.61382812 2.02539062 9.31640625 C2.51025348 13.31167615 2.9580655 16.23833363 6 19 C10.11400684 20.12972572 14.1993712 20.1521778 18.43476868 20.15821838 C19.543736 20.16562535 19.543736 20.16562535 20.6751067 20.17318195 C23.14709042 20.18851382 25.61904825 20.19690585 28.09106445 20.20532227 C29.86518073 20.21490418 31.63929474 20.22491445 33.41340637 20.23532104 C38.22699184 20.2623422 43.04058708 20.28336688 47.85420632 20.30332303 C52.88574773 20.32519977 57.91725909 20.35258021 62.94877625 20.37937927 C72.47548849 20.42928331 82.00221744 20.47423064 91.52896231 20.51740164 C102.37532463 20.56679356 113.22165679 20.62170445 124.06798995 20.67708123 C146.37863183 20.79086614 168.68930264 20.8977128 191 21 C191 21.33 191 21.66 191 22 C167.26069772 22.09344797 143.52142301 22.16398155 119.78197384 22.20724869 C108.75929045 22.22787249 97.73672136 22.25598974 86.71411133 22.30175781 C77.10662353 22.341631 67.4992185 22.36743413 57.89165026 22.37635398 C52.80465069 22.38156788 47.71788794 22.39381886 42.63096428 22.42292023 C37.8416274 22.45009683 33.05262459 22.45844041 28.26321793 22.45243073 C26.50683972 22.45352995 24.75045018 22.46147048 22.99413872 22.4768219 C20.5920744 22.49678545 18.19126391 22.49191672 15.78916931 22.48101807 C14.75168884 22.49849512 14.75168884 22.49849512 13.69324917 22.51632524 C8.34532132 22.45093989 5.3145603 20.93877723 1 18 C-0.59412284 14.81175432 -0.10174735 11.37103338 -0.0625 7.875 C-0.05798828 7.12089844 -0.05347656 6.36679687 -0.04882812 5.58984375 C-0.03703499 3.72652873 -0.01909942 1.86325445 0 0 Z " fill="#5183AE" transform="translate(44,496)"/>
<path d="M0 0 C0.33 0 0.66 0 1 0 C1.19646917 3.73291432 0.82384546 6.94476921 -0.0390625 10.55078125 C-1.18386989 16.09939598 -0.96092894 21.19644476 -0.5 26.8125 C0.40493536 38.07656379 0.40493536 38.07656379 -2 42 C-5 44 -5 44 -8 44 C-7.60474094 57.8933561 -5.23324087 65.08477808 4.171875 75.32421875 C6.33411773 78.48903984 6.37379504 80.24555865 6 84 C4 82 4 82 2.3125 78.4375 C0.70366899 75.08677678 -1.18779533 72.41815752 -3.5625 69.5625 C-8.75854015 63.05072436 -10.56467453 56.67362146 -10.29296875 48.3671875 C-9.84210893 44.72424013 -8.80304694 42.20541679 -7 39 C-6.01 38.34 -5.02 37.68 -4 37 C-4.0721875 36.20078125 -4.144375 35.4015625 -4.21875 34.578125 C-4.51658288 31.05376921 -4.76949348 27.52939497 -5 24 C-5.06832031 22.96101563 -5.13664062 21.92203125 -5.20703125 20.8515625 C-5.46653245 13.52786198 -4.10541403 7.64733203 -1 1 C-0.67 0.67 -0.34 0.34 0 0 Z " fill="#86ABCB" transform="translate(103,320)"/>
<path d="M0 0 C10.05771329 3.51192548 21.32279965 12.50716548 26.08300781 22.20678711 C27.18172654 25.55354989 27.22633166 28.31135638 27.1953125 31.83203125 C27.18886719 33.12431641 27.18242187 34.41660156 27.17578125 35.74804688 C27.15907327 37.1028673 27.14214342 38.45768501 27.125 39.8125 C27.11496003 41.18684251 27.10583596 42.56119203 27.09765625 43.93554688 C27.07411242 47.29054317 27.04122567 50.64518199 27 54 C27.63462158 54.28262695 28.26924316 54.56525391 28.9230957 54.85644531 C31 56 31 56 32.23046875 58.296875 C34.3385233 65.70181788 33.6271581 74.16524314 30 81 C28.71153926 82.37674416 27.38522944 83.7206662 26 85 C26.47474775 82.85318469 26.95491749 80.70756772 27.4375 78.5625 C27.70433594 77.36753906 27.97117188 76.17257812 28.24609375 74.94140625 C29 72 29 72 30 71 C30.15135944 69.2127943 30.22175778 67.41838124 30.25 65.625 C30.27578125 64.64789063 30.3015625 63.67078125 30.328125 62.6640625 C29.95079276 59.60048411 29.27292886 58.94993371 27 57 C27 56.34 27 55.68 27 55 C26.34 55 25.68 55 25 55 C25.01571045 54.13721436 25.0314209 53.27442871 25.04760742 52.38549805 C25.09875955 49.18190733 25.1363616 45.97852485 25.16479492 42.7746582 C25.17987397 41.38852081 25.2003405 40.00243106 25.22631836 38.61645508 C25.26273716 36.62341854 25.27813018 34.63003277 25.29296875 32.63671875 C25.3086792 31.43748779 25.32438965 30.23825684 25.34057617 29.00268555 C25.25863038 26.0348168 25.25863038 26.0348168 23.66918945 24.21020508 C22.14004781 23.10153825 20.57154375 22.04769583 19 21 C18.84144531 20.34773438 18.68289062 19.69546875 18.51953125 19.0234375 C17.84975552 16.41483728 16.95376253 15.99349257 14.6875 14.625 C11.92706175 12.80523848 10.88122384 11.81812401 9 8.9375 C6.43238128 5.16631 4.0424963 4.02124815 0 2 C0 1.34 0 0.68 0 0 Z " fill="#B2CDE3" transform="translate(160,304)"/>
<path d="M0 0 C-0.33 1.32 -0.66 2.64 -1 4 C-2.65 4 -4.3 4 -6 4 C-6 4.66 -6 5.32 -6 6 C-7.65 6.33 -9.3 6.66 -11 7 C-12.38944965 11.16834896 -12.35152111 15.36857844 -12.51757812 19.7265625 C-12.60881644 21.48935555 -12.79703561 23.24655504 -13 25 C-13.66 25.33 -14.32 25.66 -15 26 C-17.49508862 24.28462657 -18.83295753 22.88018534 -19.40625 19.859375 C-19.64408505 13.55674609 -18.82331809 7.17558581 -15 2 C-10.00786489 -0.86226971 -5.54144794 -1.39775342 0 0 Z " fill="#2A77BA" transform="translate(129,235)"/>
<path d="M0 0 C3.875 1.875 3.875 1.875 5 3 C5.04063832 4.66617115 5.042721 6.33388095 5 8 C3.02 8.99 3.02 8.99 1 10 C0.76295462 22.21964588 0.76295462 22.21964588 4 33 C6.64 28.38 9.28 23.76 12 19 C12.66 19.66 13.32 20.32 14 21 C13.87818435 26.48170409 11.78359048 28.30649501 8 32 C6.77751762 34.2915552 5.91004373 36.55725105 5 39 C0.125 38.125 0.125 38.125 -1 37 C-1.91322504 28.36382246 -2.16238948 19.6788158 -2 11 C-0.68 10.34 0.64 9.68 2 9 C2 8.34 2 7.68 2 7 C2.66 7 3.32 7 4 7 C3.2884375 5.824375 3.2884375 5.824375 2.5625 4.625 C1.66101977 3.11051322 0.78820515 1.5764103 0 0 Z " fill="#4E81AD" transform="translate(150,442)"/>
<path d="M0 0 C4.34302848 1.66741272 8.38828469 3.71383116 12.5 5.87890625 C17.41916358 8.08484367 22.31748248 8.16171953 27.63598633 8.20532227 C28.38774139 8.21522186 29.13949646 8.22512146 29.91403198 8.23532104 C32.38666691 8.26678432 34.85932101 8.29163314 37.33203125 8.31640625 C39.05124904 8.3369889 40.77046191 8.35798571 42.4896698 8.37937927 C47.00560518 8.4344646 51.52158521 8.48393337 56.03759766 8.53222656 C60.64945428 8.58254068 65.26124641 8.63817493 69.87304688 8.69335938 C78.91530943 8.80077526 87.95762808 8.90225676 97 9 C97 9.33 97 9.66 97 10 C93.34403233 10.839418 89.95814306 11.13098441 86.21020508 11.14526367 C85.06743607 11.15164352 83.92466705 11.15802338 82.74726868 11.16459656 C80.90203865 11.16626579 80.90203865 11.16626579 79.01953125 11.16796875 C77.73753342 11.17129715 76.45553558 11.17462555 75.13468933 11.17805481 C72.41538657 11.18403769 69.69611551 11.18589608 66.97680664 11.18530273 C64.22380916 11.18522213 61.47098038 11.19205685 58.71801758 11.20581055 C16.07686799 11.41556155 16.07686799 11.41556155 5 5 C4.28585937 4.690625 3.57171875 4.38125 2.8359375 4.0625 C1 3 1 3 0 0 Z " fill="#C6CACE" transform="translate(295,149)"/>
<path d="M0 0 C0.99 0.33 1.98 0.66 3 1 C3 2.32 3 3.64 3 5 C3.99 5 4.98 5 6 5 C6.33 6.98 6.66 8.96 7 11 C7.66 11 8.32 11 9 11 C9 14.96 9 18.92 9 23 C8.030625 23.2475 7.06125 23.495 6.0625 23.75 C5.051875 24.1625 4.04125 24.575 3 25 C2.03122943 27.03243548 2.03122943 27.03243548 2 29 C0.35 28.67 -1.3 28.34 -3 28 C-2 25 -2 25 1 23 C1.8071582 19.66149945 1.8071582 19.66149945 2.1875 15.875 C2.34605469 14.59367188 2.50460938 13.31234375 2.66796875 11.9921875 C2.77753906 11.00476563 2.88710937 10.01734375 3 9 C2.34 9 1.68 9 1 9 C0.63877119 7.68942607 0.28619689 6.37646376 -0.0625 5.0625 C-0.35833984 3.96615234 -0.35833984 3.96615234 -0.66015625 2.84765625 C-0.77230469 2.23792969 -0.88445312 1.62820312 -1 1 C-0.67 0.67 -0.34 0.34 0 0 Z " fill="#2977BB" transform="translate(136,153)"/>
<path d="M0 0 C0.70125 0.61875 1.4025 1.2375 2.125 1.875 C5.09585257 4.07084755 7.50393563 4.90747988 11 6 C12.67016516 6.99414593 14.33720673 7.9935725 16 9 C19.52284914 10.13177506 23.07350915 10.30514564 26.75 10.5625 C27.92046875 10.64628906 29.0909375 10.73007812 30.296875 10.81640625 C31.18890625 10.87699219 32.0809375 10.93757813 33 11 C33 10.34 33 9.68 33 9 C33.99 9 34.98 9 36 9 C36 8.34 36 7.68 36 7 C36.67546875 6.96261719 37.3509375 6.92523438 38.046875 6.88671875 C38.93890625 6.82097656 39.8309375 6.75523437 40.75 6.6875 C41.63171875 6.62949219 42.5134375 6.57148438 43.421875 6.51171875 C46.32303774 5.9358819 47.79225607 4.92403852 50 3 C50.66 3.33 51.32 3.66 52 4 C44.50688931 10.97634443 34.57343381 14.37849228 24.453125 14.2109375 C16.38114973 13.51685045 8.22743294 10.19751134 2 5 C0.71875 2.3046875 0.71875 2.3046875 0 0 Z " fill="#B1CBE1" transform="translate(116,414)"/>
<path d="M0 0 C-2.76941606 0.83830973 -5.54035069 1.67082034 -8.3125 2.5 C-9.49102539 2.85771484 -9.49102539 2.85771484 -10.69335938 3.22265625 C-11.45068359 3.44824219 -12.20800781 3.67382812 -12.98828125 3.90625 C-14.03302612 4.22045898 -14.03302612 4.22045898 -15.09887695 4.54101562 C-17 5 -17 5 -20 5 C-20 5.66 -20 6.32 -20 7 C-26.13104736 11.31960155 -31.59762973 11.75690081 -39 12 C-39 12.66 -39 13.32 -39 14 C-39.763125 13.938125 -40.52625 13.87625 -41.3125 13.8125 C-43.97722324 13.75050385 -43.97722324 13.75050385 -45.5949707 15.2199707 C-47.30047519 17.38067152 -47.66948514 18.96928163 -48.16796875 21.66796875 C-48.42416992 23.00698242 -48.42416992 23.00698242 -48.68554688 24.37304688 C-48.85119141 25.30181641 -49.01683594 26.23058594 -49.1875 27.1875 C-49.36474609 28.12787109 -49.54199219 29.06824219 -49.72460938 30.03710938 C-50.16020076 32.3563392 -50.58487885 34.67703408 -51 37 C-51.33 37 -51.66 37 -52 37 C-51.26192756 18.87904899 -51.26192756 18.87904899 -45.6875 12.25 C-41.18803753 8.97569237 -35.70089463 8.00878599 -30.39648438 6.64794922 C-27.5423986 5.87627607 -24.71885929 5.02173468 -21.890625 4.16015625 C-20.81796387 3.8357959 -19.74530273 3.51143555 -18.64013672 3.17724609 C-16.48364281 2.52355787 -14.32896693 1.86383811 -12.17626953 1.19775391 C-10.67749268 0.74988525 -10.67749268 0.74988525 -9.1484375 0.29296875 C-8.25302246 0.0199292 -7.35760742 -0.25311035 -6.43505859 -0.53442383 C-3.8868452 -1.02163487 -2.42675376 -0.83986721 0 0 Z " fill="#9EBDD7" transform="translate(98,445)"/>
<path d="M0 0 C0.99 0.33 1.98 0.66 3 1 C3 3.64 3 6.28 3 9 C3.66 8.67 4.32 8.34 5 8 C5 11.3 5 14.6 5 18 C4.34 18 3.68 18 3 18 C3 18.66 3 19.32 3 20 C2.01 20.33 1.02 20.66 0 21 C-0.33 21.66 -0.66 22.32 -1 23 C-1.66 23 -2.32 23 -3 23 C-3 23.66 -3 24.32 -3 25 C-5.31 25.33 -7.62 25.66 -10 26 C-10 25.01 -10 24.02 -10 23 C-7.76671858 21.00180084 -5.68345751 19.34172876 -3 18 C-1.75046795 14.63647978 -1.89890039 11.30116397 -1.9375 7.75 C-1.95103516 6.13351563 -1.95103516 6.13351563 -1.96484375 4.484375 C-1.97644531 3.66453125 -1.98804688 2.8446875 -2 2 C-1.34 2 -0.68 2 0 2 C0 1.34 0 0.68 0 0 Z " fill="#2977BB" transform="translate(140,242)"/>
<path d="M0 0 C2.60167101 0.77067392 4.57555767 1.69080114 7 3 C7.91836795 5.75510385 8.16316691 7.52316188 8.1875 10.375 C8.20167969 11.12523437 8.21585938 11.87546875 8.23046875 12.6484375 C7.96297965 15.37773303 7.11434266 17.50704369 6 20 C-5.62123174 21.71851304 -5.62123174 21.71851304 -8.94140625 19.98828125 C-10.25 18.625 -10.25 18.625 -12 16 C-12.33 15.67 -12.66 15.34 -13 15 C-13.58527703 10.99937219 -14.09572906 6.7766464 -11.90625 3.2265625 C-8.1454082 -0.23421214 -4.89974427 -0.68768341 0 0 Z M-9.9375 4.0625 C-12.52001338 7.74062512 -12.72125695 9.59231863 -12 14 C-9.78471076 17.36723965 -8.38573114 17.91202623 -4.4375 18.8125 C-1.01806042 19.21014678 -1.01806042 19.21014678 2 18 C4.09689858 14.7797629 5.01483518 12.74175917 4.9375 8.875 C3.82340322 5.45843653 2.97270015 4.03395273 0 2 C-4.40768137 1.27874305 -6.25937488 1.47998662 -9.9375 4.0625 Z " fill="#5185B3" transform="translate(131,241)"/>
<path d="M0 0 C1.86453747 0.55223821 3.72912095 1.1043211 5.59375 1.65625 C6.50125 1.92824219 7.40875 2.20023437 8.34375 2.48046875 C12.95208759 3.84770144 17.58955674 5.11020477 22.22265625 6.390625 C24.62920147 7.1524091 26.72794682 8.04189898 28.9375 9.25 C18.8713603 8.6041636 9.46865092 6.210229 -0.046875 2.94140625 C-5.7310907 0.99158807 -11.1125033 -0.12368456 -17.0625 -0.75 C-17.7225 1.23 -18.3825 3.21 -19.0625 5.25 C-18.4025 5.25 -17.7425 5.25 -17.0625 5.25 C-17.0625 7.25 -17.0625 7.25 -18.9375 9.375 C-21.0625 11.25 -21.0625 11.25 -23.0625 11.25 C-23.330625 11.86875 -23.59875 12.4875 -23.875 13.125 C-25.0625 15.25 -25.0625 15.25 -28.0625 17.25 C-26.67485767 12.67771852 -24.8297178 8.6404991 -22.5625 4.4375 C-21.9540625 3.29667969 -21.345625 2.15585937 -20.71875 0.98046875 C-16.3206297 -6.27020599 -6.58830028 -2.0072933 0 0 Z " fill="#9FBCD6" transform="translate(191.0625,443.75)"/>
<path d="M0 0 C2.26953125 1.03125 2.26953125 1.03125 4 2 C4 2.66 4 3.32 4 4 C4.66 4 5.32 4 6 4 C6.3690205 14.55808656 6.3690205 14.55808656 4 19 C3.34 18.67 2.68 18.34 2 18 C1.278125 18.33 0.55625 18.66 -0.1875 19 C-3.93791238 20.33347996 -6.16913852 20.02612361 -10 19 C-12.875 16.5 -12.875 16.5 -15 14 C-15.33 13.67 -15.66 13.34 -16 13 C-16.53432305 9.59369056 -16.7821617 7.12788208 -14.75390625 4.203125 C-10.29272912 -0.12411379 -6.0855559 -1.16986657 0 0 Z M-14 6 C-14.87544465 9.11337711 -14.58255037 10.66357515 -14 14 C-11.61796489 16.65426769 -9.78991577 17.73027266 -6.4375 18.875 C-3.48476869 19.02642212 -2.35155888 18.80286181 0 17 C2.53078289 13.37254452 3.11107324 11.72814677 2.4375 7.3125 C0.96401077 3.91706829 0.2914902 2.59872381 -3 1 C-7.74241958 0.00159588 -11.24356261 2.19392586 -14 6 Z " fill="#93B7D4" transform="translate(133,158)"/>
<path d="M0 0 C1.68359375 1.55078125 1.68359375 1.55078125 3 3 C2.32453125 3.04898437 1.6490625 3.09796875 0.953125 3.1484375 C0.06109375 3.22320312 -0.8309375 3.29796875 -1.75 3.375 C-3.07257813 3.47941406 -3.07257813 3.47941406 -4.421875 3.5859375 C-6.99066382 3.99850055 -8.75841015 4.71160957 -11 6 C-11 5.34 -11 4.68 -11 4 C-11.66 4.66 -12.32 5.32 -13 6 C-12.67028521 9.29714793 -12.3773161 10.6226839 -10 13 C-8.96256852 21.95547472 -10.64721002 31.15855121 -12 40 C-15.4542145 39.39642147 -15.92420375 39.09218462 -18.3125 36.1875 C-20 33 -20 33 -19.75 30.625 C-19.5025 30.08875 -19.255 29.5525 -19 29 C-17.02 31.97 -17.02 31.97 -15 35 C-12.62602784 28.35287796 -10.86504516 21.09346773 -12 14 C-12.96639254 12.96748586 -13.96595449 11.9647538 -15 11 C-15.5 8.0625 -15.5 8.0625 -15 5 C-12.75 2.75 -12.75 2.75 -10 1 C-9.360625 0.566875 -8.72125 0.13375 -8.0625 -0.3125 C-5.06653721 -1.31115426 -3.01087316 -0.8327947 0 0 Z " fill="#BDD5E7" transform="translate(147,439)"/>
<path d="M0 0 C0.33 0 0.66 0 1 0 C1.00586624 0.76769211 1.01173248 1.53538422 1.01777649 2.32633972 C1.0763735 9.6633553 1.14881193 17.00005672 1.23571491 24.33678722 C1.27990293 28.10609373 1.31926184 31.87530479 1.34643555 35.64477539 C1.47245513 52.63510681 1.88754893 69.23315756 5 86 C-1.87911841 77.62276574 -0.26629487 65.5384145 -0.1953125 55.2734375 C-0.19157503 53.6734739 -0.18873153 52.07350798 -0.18673706 50.47354126 C-0.17915834 46.29459132 -0.15956046 42.11578389 -0.1373291 37.93688965 C-0.11674545 33.65976895 -0.10770876 29.38262487 -0.09765625 25.10546875 C-0.07630821 16.7369143 -0.04224325 8.36847496 0 0 Z " fill="#A3A5AB" transform="translate(278,49)"/>
<path d="M0 0 C5.77207484 0.70391157 10.77595819 2.08485288 15.25 5.9375 C20.65770684 15.40098698 22.49233373 29.16865783 22 40 C21.67 40 21.34 40 21 40 C19.35043206 35.5087394 18.48221244 31.24204 17.875 26.5 C17.70742187 25.2315625 17.53984375 23.963125 17.3671875 22.65625 C17.04042851 19.40256477 16.92943458 16.26617084 17 13 C16.34 13 15.68 13 15 13 C15 12.34 15 11.68 15 11 C14.34 11 13.68 11 13 11 C13 9.68 13 8.36 13 7 C12.34 7 11.68 7 11 7 C11 6.34 11 5.68 11 5 C9.948125 4.8453125 9.948125 4.8453125 8.875 4.6875 C5.60862353 3.90640997 2.9528148 2.57941257 0 1 C0 0.67 0 0.34 0 0 Z " fill="#8AAFCD" transform="translate(220,453)"/>
<path d="M0 0 C0.33 0 0.66 0 1 0 C1 25.41 1 50.82 1 77 C-1.475 77.495 -1.475 77.495 -4 78 C-3.505 77.01 -3.505 77.01 -3 76 C-2.34 76 -1.68 76 -1 76 C-0.505 38.38 -0.505 38.38 0 0 Z " fill="#919598" transform="translate(68,359)"/>
<path d="M0 0 C0.66 0.33 1.32 0.66 2 1 C1.67 1.33 1.34 1.66 1 2 C0.84818743 3.76628086 0.77817328 5.53993085 0.75 7.3125 C0.72421875 8.27800781 0.6984375 9.24351562 0.671875 10.23828125 C1.04885708 13.41121376 2.027481 14.56396478 4 17 C4.1875 20.25 4.1875 20.25 4 23 C3.34 22.34 2.68 21.68 2 21 C0.68 21 -0.64 21 -2 21 C-4.41529114 15.66703716 -4.74569922 10.78350444 -4 5 C-2 1.8125 -2 1.8125 0 0 Z " fill="#2A77BD" transform="translate(115,159)"/>
<path d="M0 0 C4.1851472 3.78656175 6.32484438 8.33868515 8.7265625 13.39453125 C10.37292344 16.76300594 12.25993591 19.96875482 14.1796875 23.1875 C14.45039062 23.785625 14.72109375 24.38375 15 25 C14.67 25.66 14.34 26.32 14 27 C13.60167969 26.38511719 13.20335938 25.77023437 12.79296875 25.13671875 C12.26316406 24.32847656 11.73335937 23.52023437 11.1875 22.6875 C10.66542969 21.88699219 10.14335938 21.08648437 9.60546875 20.26171875 C8.10461347 18.00540468 8.10461347 18.00540468 6.328125 16.36328125 C5 15 5 15 4.5625 12.5 C4.25020325 9.84974593 4.25020325 9.84974593 2 8.5 C0 7 0 7 -1 2 C-6.94 2.495 -6.94 2.495 -13 3 C-8.58616924 0.05744616 -5.26854406 -0.63585877 0 0 Z " fill="#9FC0D7" transform="translate(112,441)"/>
<path d="M0 0 C0.66 0.33 1.32 0.66 2 1 C1.51402344 1.68578125 1.02804688 2.3715625 0.52734375 3.078125 C-2.51140533 8.89138412 -1.87065004 16.24459617 -0.4140625 22.52734375 C1.8847059 28.35862323 5.97192441 32.75169189 10.171875 37.32421875 C12.33411773 40.48903984 12.37379504 42.24555865 12 46 C10 44 10 44 8.3125 40.4375 C6.70366899 37.08677678 4.81220467 34.41815752 2.4375 31.5625 C-2.76324008 25.04483432 -4.54708465 18.6805927 -4.30078125 10.37109375 C-3.83023921 6.66175582 -2.71688123 2.71688123 0 0 Z " fill="#C7D8E8" transform="translate(97,358)"/>
<path d="M0 0 C8.57151661 2.95678004 17.34249157 9.92811446 23 17 C23.375 20.375 23.375 20.375 23 23 C21.0625 22.25 21.0625 22.25 19 21 C18.86078125 20.36320312 18.7215625 19.72640625 18.578125 19.0703125 C17.84577664 16.44771365 16.97987386 16.00926002 14.6875 14.625 C11.92706175 12.80523848 10.88122384 11.81812401 9 8.9375 C6.43238128 5.16631 4.0424963 4.02124815 0 2 C0 1.34 0 0.68 0 0 Z " fill="#88ADCD" transform="translate(160,304)"/>
<path d="M0 0 C3.875 1.875 3.875 1.875 5 3 C5.04063832 4.66617115 5.042721 6.33388095 5 8 C3.02 8.99 3.02 8.99 1 10 C1 18.58 1 27.16 1 36 C3.475 35.505 3.475 35.505 6 35 C5.67 36.32 5.34 37.64 5 39 C0.125 38.125 0.125 38.125 -1 37 C-1.91322504 28.36382246 -2.16238948 19.6788158 -2 11 C-0.68 10.34 0.64 9.68 2 9 C2 8.34 2 7.68 2 7 C2.66 7 3.32 7 4 7 C3.2884375 5.824375 3.2884375 5.824375 2.5625 4.625 C1.66101977 3.11051322 0.78820515 1.5764103 0 0 Z " fill="#719DC2" transform="translate(150,442)"/>
<path d="M0 0 C0 0.66 0 1.32 0 2 C-1.0725 2.4125 -2.145 2.825 -3.25 3.25 C-6.55673404 4.69585942 -8.84120069 6.01089326 -11 9 C-11.62604181 11.50416722 -11.88166847 13.45587202 -12 16 C-12.07476562 16.93714844 -12.14953125 17.87429687 -12.2265625 18.83984375 C-12.57030767 26.01326267 -11.59463946 30.42079495 -7 36 C-11.18132928 34.25558799 -12.34966831 32.29007605 -14.16796875 28.26953125 C-16.6714364 21.44082373 -16.42661413 16.03190956 -13.44140625 9.375 C-10.20374337 4.04031428 -6.374424 0 0 0 Z " fill="#98B3CF" transform="translate(122,148)"/>
<path d="M0 0 C0.66 0.33 1.32 0.66 2 1 C4.13399287 7.40197862 4.1859128 15.34355533 1.4375 21.5 C-4.28502746 27.36925893 -8.90896277 31.95655103 -17.4375 32.3125 C-21.58138489 32.23627469 -24.43524708 31.19369411 -28 29 C-26 28 -26 28 -23.8125 28.4375 C-17.92906651 29.6141867 -12.52808843 29.36918076 -7 27 C-2.27362162 22.72554624 0.77563946 19.0582862 1.1328125 12.59765625 C1.12019344 6.24242848 1.12019344 6.24242848 0 0 Z " fill="#BFD5E5" transform="translate(145,241)"/>
<path d="M0 0 C0.99 0 1.98 0 3 0 C2.67 3.63 2.34 7.26 2 11 C2.66 11 3.32 11 4 11 C4.33773437 12.05960937 4.67546875 13.11921875 5.0234375 14.2109375 C5.47363992 15.59906164 5.92417825 16.98707687 6.375 18.375 C6.59671875 19.07367188 6.8184375 19.77234375 7.046875 20.4921875 C8.37154413 24.62047803 8.37154413 24.62047803 11 28 C10.01 28 9.02 28 8 28 C6.46484375 26.4609375 6.46484375 26.4609375 4.9375 24.375 C4.43089844 23.70210938 3.92429687 23.02921875 3.40234375 22.3359375 C0.29282818 17.15629875 -0.23776918 12.60176665 -0.125 6.625 C-0.10695313 5.37976563 -0.08890625 4.13453125 -0.0703125 2.8515625 C-0.04710938 1.91054688 -0.02390625 0.96953125 0 0 Z " fill="#407CAD" transform="translate(95,364)"/>
<path d="M0 0 C0.66 0 1.32 0 2 0 C0.0027439 4.5356407 -2.99134565 7.17909509 -7 10 C-9.5 10.875 -9.5 10.875 -12 11 C-13.60875 11.0928125 -13.60875 11.0928125 -15.25 11.1875 C-26.40926158 10.62953692 -26.40926158 10.62953692 -30.5625 6.375 C-31.2740625 5.199375 -31.2740625 5.199375 -32 4 C-31.13375 4.5259375 -31.13375 4.5259375 -30.25 5.0625 C-27.64198224 6.14917407 -26.60582371 5.93065133 -24 5 C-23.01 6.485 -23.01 6.485 -22 8 C-19.11404054 8.58481121 -19.11404054 8.58481121 -15.875 8.6875 C-14.77929688 8.75324219 -13.68359375 8.81898438 -12.5546875 8.88671875 C-11.71164063 8.92410156 -10.86859375 8.96148437 -10 9 C-10 8.34 -10 7.68 -10 7 C-8.68 7 -7.36 7 -6 7 C-6 6.34 -6 5.68 -6 5 C-5.34 5 -4.68 5 -4 5 C-3.67 4.01 -3.34 3.02 -3 2 C-2.01 2 -1.02 2 0 2 C0 1.34 0 0.68 0 0 Z " fill="#4C81AC" transform="translate(143,260)"/>
<path d="M0 0 C0 0.33 0 0.66 0 1 C-12.87 0.505 -12.87 0.505 -26 0 C-26 0.66 -26 1.32 -26 2 C-30.76307437 2.95261487 -35.1666528 3.08333357 -40 3 C-31.48445482 -5.51554518 -10.42111464 -2.92522516 0 0 Z " fill="#A3BFD9" transform="translate(158,303)"/>
<path d="M0 0 C3.93450688 0.2632491 7.52306379 1.19518793 11.25 2.4375 C13.39452841 3.10835248 15.54049967 3.77460128 17.6875 4.4375 C19.36199219 4.95570313 19.36199219 4.95570313 21.0703125 5.484375 C24.77487545 6.59483367 28.48613451 7.55188459 32.25 8.4375 C28.40695319 9.79898141 25.10376989 9.20229542 21.125 8.625 C19.88492188 8.45355469 18.64484375 8.28210938 17.3671875 8.10546875 C14.25 7.4375 14.25 7.4375 12.25 5.4375 C4.79763097 2.52782148 4.79763097 2.52782148 -2.71875 3.359375 C-4.25863369 4.8573915 -4.25863369 4.8573915 -5.75 7.4375 C-6.08 6.7775 -6.41 6.1175 -6.75 5.4375 C-5.25153161 1.24178851 -4.50812049 0.52594739 0 0 Z " fill="#427AAD" transform="translate(177.75,442.5625)"/>
<path d="M0 0 C0 3 0 3 -1.75 5.125 C-3.70024184 7.61697568 -4.68969837 9.39133135 -5.875 12.25 C-8.42419476 18.26529355 -11.48378432 24.32252288 -17 28 C-16.69320312 27.43796875 -16.38640625 26.8759375 -16.0703125 26.296875 C-14.97042415 23.93653066 -14.39904149 21.79534438 -13.875 19.25 C-13.70742187 18.45078125 -13.53984375 17.6515625 -13.3671875 16.828125 C-13.24601563 16.22484375 -13.12484375 15.6215625 -13 15 C-12.01 15 -11.02 15 -10 15 C-10 13.35 -10 11.7 -10 10 C-9.34 10 -8.68 10 -8 10 C-8 9.34 -8 8.68 -8 8 C-7.34 8 -6.68 8 -6 8 C-6 7.34 -6 6.68 -6 6 C-5.34 6 -4.68 6 -4 6 C-3.896875 5.38125 -3.79375 4.7625 -3.6875 4.125 C-3 2 -3 2 0 0 Z " fill="#90B3CF" transform="translate(185,389)"/>
<path d="M0 0 C0.66 0.33 1.32 0.66 2 1 C-5.38160365 7.45890319 -11.57815024 9.64799283 -21.3125 9.375 C-22.65151367 9.37306641 -22.65151367 9.37306641 -24.01757812 9.37109375 C-30.5766129 9.28225806 -30.5766129 9.28225806 -34 7 C-28.39 7.33 -22.78 7.66 -17 8 C-17 7.34 -17 6.68 -17 6 C-16.01 6 -15.02 6 -14 6 C-14 5.34 -14 4.68 -14 4 C-13.32453125 3.96261719 -12.6490625 3.92523438 -11.953125 3.88671875 C-11.06109375 3.82097656 -10.1690625 3.75523437 -9.25 3.6875 C-8.36828125 3.62949219 -7.4865625 3.57148438 -6.578125 3.51171875 C-3.67696226 2.9358819 -2.20774393 1.92403852 0 0 Z " fill="#79A2C4" transform="translate(166,417)"/>
<path d="M0 0 C2.375 1.9375 2.375 1.9375 4 4 C3.75 6.25 3.75 6.25 3 8 C-0.54968305 6.22515848 -2.3160972 4.5569984 -4.4375 1.3125 C-6.73073747 -1.58294042 -7.74618507 -1.96710332 -11.49609375 -2.453125 C-15.02183215 -2.43892263 -18.48797505 -2.30309256 -22 -2 C-16.34845065 -7.65154935 -5.65901249 -4.32748014 0 0 Z " fill="#8EAFCE" transform="translate(141,235)"/>
<path d="M0 0 C2.64 0 5.28 0 8 0 C8 0.66 8 1.32 8 2 C6.948125 2.0825 5.89625 2.165 4.8125 2.25 C0.52061948 3.09430436 -1.25279538 3.58680638 -4 7 C-4.58633097 10.40630373 -4.6799143 13.60609445 -4 17 C-2.53002225 18.6736236 -2.53002225 18.6736236 -1 20 C-1 20.66 -1 21.32 -1 22 C-1.99 22 -2.98 22 -4 22 C-4.33 21.01 -4.66 20.02 -5 19 C-5.66 18.67 -6.32 18.34 -7 18 C-7.05406122 16.06280622 -7.09282025 14.12518079 -7.125 12.1875 C-7.14820312 11.10855469 -7.17140625 10.02960938 -7.1953125 8.91796875 C-7 6 -7 6 -5 3 C-2.375 2.3125 -2.375 2.3125 0 2 C0 1.34 0 0.68 0 0 Z " fill="#3E78AD" transform="translate(123,239)"/>
<path d="M0 0 C0.33 0 0.66 0 1 0 C6.10621327 17.41583455 6.10621327 17.41583455 3.23828125 25.01953125 C2.25 26.6875 2.25 26.6875 0 29 C-1.32 29 -2.64 29 -4 29 C-4 28.01 -4 27.02 -4 26 C-3.01 26 -2.02 26 -1 26 C-1 25.34 -1 24.68 -1 24 C-0.34 24 0.32 24 1 24 C1 23.34 1 22.68 1 22 C1.66 22 2.32 22 3 22 C2.69078116 20.54096742 2.37751201 19.08279278 2.0625 17.625 C1.88847656 16.81289063 1.71445313 16.00078125 1.53515625 15.1640625 C1.07669307 12.970537 1.07669307 12.970537 0 11 C-0.07033769 9.12620395 -0.0843022 7.24998898 -0.0625 5.375 C-0.05347656 4.37210937 -0.04445312 3.36921875 -0.03515625 2.3359375 C-0.01775391 1.17964844 -0.01775391 1.17964844 0 0 Z " fill="#9DB8D0" transform="translate(240,488)"/>
<path d="M0 0 C2.6875 2.125 2.6875 2.125 4 4 C3.01 3.67 2.02 3.34 1 3 C-5.04821659 2.58706955 -11.00566248 3.23881428 -17 4 C-16.25 1.5625 -16.25 1.5625 -15 -1 C-10.18283236 -2.9529058 -4.8084746 -1.39365501 0 0 Z " fill="#7DA4C4" transform="translate(137,148)"/>
<path d="M0 0 C0.33 0 0.66 0 1 0 C1 8.91 1 17.82 1 27 C1.99 26.67 2.98 26.34 4 26 C4.33 25.34 4.66 24.68 5 24 C8.3 24 11.6 24 15 24 C5 29 5 29 0 29 C0 19.43 0 9.86 0 0 Z " fill="#7F8489" transform="translate(43,415)"/>
<path d="M0 0 C2.97 0.33 5.94 0.66 9 1 C9 1.33 9 1.66 9 2 C7.14375 2.37125 7.14375 2.37125 5.25 2.75 C1.47367182 3.72086451 -0.80058399 4.60923365 -3 8 C-3.45652447 12.26089509 -3.33573034 15.35042135 -1 19 C-1.99 19 -2.98 19 -4 19 C-6.45717992 15.31423012 -6.69957317 12.28072154 -6 8 C-4.125 5 -4.125 5 -2 3 C-1.34 3 -0.68 3 0 3 C0 2.01 0 1.02 0 0 Z " fill="#437CB2" transform="translate(121,156)"/>
<path d="M0 0 C0.33 1.32 0.66 2.64 1 4 C10.57 4 20.14 4 30 4 C30 4.33 30 4.66 30 5 C19.96557967 5.87801178 10.06394247 6.1176305 0 6 C-1.125 2.25 -1.125 2.25 0 0 Z " fill="#B5BABD" transform="translate(259,512)"/>
<path d="M0 0 C6.16584677 0.37750082 11.60791462 2.10774325 17.40478516 4.12060547 C22.23829362 5.78695477 26.9850605 7.03220466 32 8 C32 8.33 32 8.66 32 9 C20.69528951 8.27469778 10.36994629 5.51964473 0 1 C0 0.67 0 0.34 0 0 Z " fill="#AEC8DF" transform="translate(188,444)"/>
<path d="M0 0 C1.485 0.99 1.485 0.99 3 2 C3 2.66 3 3.32 3 4 C3.66 4 4.32 4 5 4 C6.94802412 8.0978356 7.2978906 11.48082623 7.3125 16 C7.32925781 17.19625 7.34601563 18.3925 7.36328125 19.625 C6.97028644 23.27604858 6.21004279 25.10158323 4 28 C3.01 28.66 2.02 29.32 1 30 C1.28875 29.46375 1.5775 28.9275 1.875 28.375 C4.73857231 22.32968067 5.50448261 16.59820525 6 10 C5.01 10 4.02 10 3 10 C2.01 6.7 1.02 3.4 0 0 Z " fill="#ABC4D7" transform="translate(141,152)"/>
<path d="M0 0 C2.4375 0.8125 2.4375 0.8125 5 2 C5.9702889 4.91086669 6.16467847 6.90223685 6.1875 9.9375 C6.20167969 10.79214844 6.21585938 11.64679688 6.23046875 12.52734375 C6 15 6 15 4 19 C3.67 16.03 3.34 13.06 3 10 C2.01 10.495 2.01 10.495 1 11 C1.01160156 10.37351563 1.02320313 9.74703125 1.03515625 9.1015625 C1.04417969 8.28429687 1.05320313 7.46703125 1.0625 6.625 C1.07990234 5.40683594 1.07990234 5.40683594 1.09765625 4.1640625 C1.14466334 1.95062858 1.14466334 1.95062858 0 0 Z " fill="#417DAC" transform="translate(141,241)"/>
<path d="M0 0 C0.66 0.33 1.32 0.66 2 1 C-0.68287823 4.47196006 -3.82289183 5.0949599 -8 6 C-14.25748619 6.69527624 -18.54468083 4.77095577 -24 2 C-20.98968256 1.06576355 -20.13349732 0.95550089 -17 2 C-17 2.66 -17 3.32 -17 4 C-10.60236132 3.66987274 -5.67801077 3.20298043 0 0 Z " fill="#9BBAD5" transform="translate(139,183)"/>
<path d="M0 0 C-0.309375 0.598125 -0.61875 1.19625 -0.9375 1.8125 C-2.10209704 4.08956772 -2.10209704 4.08956772 -3 7 C-9.20077417 11.31170111 -15.70180473 11.49109351 -23 11 C-23 10.67 -23 10.34 -23 10 C-22.14728516 9.96132812 -22.14728516 9.96132812 -21.27734375 9.921875 C-15.49181264 9.49689442 -11.75534095 8.36836651 -7 5 C-6.67 4.01 -6.34 3.02 -6 2 C-3.85412616 0.684787 -2.52986895 0 0 0 Z " fill="#3E79A8" transform="translate(145,176)"/>
<path d="M0 0 C0.33 0.66 0.66 1.32 1 2 C0.67 2.99 0.34 3.98 0 5 C-0.0960133 7.45681101 -0.12983042 9.91631833 -0.125 12.375 C-0.12757812 13.68210938 -0.13015625 14.98921875 -0.1328125 16.3359375 C-0.0224678 19.38015313 0.28293326 22.05205898 1 25 C-1.89443437 23.55278281 -2.4187764 21.3222921 -3.45703125 18.38671875 C-4.94401694 11.85040038 -3.42896203 5.66524162 0 0 Z " fill="#9DB9D1" transform="translate(110,239)"/>
<path d="M0 0 C0.33 0 0.66 0 1 0 C1.51083558 3.31092101 2.00663214 6.62393479 2.5 9.9375 C2.64308594 10.86369141 2.78617188 11.78988281 2.93359375 12.74414062 C3.79167513 18.56683571 4.14486785 24.11474367 4 30 C1.93559388 25.87118775 0.85569936 23.2261254 0.68359375 18.5546875 C0.64169922 17.47832031 0.59980469 16.40195312 0.55664062 15.29296875 C0.51732422 14.16503906 0.47800781 13.03710938 0.4375 11.875 C0.39431641 10.73933594 0.35113281 9.60367187 0.30664062 8.43359375 C0.2003396 5.62252232 0.09830595 2.81136055 0 0 Z " fill="#467EAF" transform="translate(236,466)"/>
<path d="M0 0 C2.4375 2 2.4375 2 4 4 C3.67 4.66 3.34 5.32 3 6 C2.649375 5.505 2.29875 5.01 1.9375 4.5 C-0.97898206 2.2420784 -3.41642819 2.74403059 -7 3 C-7.99 3.33 -8.98 3.66 -10 4 C-10.96070434 6.88211302 -11.10581883 8.69850044 -11.0625 11.6875 C-11.05347656 12.49574219 -11.04445313 13.30398437 -11.03515625 14.13671875 C-11.02355469 14.75160156 -11.01195313 15.36648438 -11 16 C-11.66 15.67 -12.32 15.34 -13 15 C-13.89542658 6.4602835 -13.89542658 6.4602835 -11.91015625 3.22265625 C-8.18377516 -0.18742724 -4.85875379 -0.8097923 0 0 Z " fill="#ABC9E1" transform="translate(131,241)"/>
<path d="M0 0 C0.33 0 0.66 0 1 0 C1 9.57 1 19.14 1 29 C-0.65 29.33 -2.3 29.66 -4 30 C-3.67 29.34 -3.34 28.68 -3 28 C-2.34 28 -1.68 28 -1 28 C-0.67 18.76 -0.34 9.52 0 0 Z " fill="#81878A" transform="translate(68,407)"/>
<path d="M0 0 C0.99 0.33 1.98 0.66 3 1 C3.33 3.31 3.66 5.62 4 8 C4.99 8 5.98 8 7 8 C7.05437607 9.58294782 7.09296271 11.16644256 7.125 12.75 C7.14820313 13.63171875 7.17140625 14.5134375 7.1953125 15.421875 C7 18 7 18 5 22 C5 18.04 5 14.08 5 10 C4.34 10 3.68 10 3 10 C2.67 8.02 2.34 6.04 2 4 C1.34 4 0.68 4 0 4 C0 2.68 0 1.36 0 0 Z " fill="#457BAC" transform="translate(140,154)"/>
<path d="M0 0 C3.36553124 1.28437235 6.46957241 2.7692638 9.625 4.5 C14.93247296 7.20968875 20.12362598 8.25148848 26 9 C26 9.33 26 9.66 26 10 C17.50440448 10.79028796 7.92200274 7.96035215 1 3 C0.67 2.01 0.34 1.02 0 0 Z " fill="#BDC2C4" transform="translate(295,149)"/>
<path d="M0 0 C0.33 0 0.66 0 1 0 C1.50720912 2.85305129 2.00593634 5.70716814 2.5 8.5625 C2.64308594 9.36236328 2.78617188 10.16222656 2.93359375 10.98632812 C3.74769395 15.73524598 4.15519589 20.18246077 4 25 C3.67 25 3.34 25 3 25 C-0.04735002 16.67057661 -0.12951804 8.76405392 0 0 Z " fill="#C5DBEA" transform="translate(238,468)"/>
<path d="M0 0 C0.33 0 0.66 0 1 0 C1.13277344 1.14339844 1.26554688 2.28679687 1.40234375 3.46484375 C1.5805031 4.9557562 1.75890082 6.44664018 1.9375 7.9375 C2.02451172 8.69224609 2.11152344 9.44699219 2.20117188 10.22460938 C2.34324099 13.92187458 2.34324099 13.92187458 4 17 C4.66 16.34 5.32 15.68 6 15 C6 16.32 6 17.64 6 19 C4.35 19.33 2.7 19.66 1 20 C0.11722245 15.48184719 -0.10589503 11.22487306 -0.0625 6.625 C-0.05347656 5.37976563 -0.04445312 4.13453125 -0.03515625 2.8515625 C-0.02355469 1.91054688 -0.01195312 0.96953125 0 0 Z " fill="#B8D0E5" transform="translate(150,458)"/>
<path d="M0 0 C2.42163542 2.28304785 4.35175667 4.70531967 6.25 7.4375 C6.79140625 8.19933594 7.3328125 8.96117187 7.890625 9.74609375 C9 12 9 12 8.671875 14.28515625 C8.45015625 14.85105469 8.2284375 15.41695313 8 16 C5.34154327 13.62999752 3.88838209 11.18015846 2.3125 8 C1.87550781 7.13375 1.43851562 6.2675 0.98828125 5.375 C0 3 0 3 0 0 Z " fill="#447AAE" transform="translate(118,456)"/>
<path d="M0 0 C0 2 0 2 -1.875 4.125 C-4 6 -4 6 -6 6 C-6.268125 6.61875 -6.53625 7.2375 -6.8125 7.875 C-8 10 -8 10 -11 12 C-9.94124926 8.59687262 -8.99097846 5.98646769 -7 3 C-6.01 3 -5.02 3 -4 3 C-4 2.34 -4 1.68 -4 1 C-2 0 -2 0 0 0 Z " fill="#75A1C8" transform="translate(174,449)"/>
<path d="M0 0 C1.69140625 1.546875 1.69140625 1.546875 3 3 C2.32453125 3.04898437 1.6490625 3.09796875 0.953125 3.1484375 C0.06109375 3.22320312 -0.8309375 3.29796875 -1.75 3.375 C-2.63171875 3.44460938 -3.5134375 3.51421875 -4.421875 3.5859375 C-6.99066382 3.99850055 -8.75841015 4.71160957 -11 6 C-8.04258392 -0.31811616 -7.00224837 -1.71483634 0 0 Z " fill="#84A7C7" transform="translate(147,439)"/>
<path d="M0 0 C4 6.75 4 6.75 4 9 C2.0625 8.3125 2.0625 8.3125 0 7 C-0.33 5.35 -0.66 3.7 -1 2 C-6.94 2.495 -6.94 2.495 -13 3 C-8.48332093 -0.01111938 -5.3360009 -0.10067926 0 0 Z " fill="#7DA3C3" transform="translate(112,441)"/>
<path d="M0 0 C0 0.66 0 1.32 0 2 C-1.0725 2.4125 -2.145 2.825 -3.25 3.25 C-7.32984257 5.03493112 -10.03424999 6.8312252 -11.90625 11.03515625 C-12.65640827 13.0043217 -13.33364049 15.00092146 -14 17 C-14.88935267 14.09561052 -15.0621392 13.18641759 -14.0625 10.1875 C-10.58795308 4.81774567 -6.63621467 0 0 0 Z " fill="#AFC9DD" transform="translate(122,148)"/>
<path d="M0 0 C2.0245738 1.93254772 3.42105792 3.63158688 5 6 C5.99 5.34 6.98 4.68 8 4 C8 6.31 8 8.62 8 11 C6.25 10.875 6.25 10.875 4 10 C1.06644827 6.33306034 0 4.76869466 0 0 Z " fill="#AFCBE2" transform="translate(127,468)"/>
<path d="M0 0 C2 1.3125 2 1.3125 4 3 C4 3.99 4 4.98 4 6 C3.34 6 2.68 6 2 6 C2 6.66 2 7.32 2 8 C1.01 8.66 0.02 9.32 -1 10 C-1.57748803 11.96361864 -1.57748803 11.96361864 -1.6875 14.125 C-1.790625 15.40375 -1.89375 16.6825 -2 18 C-2.33 18 -2.66 18 -3 18 C-3.05416188 16.39620659 -3.09286638 14.79188594 -3.125 13.1875 C-3.14820313 12.29417969 -3.17140625 11.40085937 -3.1953125 10.48046875 C-3 8 -3 8 -1 5 C-0.34 5 0.32 5 1 5 C0.67 3.35 0.34 1.7 0 0 Z " fill="#467EAD" transform="translate(150,443)"/>
<path d="M0 0 C1.5843317 0.08768248 3.16753567 0.19587329 4.75 0.3125 C6.07257813 0.39951172 6.07257813 0.39951172 7.421875 0.48828125 C10.32303774 1.0641181 11.79225607 2.07596148 14 4 C12.41705218 4.05437607 10.83355744 4.09296271 9.25 4.125 C8.36828125 4.14820313 7.4865625 4.17140625 6.578125 4.1953125 C3.8864142 3.99139502 2.30095026 3.36551721 0 2 C0 1.34 0 0.68 0 0 Z " fill="#4D83B3" transform="translate(210,452)"/>
<path d="M0 0 C0 0.99 0 1.98 0 3 C-4.455 3.495 -4.455 3.495 -9 4 C-9 4.66 -9 5.32 -9 6 C-9.66 5.67 -10.32 5.34 -11 5 C-7.72338597 -0.80854306 -6.54976881 -1.28147651 0 0 Z " fill="#2878C0" transform="translate(128,152)"/>
<path d="M0 0 C0.66 0.33 1.32 0.66 2 1 C1.65173073 9.30622213 1.65173073 9.30622213 -0.9375 12.0625 C-3 13 -3 13 -5 13 C-4.75 11.125 -4.75 11.125 -4 9 C-1.9375 7.75 -1.9375 7.75 0 7 C0 4.69 0 2.38 0 0 Z " fill="#5287B2" transform="translate(101,351)"/>
<path d="M0 0 C1.98 0.99 1.98 0.99 4 2 C4 3.32 4 4.64 4 6 C5.65 5.67 7.3 5.34 9 5 C9.33 6.65 9.66 8.3 10 10 C7.8125 9.9375 7.8125 9.9375 5 9 C2.61372642 6.43314355 0 3.61081552 0 0 Z " fill="#497EAF" transform="translate(109,174)"/>
<path d="M0 0 C0.66 0.33 1.32 0.66 2 1 C-0.3125 3.5 -0.3125 3.5 -3 6 C-3.99 6 -4.98 6 -6 6 C-6 7.32 -6 8.64 -6 10 C-6.99 10 -7.98 10 -9 10 C-8.52695318 5.74257863 -6.1136178 3.74294902 -3 1 C-2.01 0.67 -1.02 0.34 0 0 Z " fill="#497FAD" transform="translate(119,150)"/>
<path d="M0 0 C2 2 2 2 2.4375 3.9375 C3.11100872 6.40703196 4.18016698 7.25599335 6 9 C6.33 9.99 6.66 10.98 7 12 C7.66 12.66 8.32 13.32 9 14 C6 14 6 14 4.39453125 12.4609375 C0.0831793 6.77634011 0.0831793 6.77634011 -0.375 2.5 C-0.25125 1.675 -0.1275 0.85 0 0 Z " fill="#4F81AE" transform="translate(97,378)"/>
<path d="M0 0 C0 0.99 0 1.98 0 3 C-5.61 3.66 -11.22 4.32 -17 5 C-14.03799949 3.025333 -11.90228368 2.28044646 -8.5 1.375 C-7.5409375 1.11460937 -6.581875 0.85421875 -5.59375 0.5859375 C-3 0 -3 0 0 0 Z " fill="#5C8DB4" transform="translate(95,446)"/>
<path d="M0 0 C0.66 0.33 1.32 0.66 2 1 C-0.75155386 5.65647576 -3.17454764 8.2725704 -8 11 C-8.66 11 -9.32 11 -10 11 C-10 10.34 -10 9.68 -10 9 C-9.01 9 -8.02 9 -7 9 C-6.6596875 8.1646875 -6.6596875 8.1646875 -6.3125 7.3125 C-4.64103234 4.36753316 -2.44723648 2.31843456 0 0 Z " fill="#5684AD" transform="translate(170,410)"/>
<path d="M0 0 C1.21236328 0.01353516 1.21236328 0.01353516 2.44921875 0.02734375 C3.37154297 0.04474609 3.37154297 0.04474609 4.3125 0.0625 C4.3125 0.7225 4.3125 1.3825 4.3125 2.0625 C-0.45057437 3.01511487 -4.8541528 3.14583357 -9.6875 3.0625 C-6.66074696 0.03574696 -4.08749979 -0.05923913 0 0 Z " fill="#8EAFCE" transform="translate(127.6875,302.9375)"/>
<path d="M0 0 C0.33 0 0.66 0 1 0 C2.86783046 5.48675196 3.2358396 10.22192976 3 16 C0.30576713 11.95865069 -0.11848959 10.19010472 -0.0625 5.375 C-0.05347656 4.37210937 -0.04445312 3.36921875 -0.03515625 2.3359375 C-0.02355469 1.56507813 -0.01195312 0.79421875 0 0 Z " fill="#83A4C3" transform="translate(240,488)"/>
<path d="M0 0 C0.86625 0.5259375 0.86625 0.5259375 1.75 1.0625 C4.35801776 2.14917407 5.39417629 1.93065133 8 1 C9.32 2.65 10.64 4.3 12 6 C4.61538462 5.63076923 4.61538462 5.63076923 1.5 2.4375 C1.005 1.633125 0.51 0.82875 0 0 Z " fill="#6996BE" transform="translate(111,264)"/>
<path d="M0 0 C3.3 0 6.6 0 10 0 C-0.20408163 5.10204082 -0.20408163 5.10204082 -3.4375 4.6875 C-3.953125 4.460625 -4.46875 4.23375 -5 4 C-4.360625 3.71125 -3.72125 3.4225 -3.0625 3.125 C-0.84793921 2.17176549 -0.84793921 2.17176549 0 0 Z " fill="#9AA1A5" transform="translate(48,439)"/>
<path d="M0 0 C0.99 0.495 0.99 0.495 2 1 C5.86061033 2.28687011 8.94150283 2.13757618 13 2 C12.01 2.495 12.01 2.495 11 3 C11 3.66 11 4.32 11 5 C4.61764706 5.49095023 4.61764706 5.49095023 1.5625 3.0625 C0 1 0 1 0 0 Z " fill="#ADC6DD" transform="translate(120,257)"/>
<path d="M0 0 C3.81434921 1.49849433 5.80790825 3.55528439 8 7 C8.25 10.3125 8.25 10.3125 8 13 C6.0216411 11.0216411 5.18823175 9.55500176 4 7.0625 C2.78629209 4.52604011 1.57227701 2.35841552 0 0 Z " fill="#B1CBDD" transform="translate(101,391)"/>
<path d="M0 0 C1.65 1.65 3.3 3.3 5 5 C3.35 5.66 1.7 6.32 0 7 C-0.38133299 5.0085944 -0.71325582 3.00720923 -1 1 C-0.67 0.67 -0.34 0.34 0 0 Z " fill="#4C5259" transform="translate(301,32)"/>
<path d="M0 0 C0.625 1.8125 0.625 1.8125 1 4 C0.01 5.485 0.01 5.485 -1 7 C-1.66 7 -2.32 7 -3 7 C-3.12375 7.639375 -3.2475 8.27875 -3.375 8.9375 C-3.58125 9.618125 -3.7875 10.29875 -4 11 C-4.99 11.495 -4.99 11.495 -6 12 C-4.68139111 7.38486888 -2.78644563 3.90102388 0 0 Z " fill="#B6CEE3" transform="translate(162,461)"/>
<path d="M0 0 C2.375 1.0625 2.375 1.0625 5 3 C6.3125 6.6875 6.3125 6.6875 7 10 C2.57320993 8.52440331 2.08567304 6.09942632 0 2 C0 1.34 0 0.68 0 0 Z " fill="#A5C3D9" transform="translate(109,404)"/>
<path d="M0 0 C0.33 0 0.66 0 1 0 C1.103125 1.258125 1.20625 2.51625 1.3125 3.8125 C1.69609156 7.13957417 1.69609156 7.13957417 3.5625 9.875 C4.036875 10.24625 4.51125 10.6175 5 11 C5 11.66 5 12.32 5 13 C4.01 13 3.02 13 2 13 C1.67 12.01 1.34 11.02 1 10 C0.34 9.67 -0.32 9.34 -1 9 C-0.67 6.03 -0.34 3.06 0 0 Z " fill="#5F8DB8" transform="translate(117,248)"/>
<path d="M0 0 C1.2685771 3.80573129 0.88817586 6.10569048 0 10 C-2.05078125 12.22265625 -2.05078125 12.22265625 -4 14 C-3.52525225 11.85318469 -3.04508251 9.70756772 -2.5625 7.5625 C-2.29566406 6.36753906 -2.02882812 5.17257812 -1.75390625 3.94140625 C-1 1 -1 1 0 0 Z " fill="#7CA8CA" transform="translate(190,375)"/>
<path d="M0 0 C-0.309375 0.598125 -0.61875 1.19625 -0.9375 1.8125 C-2.10209704 4.08956772 -2.10209704 4.08956772 -3 7 C-3.66 7 -4.32 7 -5 7 C-5.33 5.35 -5.66 3.7 -6 2 C-2.25 0 -2.25 0 0 0 Z " fill="#4D81AA" transform="translate(145,176)"/>
<path d="M0 0 C0.66 0.33 1.32 0.66 2 1 C1.649375 1.7425 1.29875 2.485 0.9375 3.25 C-0.04509293 6.1322726 -0.0326802 7.21176345 1 10 C-0.32 9.01 -1.64 8.02 -3 7 C-2.25 2.25 -2.25 2.25 0 0 Z " fill="#5685A8" transform="translate(136,442)"/>
<path d="M0 0 C1 3 1 3 -0.25 5.6875 C-0.8275 6.450625 -1.405 7.21375 -2 8 C-2.99 8 -3.98 8 -5 8 C-3.62845496 5.04590299 -2.01136276 2.55991624 0 0 Z " fill="#5084B3" transform="translate(109,314)"/>
<path d="M0 0 C2 2 2 2 2.1953125 4.1640625 C2.17210937 4.97617188 2.14890625 5.78828125 2.125 6.625 C2.10695312 7.44226563 2.08890625 8.25953125 2.0703125 9.1015625 C2.03550781 10.04128906 2.03550781 10.04128906 2 11 C0.68 11.33 -0.64 11.66 -2 12 C-1.7834375 11.07767578 -1.7834375 11.07767578 -1.5625 10.13671875 C-1.376875 9.32847656 -1.19125 8.52023438 -1 7.6875 C-0.814375 6.88699219 -0.62875 6.08648437 -0.4375 5.26171875 C0.09495823 2.89304062 0.09495823 2.89304062 0 0 Z " fill="#B6CFE4" transform="translate(135,247)"/>
<path d="M0 0 C0.33 0.66 0.66 1.32 1 2 C0.22265625 4.1640625 0.22265625 4.1640625 -0.9375 6.625 C-1.31777344 7.44226563 -1.69804688 8.25953125 -2.08984375 9.1015625 C-2.39019531 9.72804687 -2.69054687 10.35453125 -3 11 C-4.06192476 7.73635123 -4.07454186 7.17280159 -2.625 3.8125 C-1 1 -1 1 0 0 Z " fill="#5482AE" transform="translate(113,237)"/>
<path d="M0 0 C2.97 0.33 5.94 0.66 9 1 C9 1.33 9 1.66 9 2 C7.741875 2.28875 6.48375 2.5775 5.1875 2.875 C2.1460601 3.57303539 0.69330122 4.20446585 -2 6 C-2 5.01 -2 4.02 -2 3 C-1.34 3 -0.68 3 0 3 C0 2.01 0 1.02 0 0 Z " fill="#5889B3" transform="translate(121,156)"/>
<path d="M0 0 C3.93809611 3.76687454 3.93809611 3.76687454 4.09765625 6.9453125 C4.06510417 8.96354167 4.03255208 10.98177083 4 13 C3.67 13 3.34 13 3 13 C3 11.02 3 9.04 3 7 C2.34 7 1.68 7 1 7 C0.67 4.69 0.34 2.38 0 0 Z " fill="#97B8D5" transform="translate(234,459)"/>
<path d="M0 0 C0.99 0 1.98 0 3 0 C2.34 1.32 1.68 2.64 1 4 C0.34 4 -0.32 4 -1 4 C-1.66 5.32 -2.32 6.64 -3 8 C-3 6.35 -3 4.7 -3 3 C-2.34 3 -1.68 3 -1 3 C-0.67 2.01 -0.34 1.02 0 0 Z " fill="#4D85B0" transform="translate(183,387)"/>
<path d="M0 0 C0.680625 0.33 1.36125 0.66 2.0625 1 C5.50840238 2.17307315 8.38397422 2.14180493 12 2 C12 2.66 12 3.32 12 4 C8.7 4 5.4 4 2 4 C1.34 2.68 0.68 1.36 0 0 Z " fill="#5287B3" transform="translate(120,175)"/>
<path d="M0 0 C3.59391114 1.33488128 6.75490696 2.96022723 10 5 C8.3125 5.6875 8.3125 5.6875 6 6 C3.3125 4.75 3.3125 4.75 1 3 C0.67 2.01 0.34 1.02 0 0 Z " fill="#A8ADB3" transform="translate(295,149)"/>
<path d="M0 0 C2.375 0.625 2.375 0.625 5 2 C6.3125 5.125 6.3125 5.125 7 8 C1.125 3.375 1.125 3.375 0 0 Z " fill="#5183AC" transform="translate(115,411)"/>
<path d="M0 0 C0.33 0 0.66 0 1 0 C1.04898438 0.63808594 1.09796875 1.27617187 1.1484375 1.93359375 C1.22320312 2.75988281 1.29796875 3.58617187 1.375 4.4375 C1.44460937 5.26121094 1.51421875 6.08492188 1.5859375 6.93359375 C1.72257813 7.61550781 1.85921875 8.29742187 2 9 C2.66 9.33 3.32 9.66 4 10 C4 10.66 4 11.32 4 12 C2.68 11.67 1.36 11.34 0 11 C0 7.37 0 3.74 0 0 Z " fill="#3476B0" transform="translate(183,349)"/>
</svg>
