<?xml version="1.0" encoding="UTF-8"?>
<svg version="1.1" xmlns="http://www.w3.org/2000/svg" width="500" height="500">
<path d="M0 0 C0.45221924 1.46602661 0.45221924 1.46602661 0.91357422 2.96166992 C3.64592437 11.783378 6.49437944 20.55703679 9.44876099 29.30691528 C16.0490672 48.88205515 22.20953703 68.5891849 28.34130859 88.31494141 C29.64292318 92.50202744 30.94562544 96.6887729 32.25 100.875 C32.45641113 101.53752777 32.66282227 102.20005554 32.87548828 102.88265991 C35.53299037 111.40394669 38.24199982 119.90608489 41.0625 128.375 C41.34963867 129.23722168 41.63677734 130.09944336 41.93261719 130.98779297 C43.28030333 135.06874752 43.28030333 135.06874752 45 139 C45.20568604 138.37770508 45.41137207 137.75541016 45.62329102 137.11425781 C46.6012643 134.15891854 47.58185133 131.20445257 48.5625 128.25 C48.91948975 127.17065186 49.27647949 126.09130371 49.64428711 124.97924805 C51.4083896 119.67136008 53.20390842 114.38222831 55.125 109.12890625 C55.61504517 107.77974121 55.61504517 107.77974121 56.11499023 106.40332031 C56.73426428 104.71001028 57.36358344 103.02033128 58.00415039 101.33496094 C60.08018319 95.74365328 60.08018319 95.74365328 59 90 C57.58811265 87.50061081 57.58811265 87.50061081 55.8125 85 C48.99242971 74.58746471 42.53795682 62.91374808 44.5390625 50.12890625 C45.92358252 43.73430109 48.23272327 39.94924128 53.56640625 36.2890625 C64.31094272 30.597735 76.55089569 30.91086562 88 34 C92.94194777 35.72968172 97.80422039 37.70057278 101 42 C105.06789684 50.88550846 104.11020358 58.97190146 101 68 C97.84420911 75.58930971 94.29124286 82.84411487 88.85107422 89.05102539 C86.49641909 94.44322617 90.00815473 101.40674339 91.90625 106.63671875 C92.19101196 107.43858109 92.47577393 108.24044342 92.76916504 109.06660461 C93.67327347 111.60915411 94.58620946 114.14841604 95.5 116.6875 C96.41213031 119.23785485 97.32238825 121.78886116 98.23083496 124.3405304 C98.79481488 125.92295919 99.36120151 127.50453283 99.93029785 129.08512878 C101.1052206 132.36743912 102.19487565 135.60854552 103 139 C104.05030128 136.25305818 105.09001334 133.50271661 106.125 130.75 C106.55039062 129.64205078 106.55039062 129.64205078 106.984375 128.51171875 C109.50956343 121.75958447 111.56830801 114.89145046 113.61639404 107.98399353 C116.4152006 98.55477405 119.38878704 89.18372525 122.375 79.8125 C122.94736956 78.0125656 123.51963391 76.21259774 124.09179688 74.41259766 C125.47776347 70.05404698 126.86579274 65.69615702 128.25476074 61.33856201 C128.935021 59.20390422 129.61465857 57.06904978 130.29394531 54.93408203 C136.495752 35.44757407 136.495752 35.44757407 139.6875 26 C141.75607576 19.86439393 143.60686888 13.67863821 145.3894043 7.45507812 C146.90246209 2.19507582 146.90246209 2.19507582 148 0 C151.09577745 0.62685062 153.35578726 1.66452154 156.02734375 3.3359375 C157.19873901 4.05837646 157.19873901 4.05837646 158.39379883 4.79541016 C159.23322021 5.3166748 160.0726416 5.83793945 160.9375 6.375 C186.45958068 21.91017954 213.16568446 34.41465482 242.1015625 42.10546875 C256.93432454 46.0641035 267.63276941 52.52695032 275.8125 65.8125 C279.0124868 71.64210559 281.33225512 77.5661406 283 84 C283.17732666 84.64171143 283.35465332 85.28342285 283.53735352 85.94458008 C285.64232167 94.65579454 285.34845717 103.53373801 285.3125 112.4375 C285.31167419 113.29472656 285.31084839 114.15195312 285.30999756 115.03515625 C285.27659383 130.13504661 284.5396152 145.08456495 282 160 C281.89896973 160.69561035 281.79793945 161.3912207 281.69384766 162.10791016 C280.9607791 165.79087009 279.99473141 167.00411307 277.0078125 169.3359375 C275.72748295 170.04153535 274.4317955 170.71971563 273.125 171.375 C272.41666016 171.74947266 271.70832031 172.12394531 270.97851562 172.50976562 C268.66877807 173.70970734 266.34074092 174.86180633 264 176 C263.23268555 176.37415039 262.46537109 176.74830078 261.67480469 177.13378906 C227.51143699 193.55217579 190.60297326 204.26502093 153.3125 210.6875 C152.2299292 210.87787842 151.1473584 211.06825684 150.03198242 211.2644043 C126.18682248 215.16906414 102.44558424 216.5061556 78.33203125 216.39111328 C74.72261239 216.37402246 71.11385766 216.38421973 67.50446129 216.40142822 C42.23461921 216.50350381 17.28485612 214.73592522 -7.625 210.25 C-8.344599 210.12305756 -9.064198 209.99611511 -9.80560303 209.86532593 C-43.30226843 203.92915613 -76.07968498 194.26281765 -107 180 C-108.57780782 179.29096044 -110.15593144 178.58262317 -111.734375 177.875 C-115.27466845 176.27289208 -118.77696059 174.60977158 -122.25244141 172.87158203 C-123.81842104 172.09056117 -125.39864529 171.33825563 -126.98046875 170.58984375 C-130.33272757 168.76182344 -132.57586515 167.38345023 -133.72827148 163.62451172 C-133.85790283 162.69396973 -133.98753418 161.76342773 -134.12109375 160.8046875 C-134.27167236 159.73476563 -134.42225098 158.66484375 -134.57739258 157.5625 C-135.35500243 151.0073972 -136.03926541 144.44956433 -136.625 137.875 C-136.69036957 137.14766663 -136.75573914 136.42033325 -136.8230896 135.67095947 C-139.08946798 110.13921253 -140.42335149 81.75035694 -123.9296875 60.30859375 C-111.72811918 46.04508792 -95.46387385 41.92954985 -77.9296875 37.0390625 C-70.59470163 34.93614224 -63.87157968 32.29651787 -57 29 C-55.10516058 28.14722367 -53.20796875 27.29965721 -51.30859375 26.45703125 C-35.23993737 19.24510394 -19.66717813 11.63374421 -5.28515625 1.3984375 C-3 0 -3 0 0 0 Z " fill="#040404" transform="translate(176,284)"/>
<path d="M0 0 C0.68513672 0.26844727 1.37027344 0.53689453 2.07617188 0.81347656 C16.86209422 6.76873431 30.4729118 15.61605669 39.41796875 29.14453125 C41.35901955 31.42107231 42.85749534 31.91063038 45.6875 32.8125 C55.03488353 36.33135514 61.17820589 43.39929345 66 52 C67.6666888 55.93047795 68.95097963 59.86357844 70 64 C70.17732666 64.66273926 70.35465332 65.32547852 70.53735352 66.00830078 C72.48514507 74.21728433 72.35006191 82.49269329 72.3125 90.875 C72.31167419 91.64880005 72.31084839 92.4226001 72.30999756 93.21984863 C72.27402494 107.85653956 71.24167695 121.91025569 67 136 C68.3303125 136.3403125 68.3303125 136.3403125 69.6875 136.6875 C73.50327495 138.19941083 75.38568606 139.86282327 78 143 C83.52267811 159.1459188 75.37878189 180.69826089 68.765625 195.4296875 C63.50256734 206.07224215 63.50256734 206.07224215 58.9453125 207.76171875 C56.67314641 208.92828283 56.67314641 208.92828283 55.91015625 212.0546875 C55.63042969 213.31539062 55.35070312 214.57609375 55.0625 215.875 C48.73880853 242.24371949 31.42587322 266.84870395 8.21728516 281.09423828 C-0.16281056 286.05343635 -8.52773648 289.58067728 -18 292 C-18.62463135 292.1743457 -19.2492627 292.34869141 -19.89282227 292.52832031 C-39.00397228 296.80624197 -58.68244905 290.68216142 -75 281 C-78.84481246 278.52628026 -82.44426139 275.87084514 -86 273 C-86.73089844 272.44441406 -87.46179688 271.88882812 -88.21484375 271.31640625 C-105.52503074 257.2616613 -118.15054979 234.75213696 -121.875 212.9375 C-122.58146955 209.51050298 -122.73350443 209.19381496 -125.75 207 C-126.8225 206.34 -127.895 205.68 -129 205 C-134.28324887 198.7827731 -136.84317122 191.68259747 -139.25 184 C-139.58773437 182.97132813 -139.92546875 181.94265625 -140.2734375 180.8828125 C-143.14831387 171.98654152 -145.35518739 163.69518928 -145.3125 154.3125 C-145.32861328 153.59255859 -145.34472656 152.87261719 -145.36132812 152.13085938 C-145.36567879 147.35818405 -144.56270044 144.16047211 -142 140 C-139.1557135 137.25052305 -136.82612963 136.68819823 -133 136 C-133.19335938 135.34515625 -133.38671875 134.6903125 -133.5859375 134.015625 C-133.97652344 132.64664063 -133.97652344 132.64664063 -134.375 131.25 C-134.75785156 129.92742187 -134.75785156 129.92742187 -135.1484375 128.578125 C-141.55712632 101.6498729 -139.30717009 74.86312841 -125 51 C-120.09209738 43.33746429 -114.22391876 36.61360956 -108 30 C-107.43410156 29.35804687 -106.86820313 28.71609375 -106.28515625 28.0546875 C-80.76919428 0.39793053 -36.00238075 -14.16093643 0 0 Z " fill="#020202" transform="translate(283,4)"/>
<path d="M0 0 C-1.31307372 2.89852365 -2.72684638 4.98277217 -4.96875 7.234375 C-5.82533203 8.09482422 -5.82533203 8.09482422 -6.69921875 8.97265625 C-7.59060547 9.85244141 -7.59060547 9.85244141 -8.5 10.75 C-9.39138672 11.65298828 -9.39138672 11.65298828 -10.30078125 12.57421875 C-10.87183594 13.14269531 -11.44289062 13.71117187 -12.03125 14.296875 C-12.55267578 14.81604492 -13.07410156 15.33521484 -13.61132812 15.87011719 C-15 17 -15 17 -17 17 C-15.68692628 14.10147635 -14.27315362 12.01722783 -12.03125 9.765625 C-11.17466797 8.90517578 -11.17466797 8.90517578 -10.30078125 8.02734375 C-9.70652344 7.44082031 -9.11226562 6.85429688 -8.5 6.25 C-7.90574219 5.64800781 -7.31148437 5.04601562 -6.69921875 4.42578125 C-6.12816406 3.85730469 -5.55710938 3.28882813 -4.96875 2.703125 C-4.44732422 2.18395508 -3.92589844 1.66478516 -3.38867188 1.12988281 C-2 0 -2 0 0 0 Z " fill="#606060" transform="translate(185,26)"/>
<path d="M0 0 C0.33 0.66 0.66 1.32 1 2 C-0.6396875 2.4021875 -0.6396875 2.4021875 -2.3125 2.8125 C-5.73166327 3.91358648 -6.77591981 4.42474926 -9 7 C-9.66 7 -10.32 7 -11 7 C-9.63016497 3.83884224 -9.0109362 3.0072908 -6 1 C-4.0103005 0.60986284 -2.00980131 0.26797351 0 0 Z " fill="#747474" transform="translate(151,140)"/>
</svg>
