<?xml version="1.0" standalone="no"?>
<!DOCTYPE svg PUBLIC "-//W3C//DTD SVG 20010904//EN"
 "http://www.w3.org/TR/2001/REC-SVG-20010904/DTD/svg10.dtd">
<svg version="1.0" xmlns="http://www.w3.org/2000/svg"
 width="205.000000pt" height="246.000000pt" viewBox="0 0 205.000000 246.000000"
 preserveAspectRatio="xMidYMid meet">

<g transform="translate(0.000000,246.000000) scale(0.100000,-0.100000)"
fill="#000000" stroke="none">
<path d="M637 2436 c-76 -28 -114 -62 -149 -133 -33 -67 -33 -68 -35 -228 -1
-92 1 -147 6 -130 11 43 58 132 98 188 61 83 113 96 203 48 51 -27 84 -35 136
-32 11 1 46 17 79 36 88 54 99 54 143 8 46 -48 123 -197 133 -255 5 -32 7 -17
8 57 2 212 -67 389 -169 433 -50 22 -398 28 -453 8z"/>
<path d="M462 1870 c0 -19 2 -27 5 -17 2 9 2 25 0 35 -3 9 -5 1 -5 -18z"/>
<path d="M1242 1870 c0 -14 2 -19 5 -12 2 6 2 18 0 25 -3 6 -5 1 -5 -13z"/>
<path d="M1212 1765 c-30 -93 -78 -164 -145 -214 -88 -65 -114 -76 -197 -76
-64 0 -85 5 -140 31 -117 56 -219 171 -247 279 l-13 50 5 -44 c13 -102 122
-234 243 -293 58 -29 76 -33 147 -33 67 0 89 4 135 27 68 33 153 116 184 177
28 55 59 147 54 160 -2 5 -13 -24 -26 -64z"/>
<path d="M780 1373 c-30 -13 -57 -27 -59 -29 -2 -2 18 -48 46 -101 l50 -98
-25 -218 c-22 -184 -28 -215 -37 -195 -7 13 -65 154 -130 313 -65 160 -120
292 -122 294 -7 9 -138 -21 -194 -44 -83 -34 -165 -91 -198 -139 -59 -87 -94
-229 -107 -442 l-6 -110 79 -36 c172 -79 412 -131 673 -147 109 -6 344 -1 356
8 1 1 3 39 6 85 4 73 10 96 42 161 45 91 117 167 201 212 80 42 135 55 227 55
48 -1 78 3 78 10 0 27 -34 136 -56 179 -28 56 -67 88 -150 125 -67 29 -265 77
-275 66 -4 -4 -52 -140 -108 -302 -56 -162 -104 -302 -108 -310 -3 -8 -27 89
-53 215 l-47 230 44 81 c23 45 43 85 43 90 0 9 -100 75 -110 73 -3 0 -30 -12
-60 -26z"/>
<path d="M1483 855 c-156 -42 -264 -160 -294 -319 -30 -166 69 -350 229 -424
81 -37 196 -42 283 -13 174 59 278 214 267 400 -10 177 -143 328 -319 361 -67
13 -103 12 -166 -5z m147 -69 c0 -8 15 -17 35 -20 43 -8 88 -46 105 -86 7 -17
11 -32 9 -34 -2 -3 -21 -7 -41 -11 -33 -6 -38 -5 -38 11 0 21 -38 64 -57 64
-10 0 -13 -22 -13 -90 l0 -89 42 -12 c25 -6 58 -26 80 -49 35 -34 38 -43 38
-91 0 -84 -50 -146 -132 -164 -23 -5 -28 -12 -28 -36 0 -24 -4 -29 -25 -29
-21 0 -25 5 -25 30 0 26 -5 31 -40 40 -53 14 -97 55 -114 105 -16 45 -9 55 36
55 21 0 28 -6 33 -30 6 -28 55 -80 76 -80 5 0 9 47 9 105 0 88 -3 105 -15 105
-27 0 -92 38 -114 66 -15 20 -21 41 -21 80 0 45 5 59 31 89 21 23 47 40 75 47
24 7 44 18 44 25 0 7 11 13 25 13 15 0 25 -6 25 -14z"/>
<path d="M1548 704 c-51 -27 -63 -82 -28 -126 11 -14 29 -28 40 -31 19 -5 20
-1 20 84 0 49 -1 89 -2 89 -2 -1 -15 -7 -30 -16z"/>
<path d="M1630 366 c0 -106 7 -115 55 -73 38 33 45 95 14 129 -13 15 -34 29
-46 33 -23 6 -23 5 -23 -89z"/>
</g>
</svg>
