<?xml version="1.0" standalone="no"?>
<!DOCTYPE svg PUBLIC "-//W3C//DTD SVG 20010904//EN"
 "http://www.w3.org/TR/2001/REC-SVG-20010904/DTD/svg10.dtd">
<svg version="1.0" xmlns="http://www.w3.org/2000/svg"
 width="432.000000pt" height="458.000000pt" viewBox="0 0 432.000000 458.000000"
 preserveAspectRatio="xMidYMid meet">

<g transform="translate(0.000000,458.000000) scale(0.100000,-0.100000)"
fill="#000000" stroke="none">
<path d="M1970 4334 c-14 -2 -65 -9 -115 -15 -249 -29 -543 -134 -786 -278
-481 -286 -817 -732 -954 -1266 -56 -219 -68 -328 -62 -580 6 -265 24 -375 99
-605 104 -318 321 -655 560 -870 304 -274 607 -433 978 -514 181 -39 302 -49
515 -43 321 10 574 71 840 202 379 187 682 466 897 828 264 443 348 957 242
1484 -107 538 -419 997 -885 1305 -261 173 -521 277 -819 329 -109 19 -446 35
-510 23z m405 -405 c382 -52 713 -222 990 -510 116 -121 194 -229 270 -372 77
-147 155 -365 155 -435 0 -61 -56 -112 -124 -112 -20 0 -142 36 -273 81 -421
142 -745 249 -847 280 -239 71 -543 76 -766 13 -52 -14 -523 -169 -939 -309
-220 -74 -263 -79 -310 -39 -58 49 -51 139 26 334 95 239 215 424 388 595 204
202 452 346 739 429 208 61 453 76 691 45z m-104 -1277 c229 -60 397 -297 374
-526 -13 -137 -68 -250 -164 -339 -212 -197 -574 -168 -742 60 -157 212 -142
489 36 668 132 132 318 183 496 137z m-1352 -707 c123 -32 229 -92 329 -189
74 -71 117 -132 192 -271 29 -55 109 -201 178 -325 118 -213 125 -228 125
-281 0 -76 -26 -126 -88 -167 -46 -32 -55 -34 -117 -30 -56 3 -83 12 -171 55
-172 86 -363 234 -494 383 -185 209 -363 548 -366 692 -1 55 36 112 87 134 44
19 251 18 325 -1z m2764 1 c18 -7 46 -28 61 -47 26 -31 28 -38 24 -99 -8 -111
-93 -303 -213 -485 -168 -252 -413 -470 -664 -588 -87 -41 -170 -57 -226 -43
-40 10 -102 73 -121 121 -31 84 -20 122 106 347 63 112 147 264 188 338 87
159 122 208 195 277 92 88 184 139 307 174 82 23 294 26 343 5z"/>
</g>
</svg>
