<?xml version="1.0" encoding="UTF-8"?>
<svg version="1.1" viewBox="0 0 1952 2044" width="1280" height="1280" xmlns="http://www.w3.org/2000/svg">
<path transform="translate(550,1045)" d="m0 0 14 8 22 12 18 8 24 7 14 3 27 3h24l34-4 26-7 21-8 19-10 6-4h2l3 35 6 18 8 13 9 11 12 10 8 6-1 7-1 11 2 19 4 15 7 16 8 11 10 13 11 14 9 12v10l-6 29-6 32-1 11-4 5-20 13-22 13-9 7-10 9-8 9-6 9-7 16-4 16-1 8v13l6 34 7 27 7 16 7 12 9 10 10 8 13 8 19 7 10 2 42 5 14 4 3 3 9 15 8 11 10 14 13 17 5 7v3h-805l-23-1-16-4-13-7-8-7-9-12-6-10-6-16-3-15v-21l3-14 11-30 16-40 13-28 10-20 9-15 6-11 8-13 14-21 9-12 18-22 9-9 7-8 11-11 8-7 14-12 18-13 23-15 20-13 24-15 22-14 19-12 34-22 22-14 42-26 24-15 13-10 9-10 9-14 6-14 2-11 1-12v-25zm73 132-12 3-6 4-8 9-4 10-1 6v70l4 15 6 10 9 9 12 6 4 1h91l9-2 9-4 8-6 6-7 6-13 1-6 1-16v-60l-4-11-7-9-9-6-9-2-21-1zm-3 195-8 4-5 6-3 8-6 51-4 38-2 16v12l5 13 11 16 14 19 10 13 14 19 8 10 5 5 5 3 15 2 8-3 8-7 7-8 14-19 15-20 10-13 13-18 4-11v-12l-6-57-6-47-3-10-5-5-7-5z" fill="#1D323E"/>
<path transform="translate(1239,922)" d="m0 0h8l10 3 9 6 9 12 26 42 8 12 7 8 7 5 16 3 39 5 24 5 31 7h12l11-4 14-10 16-12 17-13 13-9 10-5 4-1h10l10 3 11 6 15 10 13 10 7 8 4 8 2 9-1 10-6 26-7 29-3 14v11l5 13 8 11 11 13 13 18 9 14 10 17 8 13 5 6 12 6 12 3 51 6 14 2 10 3 9 7 6 10 5 16 5 24 1 6v14l-4 9-5 7-15 10-27 16-18 11-11 7-7 8-4 11-6 43-7 32-6 23-1 9 3 12 6 11 14 18 13 17 15 20 6 12 1 3v13l-4 11-11 18-10 14-8 9-8 5-11 3-8-1-28-6-33-8-14-3h-17l-11 6-28 22-15 10-22 13-16 10-3 3h-2v2h-2l-2 5-4 9-2 14-8 65-5 12-8 9-12 6-19 5-22 4h-13l-12-5-5-4-9-12-13-21-15-26-9-14-7-6-12-5-15-2-18-2-29-5-30-7-11-2h-12l-10 4-19 14-14 11-16 13-14 10-10 4h-13l-16-8-21-14-11-8-8-9-3-8v-16l6-26 6-27 3-11 1-10v-9l-4-10-8-11-12-14-13-18-13-20-12-20-7-9-8-6-9-3-47-7-18-2-15-4-9-6-6-7-5-16-3-13-3-21v-10l3-12 7-9 10-7 19-12 15-9 21-14 5-5 6-9 2-9 2-19 4-26 4-21 9-36v-9l-5-12-7-11-9-11-7-9-16-21-8-13-3-8v-9l3-10 6-12 12-18 9-12 8-7 9-4h9l19 3 42 10 17 3h12l8-3 13-9 9-8 14-10 18-13 22-13 13-8 6-5 5-8 5-24 6-52 4-12 5-8 7-6 12-5 29-7zm191 172-18 2-12 4-13 9-9 8-10-1-33-4h-41l-24 3-27 6-16 5-21 8-23 11-20 12-17 12-13 11-8 7-14 14-9 11-13 17-12 19-10 18-10 22-9 27-5 23-3 19-1 11v41l2 17 4 23 6 23 8 22 14 29 15 24 12 16 13 15 16 16 8 7 15 12 15 10 17 10 25 12 22 8 28 7 27 4 35 1 24-1 27-4 32-9 21-8 17-8 21-12 17-12 16-13 8-7 22-22 10-13 10-14 14-24 8-15 11-27 5-17 4-19 3-26 1-13v-25l-2-22-3-21-5-21-8-24-10-23-9-17-8-13-1-3v-68l-2-18-8-17-9-11-7-7-10-7-12-6-12-3-12-1z" fill="#1D323E"/>
<path transform="translate(822,463)" d="m0 0 4 2 10 9 31 29 15 13 11 9 19 14 18 11 21 11 17 6 20 4h21l4 4 7 11 6 16 3 17 1 7v25l-4 26-4 16-8 19-9 17-10 13-9 9-11 7-9 4-4 1-19 1-11 28-12 26-16 31-10 17-11 18-12 17-12 16-11 13-11 14-9 9-7 8-13 13-8 7-13 11-13 9-14 8-16 7-24 7-24 4h-32l-25-5-21-7-14-6-18-11-14-11-20-18-15-15-7-8-10-11-9-11-11-14-13-18-16-24-15-26-17-34-11-25-8-18-1-1-17-1-16-8-9-7-7-7-10-14-9-19-8-22-6-27-1-11v-26l1-1 29-1 20-2 32-4 27-4 40-8 34-8 44-12 42-13 31-11 37-15 38-17 25-12 24-13 23-13 13-8 14-9z" fill="#1D323E"/>
<path transform="translate(659,107)" d="m0 0h26l29 3 25 5 19 6 16 6 25 12 18 10 12 8 21 16 10 8 9 4 16 5 16 8 11 7 11 9 17 17 12 16 12 20 8 15 9 20 9 24 9 28 7 28 6 31 3 22 2 26v32l-2 15-3 3-20 1-14-4-16-8-15-10-12-9-14-11-11-9-10-9-13-12-15-14-12-11-12-8-12-4h-23l-10 3-12 6-15 10-17 11-21 12-24 13-32 16-25 11-35 14-27 10-36 12-28 8-44 11-38 8-41 7-29 4-11 1h-23l-5-2-3-7-2-23v-30l2-30 5-34 8-37 9-30 9-25 8-18 12-25 13-23 15-22 10-13 14-17 11-12 21-21 11-9 18-14 17-11 20-12 27-14 19-8 21-7 27-6 14-2z" fill="#1D323E"/>
<path transform="translate(1429,1154)" d="m0 0h41l9 2 6 5 1 2 1 12v116l-1 230-3 5-5 5-24 1h-15l-14-1-5-4-3-4-1-4v-352l3-7 6-5z" fill="#1D323E"/>
<path transform="translate(1291,1253)" d="m0 0h47l8 4 3 3 1 3 1 249-1 11-5 7-10 2h-43l-6-2-5-7-1-10 1-251 6-7z" fill="#1D323E"/>
<path transform="translate(1163,1325)" d="m0 0h30l12 2 6 4 3 4 1 9v178l-6 8-2 1-15 1h-36l-6-2-5-7-1-5v-178l3-8 6-5z" fill="#1D323E"/>
</svg>
