<?xml version="1.0" standalone="no"?>
<!DOCTYPE svg PUBLIC "-//W3C//DTD SVG 20010904//EN"
 "http://www.w3.org/TR/2001/REC-SVG-20010904/DTD/svg10.dtd">
<svg version="1.0" xmlns="http://www.w3.org/2000/svg"
 width="724.000000pt" height="592.000000pt" viewBox="0 0 724.000000 592.000000"
 preserveAspectRatio="xMidYMid meet">

<g transform="translate(0.000000,592.000000) scale(0.100000,-0.100000)"
fill="#000000" stroke="none">
<path d="M2900 5565 c-771 -43 -1050 -132 -1249 -395 -113 -150 -264 -422
-353 -635 -71 -170 -108 -286 -189 -592 -7 -24 -15 -43 -20 -43 -5 0 -33 37
-63 83 -97 148 -225 251 -345 277 -87 18 -225 10 -281 -18 -58 -28 -97 -86
-106 -158 -3 -30 -5 -116 -2 -192 3 -132 5 -141 31 -181 20 -29 44 -50 80 -67
51 -23 57 -24 334 -24 199 0 284 -3 289 -11 4 -7 0 -15 -7 -20 -42 -23 -170
-164 -242 -267 -89 -126 -180 -314 -208 -431 -63 -257 -65 -489 -8 -1071 45
-467 171 -814 307 -846 15 -4 39 -13 53 -20 l26 -13 5 -223 c4 -201 7 -227 25
-263 26 -50 58 -80 105 -100 31 -12 86 -15 310 -15 245 0 277 2 314 19 92 42
123 130 124 349 l0 132 38 -5 c49 -6 310 -23 552 -36 449 -23 1501 -36 1730
-20 87 5 95 8 93 26 -4 35 19 138 44 194 13 30 20 57 16 61 -5 4 -29 15 -56
24 -111 41 -207 138 -249 252 -19 50 -22 85 -26 238 -6 259 17 349 118 459 45
50 149 117 181 117 38 1 43 17 20 64 -12 26 -29 77 -37 114 -20 84 -7 176 39
272 46 95 264 317 358 364 129 65 260 68 387 11 48 -22 53 -23 59 -7 52 150
144 250 280 299 59 21 79 23 262 23 151 0 209 -4 242 -15 101 -35 164 -80 225
-160 26 -35 42 -66 75 -152 l8 -22 44 23 c69 37 171 59 238 51 38 -4 59 -3 59
3 0 21 -59 141 -109 221 -70 113 -132 191 -223 284 -43 43 -78 83 -78 88 0 5
116 9 285 9 306 0 330 3 384 53 52 48 61 87 61 275 0 151 -2 178 -19 210 -44
86 -101 112 -241 112 -150 -1 -238 -34 -342 -129 -60 -55 -89 -92 -163 -210
-20 -33 -29 -41 -35 -30 -5 8 -24 75 -44 149 -105 405 -236 702 -451 1030
-108 164 -194 248 -315 309 -192 97 -462 144 -1015 176 -314 18 -999 18 -1325
0z m1280 -405 c521 -34 937 -115 1021 -199 46 -46 196 -333 274 -521 81 -198
193 -554 202 -647 l6 -54 -34 5 c-83 14 -756 57 -1219 78 -403 18 -1463 15
-1885 -6 -363 -18 -695 -38 -915 -56 -74 -6 -139 -11 -145 -12 -26 -1 -36 3
-29 13 4 7 13 39 20 73 33 163 119 427 204 626 73 172 208 434 248 481 42 49
95 73 257 114 248 63 562 98 1080 119 147 6 748 -3 915 -14z m-2440 -2106
c100 -40 179 -103 236 -191 48 -73 64 -126 71 -224 9 -138 -31 -245 -130 -347
-182 -186 -463 -192 -650 -14 -69 67 -102 118 -128 204 -65 215 40 449 245
548 44 21 92 41 106 44 50 10 205 -3 250 -20z"/>
<path d="M5495 2941 c-49 -21 -58 -45 -86 -231 -14 -95 -14 -95 -77 -114 -31
-10 -90 -34 -130 -52 -40 -19 -76 -34 -81 -34 -4 0 -59 36 -122 81 -150 106
-146 106 -291 -38 -60 -59 -111 -118 -114 -130 -9 -33 1 -54 82 -168 40 -59
74 -113 74 -120 0 -7 -18 -50 -39 -96 -21 -46 -42 -100 -46 -119 -10 -47 -21
-58 -64 -65 -128 -21 -209 -38 -229 -48 -44 -21 -52 -55 -52 -211 0 -146 0
-146 28 -177 30 -33 36 -35 207 -60 44 -7 85 -16 91 -21 7 -5 19 -32 29 -61 9
-29 32 -87 52 -130 l36 -77 -39 -58 c-21 -31 -55 -79 -76 -107 -35 -48 -43
-72 -40 -123 1 -15 41 -62 110 -133 138 -139 135 -138 287 -33 61 42 116 78
123 81 7 3 38 -8 70 -25 31 -17 87 -40 124 -52 38 -12 70 -25 73 -29 5 -9 30
-132 40 -201 9 -55 29 -96 54 -110 11 -5 85 -10 166 -10 158 0 198 10 214 53
5 12 16 65 25 117 28 161 21 151 113 182 44 15 102 39 128 53 26 14 52 25 57
25 4 0 48 -28 96 -63 120 -86 138 -97 162 -97 37 0 73 27 173 128 126 129 126
129 17 282 -44 61 -80 115 -80 120 0 4 11 27 24 51 13 24 36 78 51 119 16 41
36 82 44 91 10 10 58 23 131 34 63 10 128 25 143 34 40 23 49 67 45 223 l-3
138 -31 30 c-25 26 -45 34 -115 46 -46 8 -106 21 -133 27 l-48 12 -33 93 c-19
51 -43 109 -54 128 -12 19 -21 39 -21 43 0 5 36 59 80 122 51 72 80 123 80
140 0 35 -40 87 -142 187 -113 109 -118 109 -266 2 -60 -44 -114 -80 -119 -80
-5 0 -40 15 -79 34 -38 18 -94 42 -124 52 -74 24 -78 28 -86 82 -18 129 -43
225 -63 246 -20 19 -33 21 -174 23 -83 1 -161 -1 -172 -6z m240 -681 c168 -25
312 -108 422 -245 92 -114 150 -291 139 -425 -13 -180 -71 -307 -195 -431
-135 -135 -265 -189 -454 -189 -197 0 -350 68 -486 217 -108 117 -161 260
-161 430 0 359 271 635 640 651 14 1 57 -3 95 -8z"/>
</g>
</svg>
