<?xml version="1.0" standalone="no"?>
<!DOCTYPE svg PUBLIC "-//W3C//DTD SVG 20010904//EN"
 "http://www.w3.org/TR/2001/REC-SVG-20010904/DTD/svg10.dtd">
<svg version="1.0" xmlns="http://www.w3.org/2000/svg"
 width="500.000000pt" height="500.000000pt" viewBox="0 0 500.000000 500.000000"
 preserveAspectRatio="xMidYMid meet">

<g transform="translate(0.000000,500.000000) scale(0.100000,-0.100000)"
fill="#000000" stroke="none">
<path d="M2320 4673 c-599 -58 -1105 -323 -1488 -778 -222 -264 -386 -605
-453 -938 -62 -313 -62 -581 1 -895 64 -324 221 -653 440 -921 90 -110 221
-240 330 -328 227 -183 564 -349 831 -409 338 -76 625 -82 951 -18 425 83 813
295 1124 616 347 358 547 782 600 1273 26 239 15 442 -36 692 -143 704 -656
1304 -1343 1570 -166 64 -382 115 -566 133 -91 9 -315 11 -391 3z m485 -238
c483 -85 902 -326 1198 -690 303 -372 463 -844 444 -1310 -12 -287 -89 -570
-223 -825 -85 -161 -77 -160 -144 -33 -116 222 -250 393 -420 535 -125 105
-205 157 -365 239 -179 92 -184 92 -298 36 -175 -85 -287 -111 -477 -111 -177
1 -285 26 -448 104 -127 61 -131 61 -278 -9 -275 -131 -514 -330 -686 -572
-37 -52 -100 -158 -140 -237 -85 -167 -70 -167 -167 6 -183 326 -273 727 -242
1079 16 185 42 309 102 487 117 349 313 632 604 876 285 238 657 397 1031 440
111 12 402 4 509 -15z"/>
<path d="M2385 4116 c-179 -35 -318 -111 -447 -243 -158 -162 -235 -368 -226
-601 15 -352 233 -635 578 -748 77 -25 99 -28 230 -28 172 -1 226 11 377 84
84 41 117 65 190 134 218 209 304 492 237 786 -20 89 -102 252 -164 327 -102
123 -266 230 -420 273 -97 27 -261 34 -355 16z"/>
</g>
</svg>
