<?xml version="1.0" encoding="UTF-8"?>
<svg version="1.1" xmlns="http://www.w3.org/2000/svg" width="449" height="556">
<path d="M0 0 C2.58154297 1.02197266 2.58154297 1.02197266 4.32324219 3.74316406 C4.83902832 4.94118652 5.35481445 6.13920898 5.88623047 7.37353516 C6.17329865 8.0246225 6.46036682 8.67570984 6.75613403 9.3465271 C7.67434801 11.43933483 8.56591745 13.54229664 9.45654297 15.64697266 C10.04720043 17.00972926 10.63963253 18.37171812 11.23388672 19.73291016 C12.12541629 21.77663149 13.01547636 23.82087421 13.89892578 25.86810303 C18.23162495 35.89638731 22.86322876 45.79235733 27.83154297 55.52197266 C30.26540663 60.29311809 32.472381 65.0949703 34.58154297 70.02197266 C36.14848798 73.14823764 37.75735702 76.24956747 39.37451172 79.35009766 C40.58154297 82.02197266 40.58154297 82.02197266 40.58154297 85.02197266 C43.51259082 84.7033805 45.10095407 84.49788334 47.58154297 83.02197266 C49.67421183 79.78346654 50.73467895 76.3250471 51.83154297 72.64697266 C52.13946777 71.64778809 52.44739258 70.64860352 52.76464844 69.61914062 C54.33733703 63.89172351 55.13616428 59.79184134 52.70654297 54.14697266 C51.7042312 52.41525578 50.66601768 50.70345617 49.58154297 49.02197266 C48.99784961 47.62209792 48.45096963 46.20580999 47.95654297 44.77197266 C47.2432848 42.82672309 46.52404069 40.88258925 45.73388672 38.96728516 C44.0725457 34.87188638 42.88355717 31.50902419 43.58154297 27.02197266 C45.73244748 23.6843622 46.78567096 22.28726333 50.58154297 21.02197266 C53.26612017 20.91309641 55.92395748 20.85793827 58.60888672 20.85400391 C59.3942128 20.85067551 60.17953888 20.84734711 60.98866272 20.84391785 C62.64876724 20.83885803 64.30888192 20.83650923 65.96899414 20.83666992 C68.50603009 20.83448387 71.04263084 20.81631969 73.57958984 20.79736328 C75.19352065 20.79442906 76.80745352 20.79244446 78.42138672 20.79150391 C79.17878647 20.78431839 79.93618622 20.77713287 80.71653748 20.76972961 C85.7105558 20.7913469 88.72755813 21.23420156 92.33154297 24.70947266 C94.11613119 28.01096086 93.85600665 30.28099509 93.58154297 34.02197266 C92.7030923 36.96005767 91.51363828 39.72225926 90.26904297 42.52197266 C89.9603125 43.24255859 89.65158203 43.96314453 89.33349609 44.70556641 C88.15075551 47.45948449 86.95078608 50.20467565 85.71679688 52.93603516 C82.28543217 60.64565458 82.65271001 64.38347074 85.45654297 72.14697266 C85.73884766 72.95779297 86.02115234 73.76861328 86.31201172 74.60400391 C86.83633173 76.10738593 87.36557417 77.60906698 87.90136719 79.10839844 C88.48110167 80.73939587 89.03416333 82.37983374 89.58154297 84.02197266 C92.45519087 84.43943874 92.45519087 84.43943874 95.58154297 84.02197266 C97.65094683 81.49270128 98.64553707 78.87246759 99.92919922 75.87353516 C104.63900627 64.87053839 109.50609195 53.98479377 114.93310547 43.31494141 C117.07702779 39.03217714 119.05372185 34.68091501 121.03857422 30.32275391 C122.71058055 26.74593023 124.47930465 23.22825628 126.26904297 19.70947266 C128.14192128 16.00487819 129.92852935 12.36734306 131.33154297 8.45947266 C132.46415162 5.34479886 133.76914602 2.78372038 135.58154297 0.02197266 C137.23154297 0.35197266 138.88154297 0.68197266 140.58154297 1.02197266 C140.58154297 1.68197266 140.58154297 2.34197266 140.58154297 3.02197266 C141.69142578 3.42222656 141.69142578 3.42222656 142.82373047 3.83056641 C145.5240989 4.99715617 147.39865263 6.28329625 149.70654297 8.08447266 C167.88579819 21.11248464 190.99738756 27.70247396 212.76904297 31.58447266 C246.36040782 37.59732696 246.36040782 37.59732696 258.58154297 49.02197266 C259.12166016 49.52083984 259.66177734 50.01970703 260.21826172 50.53369141 C281.52098128 72.73101337 281.14114858 115.53969445 280.79248047 144.02587891 C280.13773275 153.32572154 276.38014275 161.53592535 269.54248047 167.92822266 C267.28691932 169.74542386 264.98282293 171.40277897 262.58154297 173.02197266 C261.86611328 173.51181641 261.15068359 174.00166016 260.41357422 174.50634766 C247.73406216 182.62472715 232.47305127 188.89630191 217.88037109 192.45947266 C215.36629563 193.0746415 212.85914191 193.71479875 210.35107422 194.35400391 C197.23474846 197.63557642 184.15370238 200.28501212 170.80151367 202.37280273 C169.6267749 202.56124756 168.45203613 202.74969238 167.24169922 202.94384766 C166.1963501 203.1046582 165.15100098 203.26546875 164.07397461 203.43115234 C161.42472519 203.82882828 161.42472519 203.82882828 159.58154297 206.02197266 C158.93259264 208.0712895 158.2838659 210.1206774 157.63623047 212.17041016 C156.33065541 215.70029827 154.70996546 219.04033289 153.01904297 222.39697266 C152.71393799 223.00379883 152.40883301 223.610625 152.09448242 224.23583984 C150.71037107 226.94722798 149.2727269 229.48519676 147.58154297 232.02197266 C146.92154297 232.02197266 146.26154297 232.02197266 145.58154297 232.02197266 C145.35853516 232.72451172 145.13552734 233.42705078 144.90576172 234.15087891 C143.28881238 237.65665401 141.01986629 240.19090323 138.39404297 242.95947266 C137.90226562 243.48508789 137.41048828 244.01070312 136.90380859 244.55224609 C133.33235637 248.32731322 129.74798913 251.89713804 125.58154297 255.02197266 C124.59154297 255.02197266 123.60154297 255.02197266 122.58154297 255.02197266 C122.58154297 255.68197266 122.58154297 256.34197266 122.58154297 257.02197266 C101.90084911 271.57912773 76.37395401 276.10115434 51.61279297 272.36181641 C36.03413865 269.50638961 21.14054019 262.65707834 8.58154297 253.02197266 C8.58154297 252.36197266 8.58154297 251.70197266 8.58154297 251.02197266 C7.99501953 250.93689453 7.40849609 250.85181641 6.80419922 250.76416016 C3.95260266 249.81195744 2.91143394 248.45848377 1.01904297 246.14697266 C-1.35613636 243.25873275 -1.35613636 243.25873275 -3.92626953 240.54931641 C-11.926957 232.36013107 -23.41845703 215.7981481 -23.41845703 204.02197266 C-24.2329834 203.89145508 -25.04750977 203.7609375 -25.88671875 203.62646484 C-66.52794035 197.07938132 -66.52794035 197.07938132 -78.39208984 192.71728516 C-80.67899686 191.89744712 -80.67899686 191.89744712 -84.16455078 191.11572266 C-88.35510919 190.08841617 -92.33190929 188.69309806 -96.35595703 187.14697266 C-97.05470947 186.88086182 -97.75346191 186.61475098 -98.47338867 186.34057617 C-114.27178401 180.27415389 -133.86918813 172.31250029 -141.41845703 156.02197266 C-145.71777822 144.20446678 -143.35601501 130.10371503 -142.60595703 117.77197266 C-142.56210876 117.04552551 -142.5182605 116.31907837 -142.4730835 115.57061768 C-141.81248352 104.88665523 -140.87836642 94.46519908 -138.41845703 84.02197266 C-138.27150391 83.37147949 -138.12455078 82.72098633 -137.97314453 82.05078125 C-135.000058 69.04037823 -130.37268475 57.28171937 -120.41845703 48.02197266 C-119.98533203 47.54888672 -119.55220703 47.07580078 -119.10595703 46.58837891 C-107.44671817 34.89877744 -85.39883494 32.7429934 -69.90283203 30.05712891 C-64.49554805 29.08773174 -59.25451388 27.7392819 -53.98095703 26.20947266 C-53.06354736 25.94376465 -52.1461377 25.67805664 -51.20092773 25.40429688 C-44.37880228 23.38681672 -37.85228756 21.07719112 -31.41845703 18.02197266 C-30.80164063 17.73596191 -30.18482422 17.44995117 -29.54931641 17.15527344 C-22.00613373 13.64058759 -6.7689677 0.0614988 0 0 Z M15.58154297 126.02197266 C14.28216797 127.25947266 14.28216797 127.25947266 12.95654297 128.52197266 C6.801735 135.00071788 2.94799326 141.7640023 -0.41845703 150.02197266 C-0.80259766 150.93333984 -1.18673828 151.84470703 -1.58251953 152.78369141 C-4.13407541 159.21765064 -5.19738424 165.1184722 -5.41845703 172.02197266 C-5.44681641 172.85599609 -5.47517578 173.69001953 -5.50439453 174.54931641 C-5.54383829 177.04610648 -5.49620589 179.52623439 -5.41845703 182.02197266 C-5.41330078 182.84955078 -5.40814453 183.67712891 -5.40283203 184.52978516 C-4.90928824 196.33958311 0.36130715 208.11363241 6.58154297 218.02197266 C7.24154297 218.02197266 7.90154297 218.02197266 8.58154297 218.02197266 C8.80841797 218.74384766 9.03529297 219.46572266 9.26904297 220.20947266 C10.85486172 223.60765569 12.8427762 225.47428264 15.58154297 228.02197266 C16.46841797 228.95009766 17.35529297 229.87822266 18.26904297 230.83447266 C20.29316446 233.25103927 20.29316446 233.25103927 22.58154297 233.02197266 C22.91154297 234.01197266 23.24154297 235.00197266 23.58154297 236.02197266 C41.97238167 248.66123632 61.94771666 253.2198354 84.13574219 249.60595703 C100.48423319 245.98770523 115.91601741 235.89085529 126.58154297 223.02197266 C128.03224261 220.2902893 128.03224261 220.2902893 128.58154297 218.02197266 C129.24154297 218.02197266 129.90154297 218.02197266 130.58154297 218.02197266 C131.52165561 216.1691293 132.45849889 214.31462698 133.39404297 212.45947266 C134.17714844 210.91066406 134.17714844 210.91066406 134.97607422 209.33056641 C143.19619801 192.3903113 144.78247431 173.3982619 139.74560547 155.15869141 C137.27861175 148.51105396 133.91810377 142.26712684 130.58154297 136.02197266 C129.92154297 136.02197266 129.26154297 136.02197266 128.58154297 136.02197266 C128.22769531 134.93529297 128.22769531 134.93529297 127.86669922 133.82666016 C122.24200011 121.55148094 106.6766357 112.43694426 94.49169922 107.86181641 C85.75814943 104.84987525 78.03104564 103.84068854 68.83154297 103.83447266 C67.89310547 103.82222656 66.95466797 103.80998047 65.98779297 103.79736328 C46.75148101 103.75750904 28.53176857 111.76762598 15.58154297 126.02197266 Z " fill="#050505" transform="translate(154.41845703125,273.97802734375)"/>
<path d="M0 0 C2.19642549 1.42615127 4.42533764 2.6332476 6.75 3.8359375 C15.29799085 8.52017681 21.49378273 15.02561069 26.25 23.4609375 C26.56855957 24.02312988 26.88711914 24.58532227 27.21533203 25.16455078 C28.29646224 27.10367243 29.34009228 29.05928832 30.375 31.0234375 C30.69992432 31.61705078 31.02484863 32.21066406 31.35961914 32.82226562 C38.35418955 46.60165821 39.21651983 62.38051697 40.38354492 77.50097656 C41.2494883 90.33391762 41.2494883 90.33391762 47.25 101.4609375 C52.28499445 115.31248342 49.64621772 133.61602753 43.7421875 146.69921875 C40.99784472 151.77840813 37.60988088 156.40466703 33.24609375 160.20703125 C30.49201284 163.31682515 29.32925752 166.67077503 27.875 170.5234375 C25.12365617 177.48241579 22.07942941 184.0167403 18.25 190.4609375 C17.91790527 191.02925293 17.58581055 191.59756836 17.24365234 192.18310547 C12.52792605 200.23387559 12.52792605 200.23387559 10.25 203.4609375 C9.59 203.4609375 8.93 203.4609375 8.25 203.4609375 C8.03730469 204.15445313 7.82460938 204.84796875 7.60546875 205.5625 C5.84862275 209.31921393 3.41340324 211.86505114 0.5625 214.8359375 C0.01867676 215.41102051 -0.52514648 215.98610352 -1.08544922 216.57861328 C-2.15917124 217.71061666 -3.23621492 218.83948061 -4.31689453 219.96484375 C-5.4720781 221.17080029 -6.61163952 222.39171052 -7.74609375 223.6171875 C-15.11201534 231.38938294 -24.30554913 236.59900126 -33.75 241.4609375 C-34.68714844 241.97785156 -35.62429687 242.49476563 -36.58984375 243.02734375 C-40.18301831 244.65737473 -43.70164011 245.47957655 -47.5625 246.1484375 C-48.27535156 246.2736377 -48.98820312 246.39883789 -49.72265625 246.52783203 C-70.60076625 250.02815385 -88.25810636 242.83513859 -105.125 230.90625 C-105.929375 230.19082031 -105.929375 230.19082031 -106.75 229.4609375 C-106.75 228.8009375 -106.75 228.1409375 -106.75 227.4609375 C-107.45125 227.2753125 -108.1525 227.0896875 -108.875 226.8984375 C-112.29335886 225.18925807 -113.91992888 223.17654589 -116.2890625 220.2421875 C-117.82526558 218.30161601 -117.82526558 218.30161601 -120.125 216.1484375 C-134.47988047 201.45177417 -145.00510206 182.411181 -152.23046875 163.2890625 C-154.00544076 159.98551562 -155.49992354 159.203298 -158.75 157.4609375 C-169.40074209 146.78763028 -171.17282414 131.02651661 -171.25 116.7109375 C-171.25636475 115.68726074 -171.26272949 114.66358398 -171.26928711 113.60888672 C-171.1483625 106.56254561 -170.30971642 101.97534921 -165.1015625 96.859375 C-161.25003701 92.41353172 -162.09752321 86.65655726 -162.125 81.0859375 C-161.95200752 70.80249553 -161.16993437 61.45679252 -158.75 51.4609375 C-158.48445313 50.22730469 -158.21890625 48.99367188 -157.9453125 47.72265625 C-153.69277206 29.602318 -144.95169649 14.64688036 -129.69921875 3.64453125 C-127.75 2.4609375 -127.75 2.4609375 -125.015625 1.11328125 C-122.56490502 -0.12673616 -120.29620292 -1.39827935 -117.97265625 -2.84375 C-81.6598184 -25.40337885 -35.19027991 -24.07112897 0 0 Z " fill="#020202" transform="translate(283.75,24.5390625)"/>
<path d="M0 0 C5.28 0 10.56 0 16 0 C16 2.97 16 5.94 16 9 C16.94875 9.04125 17.8975 9.0825 18.875 9.125 C25.03968102 9.98050675 32.11711622 14.10857498 36 19 C36 23.34875595 35.50560942 25.39873474 32.6875 28.75 C31.800625 29.4925 30.91375 30.235 30 31 C29.34 31.61875 28.68 32.2375 28 32.875 C26 34 26 34 23.5625 33.9375 C21 33 21 33 18.765625 30.98828125 C15.39745376 28.56681351 13.29414723 28.41592514 9.1875 28.25 C8.02605469 28.19328125 6.86460937 28.1365625 5.66796875 28.078125 C4.78753906 28.05234375 3.90710938 28.0265625 3 28 C3 30.64 3 33.28 3 36 C3.50015625 36.10699219 4.0003125 36.21398437 4.515625 36.32421875 C10.8224818 38.03976313 16.91934082 40.61545917 23 43 C23.85207031 43.33128906 24.70414063 43.66257812 25.58203125 44.00390625 C31.43446552 46.57805387 36.13113812 51.26227625 39 57 C40.47740755 74.22395387 40.47740755 74.22395387 34.5625 81.34375 C34.046875 81.8903125 33.53125 82.436875 33 83 C32.4225 83.763125 31.845 84.52625 31.25 85.3125 C26.92933267 88.5530005 21.43010208 91 16 91 C16.01160156 91.63808594 16.02320313 92.27617187 16.03515625 92.93359375 C16.04417969 93.75988281 16.05320313 94.58617187 16.0625 95.4375 C16.07410156 96.26121094 16.08570313 97.08492188 16.09765625 97.93359375 C16 100 16 100 15 101 C12.66839945 101.09909302 10.33370058 101.12970504 8 101.125 C6.72125 101.12757813 5.4425 101.13015625 4.125 101.1328125 C1 101 1 101 0 100 C-0.07179964 98.48071962 -0.08392007 96.95832518 -0.0625 95.4375 C-0.05347656 94.61121094 -0.04445312 93.78492188 -0.03515625 92.93359375 C-0.02355469 92.29550781 -0.01195312 91.65742188 0 91 C-0.56847656 90.82984375 -1.13695312 90.6596875 -1.72265625 90.484375 C-9.52853464 88.0344499 -15.34865542 85.13574554 -21 79 C-21.66 78.34 -22.32 77.68 -23 77 C-22.90346334 73.42814373 -22.10112374 72.11205604 -19.6875 69.4375 C-18.800625 68.633125 -17.91375 67.82875 -17 67 C-16.0409375 65.824375 -16.0409375 65.824375 -15.0625 64.625 C-13 63 -13 63 -10.16796875 63.17578125 C-6.69208403 64.08011131 -4.99027099 65.28660379 -2.25 67.5625 C2.27582955 70.9106553 5.30117462 71.70136921 10.87109375 71.34375 C13.1793378 71.02964356 13.1793378 71.02964356 16 70 C16 67.36 16 64.72 16 62 C15.17242187 61.73703125 14.34484375 61.4740625 13.4921875 61.203125 C0.6134411 56.76615197 -11.55351068 51.95951315 -19 40 C-20.93193488 34.20419537 -21.02165777 28.00216649 -19.046875 22.19921875 C-15.40872807 15.30973936 -10.19721638 11.77945876 -3 9 C-2.01 9 -1.02 9 0 9 C0 6.03 0 3.06 0 0 Z " fill="#0E0E0E" transform="translate(215,401)"/>
<path d="M0 0 C0.33 0 0.66 0 1 0 C3.67292815 34.5094116 3.67292815 34.5094116 -7 47 C-9.81810635 49.63455153 -12.80418863 51.84505027 -16 54 C-16.71542969 54.48984375 -17.43085938 54.9796875 -18.16796875 55.484375 C-30.84748081 63.6027545 -46.10849169 69.87432926 -60.70117188 73.4375 C-63.21524733 74.05266885 -65.72240106 74.69282609 -68.23046875 75.33203125 C-81.34679451 78.61360376 -94.42784059 81.26303947 -107.7800293 83.35083008 C-108.95476807 83.5392749 -110.12950684 83.72771973 -111.33984375 83.921875 C-112.90786743 84.16309082 -112.90786743 84.16309082 -114.50756836 84.40917969 C-117.15681778 84.80685563 -117.15681778 84.80685563 -119 87 C-119.55275115 88.48137307 -120.04746849 89.98500322 -120.5 91.5 C-121.38516953 94.46339366 -121.77806313 95.77806313 -124 98 C-123.1071137 92.28552765 -121.69453124 85.73975403 -117 82 C-114.26367188 81.33984375 -114.26367188 81.33984375 -110.96875 80.9375 C-109.76476562 80.78023438 -108.56078125 80.62296875 -107.3203125 80.4609375 C-106.05960937 80.30882812 -104.79890625 80.15671875 -103.5 80 C-95.63602934 79.02730761 -88.0343858 77.97026351 -80.42749023 75.7019043 C-74.99916597 74.13231441 -69.65284392 73 -64 73 C-64 72.34 -64 71.68 -64 71 C-62.98421875 70.76925781 -61.9684375 70.53851563 -60.921875 70.30078125 C-52.21938507 68.26538444 -44.11574953 65.81977225 -36 62 C-35.37593262 61.71108887 -34.75186523 61.42217773 -34.10888672 61.12451172 C-20.93103779 54.9833473 -7.54059881 48.66096267 -1.95581055 34.31835938 C-0.89738717 30.64375131 -0.68065556 27.45310754 -0.5859375 23.6328125 C-0.56657135 22.95322479 -0.5472052 22.27363708 -0.5272522 21.57345581 C-0.46794901 19.42409421 -0.42127109 17.27467759 -0.375 15.125 C-0.33677468 13.6588321 -0.29772036 12.19268557 -0.2578125 10.7265625 C-0.16228956 7.15123836 -0.07807874 3.57575252 0 0 Z " fill="#9C9C9C" transform="translate(433,393)"/>
<path d="M0 0 C1.46484375 0.9921875 1.46484375 0.9921875 3 3 C3.38387833 5.81510773 3.5709742 8.30823732 3.5625 11.125 C3.5615332 11.88965576 3.56056641 12.65431152 3.55957031 13.44213867 C3.35503494 20.02999895 1.55653356 24.17007442 -3 29 C-3.5775 29.763125 -4.155 30.52625 -4.75 31.3125 C-9.07066733 34.5530005 -14.56989792 37 -20 37 C-19.98839844 37.63808594 -19.97679687 38.27617187 -19.96484375 38.93359375 C-19.95582031 39.75988281 -19.94679687 40.58617187 -19.9375 41.4375 C-19.92589844 42.26121094 -19.91429687 43.08492188 -19.90234375 43.93359375 C-20 46 -20 46 -21 47 C-23.33160055 47.09909302 -25.66629942 47.12970504 -28 47.125 C-29.27875 47.12757813 -30.5575 47.13015625 -31.875 47.1328125 C-35 47 -35 47 -36 46 C-36.07179964 44.48071962 -36.08392007 42.95832518 -36.0625 41.4375 C-36.05347656 40.61121094 -36.04445312 39.78492188 -36.03515625 38.93359375 C-36.02355469 38.29550781 -36.01195312 37.65742188 -36 37 C-36.56847656 36.82984375 -37.13695312 36.6596875 -37.72265625 36.484375 C-45.48660013 34.04761131 -51.44579445 31.05913333 -57 25 C-52.9410721 25 -51.3194515 26.70191819 -48 29 C-43.49474826 31.78600625 -38.9020861 33.99914853 -34 36 C-34 38.97 -34 41.94 -34 45 C-30.04 45 -26.08 45 -22 45 C-22 42.03 -22 39.06 -22 36 C-21.01 36 -20.02 36 -19 36 C-19 35.34 -19 34.68 -19 34 C-17.02 34 -15.04 34 -13 34 C-13 33.34 -13 32.68 -13 32 C-11.9275 31.608125 -10.855 31.21625 -9.75 30.8125 C-6.06349357 29.22195085 -4.21968135 27.40879636 -2 24 C-1.4225 23.13375 -0.845 22.2675 -0.25 21.375 C2.2772121 14.55152732 1.25397318 7.05359912 0 0 Z " fill="#7F7F7F" transform="translate(251,455)"/>
<path d="M0 0 C5.28 0 10.56 0 16 0 C16 2.97 16 5.94 16 9 C16.94875 9.04125 17.8975 9.0825 18.875 9.125 C25.01676535 9.97732662 32.15377578 14.1013887 36 19 C35.9375 22.5625 35.9375 22.5625 35 26 C32.9375 27.4375 32.9375 27.4375 31 28 C31.7734375 26.88625 31.7734375 26.88625 32.5625 25.75 C34.20745368 23.21493537 34.20745368 23.21493537 33.80078125 20.98046875 C31.1995794 14.54725245 19.88826658 11.54364457 14 9 C14 6.36 14 3.72 14 1 C9.71 1 5.42 1 1 1 C1.12375 3.1346875 1.12375 3.1346875 1.25 5.3125 C1.21552124 9.71888534 1.21552124 9.71888534 -0.4375 11.875 C-3.52418391 13.23012952 -6.64949824 14.28998514 -9.87890625 15.25390625 C-12.25506929 15.99152649 -12.25506929 15.99152649 -15 18 C-13.54063512 14.14134031 -11.73399879 12.99679238 -8.0625 11.25 C-6.74958984 10.60804688 -6.74958984 10.60804688 -5.41015625 9.953125 C-3 9 -3 9 0 9 C0 6.03 0 3.06 0 0 Z " fill="#969797" transform="translate(215,401)"/>
<path d="M0 0 C0.75539062 0.0721875 1.51078125 0.144375 2.2890625 0.21875 C18.15315182 1.55623762 34.15007447 1.51466865 50 0 C42.85027131 4.76648579 33.51152357 4.35505092 25.1875 4.3125 C24.13884766 4.31121094 23.09019531 4.30992187 22.00976562 4.30859375 C14.31204754 4.21326597 7.35236905 3.41249609 0 1 C0 0.67 0 0.34 0 0 Z " fill="#929393" transform="translate(198,543)"/>
<path d="M0 0 C1.46484375 0.9921875 1.46484375 0.9921875 3 3 C3.38387833 5.81510773 3.5709742 8.30823732 3.5625 11.125 C3.5615332 11.88965576 3.56056641 12.65431152 3.55957031 13.44213867 C3.35503494 20.02999895 1.55653356 24.17007442 -3 29 C-3.5775 29.763125 -4.155 30.52625 -4.75 31.3125 C-9.07066733 34.5530005 -14.56989792 37 -20 37 C-20 39.97 -20 42.94 -20 46 C-20.33 46 -20.66 46 -21 46 C-21 42.7 -21 39.4 -21 36 C-20.34 36 -19.68 36 -19 36 C-19 35.34 -19 34.68 -19 34 C-17.02 34 -15.04 34 -13 34 C-13 33.34 -13 32.68 -13 32 C-11.9275 31.608125 -10.855 31.21625 -9.75 30.8125 C-6.06349357 29.22195085 -4.21968135 27.40879636 -2 24 C-1.4225 23.13375 -0.845 22.2675 -0.25 21.375 C2.2772121 14.55152732 1.25397318 7.05359912 0 0 Z " fill="#A7A7A7" transform="translate(251,455)"/>
<path d="M0 0 C0.75539062 -0.020625 1.51078125 -0.04125 2.2890625 -0.0625 C7.83827751 -0.10063893 11.90472039 1.04976562 17 3.25 C13.25622455 4.32213538 10.8600204 3.89774315 7 3.25 C3.41651014 3.07141345 -0.16259594 3.06492392 -3.75 3.0625 C-4.6884375 3.05025391 -5.626875 3.03800781 -6.59375 3.02539062 C-14.61331011 3.00877551 -22.0123696 3.99605056 -29.5 6.9375 C-30.655 7.370625 -31.81 7.80375 -33 8.25 C-33.66 7.92 -34.32 7.59 -35 7.25 C-31.29251398 4.78751392 -28.0273399 3.57092918 -23.6875 2.625 C-22.61886719 2.38523437 -21.55023438 2.14546875 -20.44921875 1.8984375 C-13.6016106 0.61111819 -6.9528457 0.0474597 0 0 Z " fill="#B6B6B6" transform="translate(227,375.75)"/>
<path d="M0 0 C0.33 0.66 0.66 1.32 1 2 C1.66 2 2.32 2 3 2 C4.1434599 8.16498829 4.18385626 14.12233606 4.1875 20.375 C4.19974609 21.47328125 4.21199219 22.5715625 4.22460938 23.703125 C4.23558582 29.80602704 3.97324013 35.19798166 2 41 C1.01 41.495 1.01 41.495 0 42 C0.15597656 40.97003906 0.31195313 39.94007813 0.47265625 38.87890625 C2.33734211 25.61874337 1.72877116 13.2539122 0 0 Z " fill="#5A5A5A" transform="translate(294,430)"/>
<path d="M0 0 C1.17798912 -0.0049926 1.17798912 -0.0049926 2.379776 -0.01008606 C4.03988052 -0.01514588 5.6999952 -0.01749468 7.36010742 -0.01733398 C9.89714338 -0.01952004 12.43374412 -0.03768421 14.97070312 -0.05664062 C16.58463393 -0.05957484 18.1985668 -0.06155945 19.8125 -0.0625 C20.56989975 -0.06968552 21.3272995 -0.07687103 22.10765076 -0.08427429 C25.88276068 -0.06793321 28.77109187 0.05020447 31.97265625 2.16796875 C31.64265625 2.82796875 31.31265625 3.48796875 30.97265625 4.16796875 C30.47048584 3.84634766 29.96831543 3.52472656 29.45092773 3.19335938 C26.09904052 1.8065082 22.89366743 1.80465568 19.3203125 1.76171875 C18.58316513 1.7503186 17.84601776 1.73891846 17.08653259 1.72717285 C15.53080952 1.70832396 13.97500752 1.69522518 12.41918945 1.6875 C10.04561924 1.66805447 7.67549427 1.60597327 5.30273438 1.54296875 C3.78778089 1.52990958 2.27280275 1.51940827 0.7578125 1.51171875 C0.05245865 1.48702515 -0.6528952 1.46233154 -1.37962341 1.43688965 C-4.2259943 1.46248755 -6.38973904 1.59044796 -8.55105591 3.5480957 C-9.76001903 5.04896499 -10.89849116 6.60595329 -12.02734375 8.16796875 C-12.68734375 8.16796875 -13.34734375 8.16796875 -14.02734375 8.16796875 C-14.35734375 9.48796875 -14.68734375 10.80796875 -15.02734375 12.16796875 C-15.3802281 8.37446195 -15.3112779 6.60855622 -13.21484375 3.35546875 C-9.3418485 -0.5175265 -5.15284779 0.00755074 0 0 Z " fill="#6F706F" transform="translate(213.02734375,294.83203125)"/>
<path d="M0 0 C2.11373648 2.11373648 2.89183846 3.99537011 4.00390625 6.7265625 C5.73957171 10.68796366 7.79353476 14.49466032 9.79296875 18.328125 C11 21 11 21 11 24 C15.96911366 22.87302957 15.96911366 22.87302957 20 20 C19.67 21.65 19.34 23.3 19 25 C16.03 25.33 13.06 25.66 10 26 C8.82625827 23.56568361 7.66084237 21.12795818 6.5 18.6875 C6.16613281 17.99720703 5.83226562 17.30691406 5.48828125 16.59570312 C3 11.33984375 3 11.33984375 3 8 C2.34 8 1.68 8 1 8 C0.67 5.36 0.34 2.72 0 0 Z " fill="#7A7A7A" transform="translate(184,335)"/>
<path d="M0 0 C0.68359375 1.765625 0.68359375 1.765625 1 4 C-0.15234375 5.859375 -0.15234375 5.859375 -1.9375 7.75 C-2.58332031 8.44222656 -3.22914063 9.13445312 -3.89453125 9.84765625 C-4.58933594 10.55792969 -5.28414063 11.26820313 -6 12 C-6.68449219 12.69996094 -7.36898438 13.39992188 -8.07421875 14.12109375 C-9.42389275 15.48105098 -10.78308564 16.83163778 -12.15234375 18.171875 C-13.71116693 19.71422013 -15.20727101 21.31957529 -16.6875 22.9375 C-19.19929061 25.17774568 -20.68685464 25.71601611 -24 26 C-21.40591653 23.35814336 -18.79165724 20.78007477 -16.02734375 18.31640625 C-15.26647461 17.63674805 -15.26647461 17.63674805 -14.49023438 16.94335938 C-13.45482848 16.02256445 -12.41574771 15.10588533 -11.37304688 14.19335938 C-8.77801741 11.86279151 -6.61469976 9.58604273 -4.75390625 6.65234375 C-4.17511719 5.77707031 -3.59632813 4.90179688 -3 4 C-2.34 4 -1.68 4 -1 4 C-0.67 2.68 -0.34 1.36 0 0 Z " fill="#989898" transform="translate(286,488)"/>
<path d="M0 0 C1.33332095 2.6666419 0.67102033 4.16680303 0 7 C-0.66 7 -1.32 7 -2 7 C-1.91249445 9.22988284 -1.80430939 11.45896005 -1.6875 13.6875 C-1.62949219 14.92886719 -1.57148438 16.17023438 -1.51171875 17.44921875 C-0.98756518 21.08628434 0.04558579 22.96162497 2 26 C1.67 26.66 1.34 27.32 1 28 C-3.79439659 21.21935339 -5.29384825 15.26688885 -4 7 C-2.92917204 4.27007808 -1.74095287 2.3938102 0 0 Z " fill="#8B8C8C" transform="translate(199,419)"/>
<path d="M0 0 C5.75 1.875 5.75 1.875 8 3 C8 3.66 8 4.32 8 5 C8.79857422 5.18755859 8.79857422 5.18755859 9.61328125 5.37890625 C12.50774625 6.13213037 15.34120065 7.01877975 18.1875 7.9375 C19.25355469 8.27652344 20.31960937 8.61554688 21.41796875 8.96484375 C24 10 24 10 25 12 C18.82207004 11.54594279 14.49858278 10.14764031 9.125 7.125 C8.46242187 6.77308594 7.79984375 6.42117188 7.1171875 6.05859375 C3.88422794 4.29097968 2.07573643 3.11360465 0 0 Z " fill="#919191" transform="translate(183,257)"/>
<path d="M0 0 C0.66 0.33 1.32 0.66 2 1 C0 4 0 4 -3 5 C-4.84399021 6.9466718 -6.49469912 9.00800719 -8.18359375 11.08984375 C-10.02321723 13.02441554 -11.55756696 13.97471492 -14 15 C-11.37198148 8.54940909 -5.2026757 4.3630508 0 0 Z " fill="#515151" transform="translate(41,316)"/>
<path d="M0 0 C4.26311963 2.84207975 4.64768623 6.229568 6 11 C6.268125 11.9075 6.53625 12.815 6.8125 13.75 C7.05160456 16.61925469 6.24374041 18.43935798 5 21 C4 18 4 18 4.5546875 16.0546875 C5.13427639 13.38044404 4.48233833 12.45587754 3.125 10.125 C1.29092964 6.74778078 0.38662561 3.86625609 0 0 Z " fill="#989898" transform="translate(204,320)"/>
<path d="M0 0 C2.83392926 -0.08174796 5.66544819 -0.14084985 8.5 -0.1875 C9.29148438 -0.21263672 10.08296875 -0.23777344 10.8984375 -0.26367188 C16.62130318 -0.33403498 20.75203857 0.70702602 26 3 C22.34811918 4.07174763 19.73567172 3.76411467 16 3 C16 2.34 16 1.68 16 1 C10.72 1 5.44 1 0 1 C0 0.67 0 0.34 0 0 Z " fill="#555555" transform="translate(218,376)"/>
<path d="M0 0 C0.8971875 0.31324219 0.8971875 0.31324219 1.8125 0.6328125 C1.19761719 1.01953125 0.58273438 1.40625 -0.05078125 1.8046875 C-0.85902344 2.32546875 -1.66726562 2.84625 -2.5 3.3828125 C-3.30050781 3.89328125 -4.10101563 4.40375 -4.92578125 4.9296875 C-8.49339302 7.61617927 -10.40043072 10.22522454 -11.1875 14.6328125 C-11.9375 12.4453125 -11.9375 12.4453125 -12.1875 9.6328125 C-9.85845361 5.90633828 -4.79918808 -0.805578 0 0 Z " fill="#A4A4A4" transform="translate(204.1875,464.3671875)"/>
<path d="M0 0 C-1.59092052 4.13639336 -4.60474918 7.23213248 -8 10 C-8.66 10 -9.32 10 -10 10 C-10 10.66 -10 11.32 -10 12 C-10.66 11.67 -11.32 11.34 -12 11 C-10.89718873 9.72799029 -9.79269231 8.45744147 -8.6875 7.1875 C-8.07261719 6.47980469 -7.45773438 5.77210937 -6.82421875 5.04296875 C-2.32122371 0 -2.32122371 0 0 0 Z " fill="#2E2E2E" transform="translate(151,32)"/>
<path d="M0 0 C0.99 0 1.98 0 3 0 C3 0.66 3 1.32 3 2 C-3.625 5 -3.625 5 -7 5 C-7 7.97 -7 10.94 -7 14 C-7.33 14 -7.66 14 -8 14 C-8 10.7 -8 7.4 -8 4 C-7.34 4 -6.68 4 -6 4 C-6 3.34 -6 2.68 -6 2 C-4.02 2 -2.04 2 0 2 C0 1.34 0 0.68 0 0 Z " fill="#939393" transform="translate(238,487)"/>
<path d="M0 0 C7.25398658 0.47567125 13.26812223 2.29466594 20 5 C15.98254049 6.22158298 13.95968208 5.39753485 10 4 C8.783125 3.855625 7.56625 3.71125 6.3125 3.5625 C2.80629352 2.96710645 2.22964713 2.52603527 0 0 Z " fill="#616161" transform="translate(380,309)"/>
<path d="M0 0 C0.33 0 0.66 0 1 0 C1.08097324 2.27024968 1.13917704 4.54132075 1.1875 6.8125 C1.22230469 8.07707031 1.25710938 9.34164063 1.29296875 10.64453125 C1 14 1 14 -2 17 C-1.34 11.39 -0.68 5.78 0 0 Z " fill="#8A8A8A" transform="translate(296,455)"/>
<path d="M0 0 C-3.13124559 1.63982293 -6.3142683 2.95155299 -9.625 4.1875 C-10.58664063 4.55230469 -11.54828125 4.91710937 -12.5390625 5.29296875 C-15 6 -15 6 -17 5 C-11.72168628 1.48112419 -6.38702535 -0.38709245 0 0 Z " fill="#939393" transform="translate(209,378)"/>
<path d="M0 0 C-5.03996638 3.35997759 -9.99709677 4.29282455 -16 4 C-13.40608858 2.59496465 -10.73026086 1.42294192 -8 0.3125 C-7.34 0.04050781 -6.68 -0.23148437 -6 -0.51171875 C-3.65456399 -1.08433496 -2.26562596 -0.75352292 0 0 Z " fill="#707171" transform="translate(117,297)"/>
<path d="M0 0 C3.48670834 1.1094072 6.77484237 2.26337666 10 4 C10 4.66 10 5.32 10 6 C5.56909529 4.79157144 3.01887244 3.48331435 0 0 Z " fill="#8C8D8C" transform="translate(31,447)"/>
<path d="M0 0 C5.75 1.875 5.75 1.875 8 3 C8 3.66 8 4.32 8 5 C8.99 5.33 9.98 5.66 11 6 C6.48986609 5.46939601 3.61621781 3.69113883 0 1 C0 0.67 0 0.34 0 0 Z " fill="#898B89" transform="translate(183,257)"/>
<path d="M0 0 C4.3177458 0.50797009 8.03302114 1.19682779 12 3 C8.18029984 4.46911544 5.69358471 3.52561108 2 2 C1.34 1.34 0.68 0.68 0 0 Z " fill="#474747" transform="translate(248,9)"/>
<path d="M0 0 C0.33 0.99 0.66 1.98 1 3 C0.34 3.66 -0.32 4.32 -1 5 C-1.6425235 7.06874034 -1.6425235 7.06874034 -2 9 C-2.66 9 -3.32 9 -4 9 C-4 7.02 -4 5.04 -4 3 C-3.01 2.67 -2.02 2.34 -1 2 C-0.67 1.34 -0.34 0.68 0 0 Z " fill="#707070" transform="translate(238,328)"/>
<path d="M0 0 C0.66 0 1.32 0 2 0 C4.1875 2.3125 4.1875 2.3125 6 5 C5.67 5.99 5.34 6.98 5 8 C2.74754119 5.31158141 1.11786042 3.35358125 0 0 Z " fill="#808080" transform="translate(152,225)"/>
</svg>
