<svg fill="none" height="24" viewBox="0 0 24 24" width="24" xmlns="http://www.w3.org/2000/svg"><g fill="#1c274c"><path d="m8.27953 4.50412c1.01576-.63041 1.72997-1.07259 2.32697-1.36292.5817-.28287.9937-.3912 1.3935-.3912s.8118.10833 1.3935.39119c.597.29034 1.3112.73252 2.327 1.36293l2 1.24125c.9608.59632 1.6354 1.01598 2.1386 1.40133.4896.37494.7713.68436.9638 1.03615.1933.35304.3061.7658.3655 1.39819.0608.64756.0616 1.46476.0616 2.62286v1.5211c0 1.9709-.0015 3.3762-.1402 4.4433-.1362 1.048-.3928 1.6561-.8206 2.0986-.4243.4389-1.0021.6995-2.0034.8388-1.0256.1426-2.3783.1443-4.2858.1443-.4142 0-.75.3358-.75.75s.3358.75.75.75h.0581c1.8363 0 3.2934 0 4.4343-.1586 1.1771-.1637 2.128-.509 2.8752-1.282.7438-.7693 1.073-1.7424 1.2297-2.9478.1527-1.175.1527-2.6778.1527-4.5817v-1.6127c0-1.1131 0-2.0007-.0682-2.7265-.0704-.74896-.2171-1.38258-.5431-1.97807-.3266-.59674-.7788-1.05594-1.3676-1.50682-.5685-.43541-1.3062-.89321-2.2274-1.46493l-2.0666-1.28257c-.9735-.60422-1.7529-1.08797-2.4276-1.41607-.698-.33942-1.3414-.54224-2.0495-.54224s-1.3515.20282-2.04944.54224c-.67469.3281-1.4541.81183-2.42764 1.41605l-2.06663 1.28261c-.9212.57171-1.65884 1.0295-2.22738 1.46491-.58875.45088-1.04095.91008-1.36759 1.50682-.39851.72804-.53003 1.51594-.57994 2.49936-.021.41371.29734.76601.71102.78701s.76605-.2973.78705-.711c.04587-.90392.161-1.42281.39765-1.85515.19256-.35179.47423-.66121.96383-1.03615.50318-.38535 1.17777-.80501 2.13861-1.40133z"/><path d="m2 12.2498c-.41421 0-.75.3358-.75.75s.33579.75.75.75c4.55635 0 8.25 3.6936 8.25 8.25 0 .4142.3358.75.75.75s.75-.3358.75-.75c0-5.3848-4.36522-9.75-9.75-9.75z"/><path d="m1.25 15.9998c0-.4142.33579-.75.75-.75 3.72792 0 6.75 3.0221 6.75 6.75 0 .4142-.33579.75-.75.75s-.75-.3358-.75-.75c0-2.8995-2.3505-5.25-5.25-5.25-.41421 0-.75-.3358-.75-.75z"/><path d="m2 18.2498c-.41421 0-.75.3358-.75.75s.33579.75.75.75c1.24264 0 2.25 1.0073 2.25 2.25 0 .4142.33579.75.75.75s.75-.3358.75-.75c0-2.0711-1.67893-3.75-3.75-3.75z"/></g></svg>